<?xml version="1.0" standalone="no"?>
<!DOCTYPE svg PUBLIC "-//W3C//DTD SVG 1.1//EN" "http://www.w3.org/Graphics/SVG/1.1/DTD/svg11.dtd" >
<svg xmlns="http://www.w3.org/2000/svg" xmlns:xlink="http://www.w3.org/1999/xlink" version="1.1">
<metadata>
Created by FontForge 20201107 at Sun Dec  4 11:51:21 2016
 By 
Copyright 2016 The Sansita Project Authors (omnibus.type@gmail.com)
</metadata>
<defs>
<font id="Sansita-Italic" horiz-adv-x="554" >
  <font-face 
    font-family="Sansita"
    font-weight="400"
    font-style="italic"
    font-stretch="normal"
    units-per-em="1000"
    panose-1="3 6 5 2 3 6 5 6 5 6"
    ascent="800"
    descent="-200"
    x-height="522"
    cap-height="660"
    bbox="-227 -258 1305 928"
    underline-thickness="50"
    underline-position="-100"
    slope="-11"
    unicode-range="U+000D-FB02"
  />
<missing-glyph horiz-adv-x="514" 
d="M-41 0l136 700h500l-136 -700h-500zM286 395l218 255h-340zM126 605l-100 -510l221 255zM307 350l119 -255l100 510zM49 50h340l-122 255z" />
    <glyph glyph-name="fi" unicode="fi" horiz-adv-x="556" 
d="M452 104q-5 -27 -5 -42q0 -32 30 -35q-6 -23 -26.5 -35t-46.5 -12q-32 0 -50 17.5t-18 49.5q0 29 19 127l59 291h-187l-87 -465l-116 -12l93 477h-71l9 45h70l14 54q23 89 81 122.5t162 33.5q76 0 132 -17t56 -65q0 -31 -25 -48t-61 -17q-16 0 -31 2.5t-23 8.5
q15 23 15 44q0 48 -79 48q-50 0 -79.5 -23.5t-38.5 -74.5l-12 -68h298z" />
    <glyph glyph-name="fl" unicode="fl" horiz-adv-x="559" 
d="M449 631q0 20 -23 32.5t-61 12.5q-99 0 -117 -98l-13 -68h91l-7 -45h-92l-87 -465l-116 -12l93 477h-71l9 45h70l14 54q23 89 82 122.5t161 33.5q70 0 122 -16l73 8l-122 -608q-5 -27 -5 -42q0 -32 30 -35q-6 -23 -26.5 -35t-46.5 -12q-32 0 -50 17.5t-18 49.5
q0 29 19 127l83 413q8 38 8 44z" />
    <glyph glyph-name="f_f" unicode="ff" horiz-adv-x="601" 
d="M214 674q58 36 149 36q45 0 81 -7.5t58 -20.5q50 38 136 38q58 0 96 -18.5t38 -59.5q0 -32 -22 -50.5t-55 -18.5q-28 0 -42 11q14 25 14 48q0 21 -11 32.5t-33 11.5q-64 0 -81 -98l-12 -68h91l-6 -45h-94l-87 -465l-116 -12l93 477h-184l-87 -465l-116 -12l93 477h-71
l9 45h70l11 44q20 84 78 120zM433.5 573.5q1.5 11.5 1.5 24.5q0 33 -20 50.5t-58 17.5q-47 0 -73 -25t-36 -73l-12 -58h185l9 44q2 8 3.5 19.5z" />
    <glyph glyph-name=".notdef" horiz-adv-x="514" 
d="M-41 0l136 700h500l-136 -700h-500zM286 395l218 255h-340zM126 605l-100 -510l221 255zM307 350l119 -255l100 510zM49 50h340l-122 255z" />
    <glyph glyph-name=".null" horiz-adv-x="0" 
 />
    <glyph glyph-name="nonmarkingreturn" unicode="&#xd;" horiz-adv-x="162" 
 />
    <glyph glyph-name="NULL" horiz-adv-x="0" 
 />
    <glyph glyph-name="NULL" horiz-adv-x="0" 
 />
    <glyph glyph-name="space" unicode=" " horiz-adv-x="162" 
 />
    <glyph glyph-name="exclam" unicode="!" horiz-adv-x="249" 
d="M192 680q33 0 47 -17t14 -50q0 -32 -10.5 -75.5t-32.5 -115.5q-23 -74 -36 -127.5t-14 -95.5q-8 -9 -21.5 -14t-27.5 -5q-25 0 -38.5 14.5t-13.5 38.5q0 17 5 39l77 398q26 10 51 10zM135.5 88q20.5 -16 20.5 -46q0 -31 -21.5 -47.5t-55.5 -16.5q-33 0 -53 16t-20 46
q0 31 21.5 47.5t54.5 16.5t53.5 -16z" />
    <glyph glyph-name="quotedbl" unicode="&#x22;" horiz-adv-x="395" 
d="M132.5 596.5q7.5 57.5 8.5 107.5q22 6 44 6q65 0 65 -62q0 -36 -18.5 -85t-40.5 -72h-78q12 48 19.5 105.5zM303.5 596.5q7.5 57.5 8.5 107.5q22 6 44 6q64 0 64 -62q0 -36 -18 -85t-40 -72h-78q12 48 19.5 105.5z" />
    <glyph glyph-name="numbersign" unicode="#" 
d="M533 222q0 -29 -16.5 -45.5t-46.5 -16.5h-66l-17 -108q-4 -24 -22 -38t-43 -14q-20 0 -42 11l26 149h-109l-17 -108q-4 -24 -22 -38t-43 -14q-20 0 -42 11l26 149h-99q-5 22 -5 35q0 29 16.5 46t45.5 17h59l21 130h-107q-6 20 -6 36q0 29 16.5 45.5t45.5 16.5h68l19 126
q4 24 18.5 37.5t37.5 13.5q20 0 44 -10l-26 -167h113l20 126q4 24 18.5 37.5t37.5 13.5q21 0 44 -10l-26 -167h104q4 -22 4 -36q0 -29 -16 -45.5t-45 -16.5h-62l-20 -130h108q6 -19 6 -36zM323 258l21 130h-112l-19 -130h110z" />
    <glyph glyph-name="dollar" unicode="$" 
d="M363 465q7 15 11 36t4 36q0 32 -18 50.5t-51 18.5q-40 0 -65.5 -26.5t-25.5 -66.5q0 -31 15.5 -56.5t37.5 -45t60 -47.5q42 -30 68 -54.5t44.5 -58t18.5 -76.5q0 -55 -30 -98t-80.5 -68t-110.5 -30l-6 -32q-7 -38 -19.5 -51t-41.5 -13q-24 0 -36 4l19 97
q-56 10 -91.5 41.5t-35.5 80.5q0 42 26 65t63 23q30 0 50 -13q-6 -15 -10.5 -36t-4.5 -35q0 -33 23 -50.5t59 -17.5q46 0 79 28.5t33 73.5q0 29 -15 53t-35 42t-60 48q-44 33 -70 57t-44.5 58t-18.5 78q0 74 51.5 123t133.5 61l7 35q7 37 19.5 50.5t38.5 13.5q14 0 36 -4
l-18 -92q61 -6 95.5 -34t34.5 -81q0 -48 -27.5 -74t-63.5 -26q-28 0 -49 13z" />
    <glyph glyph-name="percent" unicode="%" horiz-adv-x="983" 
d="M167 -22q-46 0 -58 33l609 639q33 33 79 33t58 -33l-608 -639q-33 -33 -80 -33zM389 416q-22 -57 -69 -93.5t-118 -36.5q-63 0 -94.5 33.5t-31.5 107.5q0 64 22.5 120.5t70 91.5t117.5 35q63 0 94 -32.5t31 -105.5q0 -63 -22 -120zM274.5 379.5q21.5 35.5 31 83t9.5 83.5
q0 70 -45 70q-34 0 -56 -34t-31.5 -80t-9.5 -84q0 -74 45 -74q35 0 56.5 35.5zM886 111q-22 -57 -69 -93.5t-118 -36.5q-64 0 -95.5 33.5t-31.5 107.5q0 64 23 120.5t70.5 91.5t117.5 35q63 0 94 -32.5t31 -105.5q0 -63 -22 -120zM771 75q22 36 31.5 83t9.5 83q0 70 -45 70
q-34 0 -56 -34t-31.5 -80t-9.5 -84q0 -74 45 -74q34 0 56 36z" />
    <glyph glyph-name="ampersand" unicode="&#x26;" horiz-adv-x="666" 
d="M632 49q0 -32 -23.5 -50.5t-64.5 -18.5q-63 0 -133 43q-73 -43 -166 -43q-65 0 -117.5 23.5t-83 66.5t-30.5 101q0 68 40 113t104 71q-19 60 -19 111q0 110 67 162t172 52q68 0 115 -23.5t47 -81.5q0 -37 -21 -63.5t-62 -26.5q-25 0 -42 8q6 21 6 47q0 36 -15 53.5
t-49 17.5q-97 0 -97 -124q0 -89 46 -183t114 -157q18 26 25.5 57t7.5 60q0 26 -10 50.5t-27 42.5q14 9 33.5 14t39.5 5q83 0 83 -90q0 -46 -23.5 -96.5t-61.5 -91.5q46 -24 83 -24q32 0 54 10q8 -20 8 -35zM347 71q-50 43 -92.5 100.5t-70.5 119.5q-20 -14 -32 -39.5
t-12 -59.5q0 -59 33.5 -99t96.5 -40q46 0 77 18z" />
    <glyph glyph-name="quotesingle" unicode="'" horiz-adv-x="225" 
d="M132.5 596.5q7.5 57.5 8.5 107.5q24 6 45 6q64 0 64 -62q0 -36 -18 -85t-40 -72h-79q12 48 19.5 105.5z" />
    <glyph glyph-name="parenleft" unicode="(" horiz-adv-x="377" 
d="M279.5 519q-76.5 -171 -76.5 -387q0 -108 21.5 -182t70.5 -130q-6 -20 -36 -20q-49 0 -89.5 50.5t-64 134.5t-23.5 182q0 149 54 297t139 242t172 94q36 0 50 -20q-141 -90 -217.5 -261z" />
    <glyph glyph-name="parenright" unicode=")" horiz-adv-x="407" 
d="M148 800q49 0 89.5 -50.5t64 -134.5t23.5 -182q0 -149 -54 -297t-139 -242t-172 -94q-36 0 -50 20q95 60 163 163t102.5 226.5t34.5 244.5q0 101 -25 186t-73 140q6 20 36 20z" />
    <glyph glyph-name="asterisk" unicode="*" horiz-adv-x="426" 
d="M457 531q3 -9 3 -16q0 -26 -39 -38q-43 -14 -111 -11l71 -110q-11 -26 -29 -39q-11 -8 -23 -8q-20 0 -39 26q-27 35 -46 107l-86 -105q-28 3 -45 16q-18 12 -18 29q0 16 15 36q29 39 87 75l-120 47q-3 14 -3 25q0 13 3 23q9 27 36 27q24 0 56.5 -17t65.5 -45l8 130
q23 14 46 14q40 0 40 -51q0 -43 -24 -108l125 32q22 -20 27 -39z" />
    <glyph glyph-name="plus" unicode="+" 
d="M240 410q5 26 24 41t48 15q18 0 32 -5l-35 -177h158q5 -14 5 -26q0 -28 -19.5 -44.5t-52.5 -16.5h-108l-28 -139q-5 -25 -22 -38.5t-44 -13.5q-18 0 -36 6l37 185h-153q-4 11 -4 23q0 28 17.5 46t44.5 18h111z" />
    <glyph glyph-name="comma" unicode="," horiz-adv-x="194" 
d="M114.5 -40.5q-21.5 -35.5 -54.5 -58t-65 -22.5q-19 0 -37 7q30 34 47 74t17 81q0 27 -9 44q9 5 26 9t32 4q30 0 47.5 -16.5t17.5 -49.5q0 -37 -21.5 -72.5z" />
    <glyph glyph-name="hyphen" unicode="-" horiz-adv-x="332" 
d="M291.5 289q17.5 2 24.5 6q8 -19 8 -45q0 -25 -14.5 -40t-39.5 -15h-200q-12 0 -29.5 -2t-24.5 -6q-4 8 -6 21.5t-2 23.5q0 25 14.5 40t39.5 15h200q12 0 29.5 2z" />
    <glyph glyph-name="period" unicode="." horiz-adv-x="192" 
d="M107.5 88q20.5 -16 20.5 -46q0 -31 -21.5 -47.5t-55.5 -16.5q-33 0 -53 16t-20 46q0 31 21.5 47.5t54.5 16.5t53.5 -16z" />
    <glyph glyph-name="slash" unicode="/" horiz-adv-x="317" 
d="M-5 -200q-53 0 -53 35q0 11 4.5 24.5l5.5 16.5l334 922q13 3 33 3q30 0 43.5 -7.5t13.5 -26.5q0 -15 -11 -48l-332 -915q-12 -4 -38 -4z" />
    <glyph glyph-name="zero" unicode="0" 
d="M483.5 620.5q41.5 -59.5 41.5 -173.5q0 -111 -33.5 -218t-105.5 -178t-180 -71q-96 0 -137.5 59.5t-41.5 173.5q0 111 33.5 218t105.5 178t180 71q96 0 137.5 -59.5zM237 555q-31 -49 -56 -156q-28 -120 -28 -219q0 -59 15.5 -91.5t61.5 -32.5q54 0 85 49t56 156
q29 125 29 219q0 59 -16 91.5t-62 32.5q-54 0 -85 -49z" />
    <glyph glyph-name="one" unicode="1" 
d="M497 60q0 -63 -85 -63l-342 3q-54 0 -69 -12q-9 16 -9 38q0 29 20 46.5t61 17.5h127l86 444q-32 -17 -73.5 -29t-72.5 -12q-33 0 -50.5 22t-21.5 57q141 24 334 104l28 -16l-111 -573h112q38 0 51 16q15 -19 15 -43z" />
    <glyph glyph-name="two" unicode="2" 
d="M346 393.5q36 49.5 36 100.5q0 43 -29 68.5t-86 25.5q-58 0 -99.5 -27t-73.5 -75q-16 9 -23.5 21.5t-7.5 32.5q0 42 34 74t88.5 49.5t114.5 17.5q93 0 147.5 -44t54.5 -130q0 -70 -34.5 -124t-97.5 -108l-67 -51q-21 -16 -73.5 -56.5t-72.5 -59.5q108 -18 195 -18
q38 0 63 5t45 17q13 -23 13 -50q0 -74 -110 -74q-45 0 -135 14q-80 13 -123 13q-41 0 -70 -12q-11 9 -18 24.5t-7 30.5q0 33 36 66l191 157q73 63 109 112.5z" />
    <glyph glyph-name="three" unicode="3" 
d="M276.5 386.5q46.5 17.5 77.5 49.5t31 76q0 39 -31.5 57.5t-88.5 18.5q-91 0 -154 -81q-31 16 -31 51q0 39 31 66.5t81 42t104 14.5q96 0 153.5 -35t57.5 -110q0 -71 -46.5 -119t-118.5 -66q73 -16 110.5 -50.5t37.5 -96.5q0 -65 -40 -115.5t-107.5 -79t-146.5 -28.5
t-136 34t-57 93q0 21 7.5 33.5t24.5 21.5q59 -86 166 -86q75 0 119 27.5t44 83.5q0 66 -51 90t-141 24l10 63q48 4 94.5 21.5z" />
    <glyph glyph-name="four" unicode="4" 
d="M498 660q-12 -57 -32 -159t-32 -163l-20 -106h47q38 0 50 16q16 -19 16 -42q0 -30 -20 -47t-58 -17h-52l-28 -142h-116l27 144h-286q-9 16 -9 37q0 14 6 24.5t14 20.5t12 14l363 420h118zM313 312q20 96 39 201l-241 -278h187z" />
    <glyph glyph-name="five" unicode="5" 
d="M484.5 663q13.5 3 23.5 13q18 -19 18 -47q0 -36 -24.5 -53t-66.5 -17h-233l-34 -158q40 2 71 2q258 0 258 -174q0 -70 -39 -126.5t-107.5 -89t-153.5 -32.5q-81 0 -138.5 34t-57.5 93q0 21 7.5 33.5t24.5 21.5q30 -43 73 -64.5t96 -21.5q80 0 124.5 33t44.5 94
q0 64 -45.5 91t-131.5 27q-31 0 -72 -3t-63 -6l81 347h310q21 0 34.5 3z" />
    <glyph glyph-name="six" unicode="6" 
d="M459 661q40 -20 40 -64q0 -35 -27 -51q-43 43 -105 43q-79 0 -128 -62.5t-68 -157.5q25 39 68 59.5t92 20.5q77 0 116 -49t39 -137q0 -79 -31 -143.5t-89.5 -102t-139.5 -37.5q-194 0 -194 232q0 110 40.5 219t116.5 179.5t177 70.5q53 0 93 -20zM213.5 343.5
q-28.5 -31.5 -42 -79t-13.5 -97.5q0 -111 76 -111q44 0 73 32.5t42.5 81t13.5 97.5t-17 78.5t-60 29.5q-44 0 -72.5 -31.5z" />
    <glyph glyph-name="seven" unicode="7" 
d="M567 603q-66 -87 -128 -178q-111 -165 -143.5 -259.5t-32.5 -144.5q0 -16 1 -25q-17 -7 -39 -11.5t-39 -4.5q-35 0 -55 18.5t-20 50.5q0 50 48 124l254 386h-259q-42 0 -66.5 17t-24.5 53q0 28 18 47q10 -10 24 -13t35 -3h427v-57z" />
    <glyph glyph-name="eight" unicode="8" 
d="M469.5 646.5q45.5 -33.5 45.5 -97.5q0 -108 -142 -196q33 -27 52.5 -47t32 -47.5t12.5 -65.5q0 -61 -33 -109.5t-89 -75.5t-123 -27q-85 0 -141 43t-56 121q0 68 44 121.5t116 87.5q-36 30 -55.5 62.5t-19.5 76.5q0 58 34 100.5t88.5 64.5t114.5 22q74 0 119.5 -33.5z
M379 455q25 42 25 81q0 33 -19.5 50.5t-54.5 17.5q-39 0 -66 -22t-27 -60q0 -33 19.5 -62.5t48.5 -52.5l15 -13q34 19 59 61zM164.5 249.5q-25.5 -41.5 -25.5 -88.5q0 -49 26.5 -76.5t72.5 -27.5q48 0 77.5 30t29.5 76q0 38 -20 67.5t-57 58.5l-30 25q-48 -23 -73.5 -64.5z
" />
    <glyph glyph-name="nine" unicode="9" 
d="M514 449q0 -110 -40.5 -219t-117 -179.5t-177.5 -70.5q-53 0 -92.5 20t-39.5 64q0 35 27 51q43 -43 105 -43q79 0 128 62.5t68 157.5q-24 -38 -66.5 -59t-93.5 -21q-77 0 -116 49t-39 137q0 79 30.5 143.5t89 102t139.5 37.5q195 0 195 -232zM238 572.5
q-29 -32.5 -42 -81t-13 -97.5t16.5 -78.5t59.5 -29.5q44 0 72.5 31.5t42 79t13.5 97.5q0 51 -16.5 81t-59.5 30q-44 0 -73 -32.5z" />
    <glyph glyph-name="colon" unicode=":" horiz-adv-x="274" 
d="M1 0zM212.5 512q20.5 -16 20.5 -46q0 -31 -21.5 -47.5t-55.5 -16.5q-33 0 -53 16t-20 46q0 31 21.5 47.5t54.5 16.5t53.5 -16zM130.5 88q20.5 -16 20.5 -46q0 -31 -21.5 -47.5t-55.5 -16.5q-33 0 -53 16t-20 46q0 31 21.5 47.5t54.5 16.5t53.5 -16z" />
    <glyph glyph-name="semicolon" unicode=";" horiz-adv-x="259" 
d="M0 0zM212.5 512q20.5 -16 20.5 -46q0 -31 -21.5 -47.5t-55.5 -16.5q-33 0 -53 16t-20 46q0 31 21.5 47.5t54.5 16.5t53.5 -16zM114.5 -40.5q-21.5 -35.5 -54.5 -58t-65 -22.5q-19 0 -37 7q30 34 47 74t17 81q0 27 -9 44q9 5 26 9t32 4q30 0 47.5 -16.5t17.5 -49.5
q0 -37 -21.5 -72.5z" />
    <glyph glyph-name="less" unicode="&#x3c;" 
d="M347 102q10 -11 10 -30q0 -25 -19 -45t-53 -21l-234 234l282 220q29 23 59 23q24 0 41.5 -13t23.5 -36l-240 -193h-1z" />
    <glyph glyph-name="equal" unicode="=" 
d="M476 322q0 -25 -18 -41.5t-52 -16.5h-335q-3 14 -3 24q0 27 17.5 44t44.5 17h342q4 -16 4 -27zM476 163q0 -27 -18 -43.5t-52 -16.5h-335q-3 12 -3 23q0 28 17.5 45.5t44.5 17.5h342q4 -12 4 -26z" />
    <glyph glyph-name="greater" unicode="&#x3e;" 
d="M474 249l-282 -220q-29 -23 -59 -23q-20 0 -35 13t-20 36l234 188l-135 144q-10 11 -10 30q0 25 19 45t53 21l234 -234h1z" />
    <glyph glyph-name="question" unicode="?" horiz-adv-x="409" 
d="M428.5 481q-22.5 -35 -54.5 -61.5t-86 -63.5q-50 -35 -79.5 -59t-49.5 -53.5t-20 -64.5q-28 0 -42.5 19.5t-14.5 52.5q0 30 16.5 56t40 46.5t65.5 51.5q41 31 64.5 51.5t40 46.5t16.5 56q0 31 -18.5 46t-50.5 15q-41 0 -68 -23t-27 -64q0 -25 9 -44q-23 -6 -50 -6
q-40 0 -62.5 17.5t-22.5 52.5q0 68 73.5 97.5t160.5 29.5q85 0 133.5 -31t48.5 -92q0 -41 -22.5 -76zM158.5 88q20.5 -16 20.5 -46q0 -31 -21.5 -47.5t-55.5 -16.5q-33 0 -53 16t-20 46q0 31 21.5 47.5t54.5 16.5t53.5 -16z" />
    <glyph glyph-name="at" unicode="@" horiz-adv-x="802" 
d="M524.5 164.5q-3.5 -16.5 -3.5 -27.5q0 -13 6.5 -18t22.5 -5q60 0 98 52.5t38 137.5q0 74 -30.5 127t-85 81t-125.5 28q-95 0 -169 -48t-114 -127.5t-40 -172.5q0 -224 249 -224q104 0 160 42q12 -9 12 -26q0 -40 -59 -61t-142 -21q-141 0 -228 68t-87 215q0 114 54 209.5
t152 151t223 55.5q93 0 165.5 -32t113 -93.5t40.5 -147.5q0 -74 -29.5 -133.5t-82 -93.5t-119.5 -34q-76 0 -113 43q-14 -22 -38 -32.5t-52 -10.5q-104 0 -104 138q0 63 22 118.5t66.5 90t108.5 34.5q19 0 32.5 -3t35.5 -12l79 9l-51 -253q-2 -8 -5.5 -24.5zM425 390
q-33 0 -54 -33.5t-30.5 -79.5t-9.5 -85q0 -32 9 -49.5t33 -17.5q33 0 48.5 29t24.5 75l28 141q-25 20 -49 20z" />
    <glyph glyph-name="A" unicode="A" horiz-adv-x="536" 
d="M463 123q6 -72 39 -93q-6 -23 -25.5 -36.5t-45.5 -13.5q-39 0 -55.5 30.5t-23.5 82.5q-6 45 -8 75h-187l-40 -98l-29 -70h-115l298 660h146zM238 373l-53 -134h153l-19 339z" />
    <glyph glyph-name="B" unicode="B" horiz-adv-x="546" 
d="M318 669q95 0 148.5 -27.5t53.5 -107.5q0 -110 -110 -165q102 -31 102 -142q0 -75 -43 -128.5t-116 -80.5t-161 -27q-66 0 -169 9l126 660q94 9 169 9zM261 385q63 0 98.5 35.5t35.5 98.5q0 44 -20 64t-64 20q-25 0 -55 -7l-41 -208q21 -3 46 -3zM220 60q76 0 121 40.5
t45 109.5q0 49 -23 72t-59.5 29t-102.5 6l-49 -250q31 -7 68 -7z" />
    <glyph glyph-name="C" unicode="C" horiz-adv-x="512" 
d="M489 645.5q45 -34.5 45 -97.5q0 -47 -25 -73t-63 -26q-15 0 -28.5 4t-20.5 12q6 16 10 37.5t4 36.5q0 32 -17.5 51t-50.5 19q-62 0 -105 -63t-64 -151.5t-21 -163.5q0 -71 24.5 -112.5t84.5 -41.5q52 0 89 30.5t66 84.5q17 -9 24.5 -21.5t7.5 -33.5q0 -45 -31.5 -81
t-82.5 -56t-107 -20q-98 0 -149.5 62t-51.5 182q0 107 39 212.5t116.5 174.5t186.5 69q75 0 120 -34.5z" />
    <glyph glyph-name="D" unicode="D" horiz-adv-x="598" 
d="M249.5 666q56.5 3 88.5 3q87 0 137.5 -25t72.5 -76t22 -132q0 -118 -40 -219t-123 -163.5t-206 -62.5q-34 0 -83 2.5t-97 6.5l128 660q44 3 100.5 6zM191 62q23 -2 41 -2q74 0 117 54t66 147q11 45 20 102t9 100q0 69 -27.5 102.5t-91.5 33.5q-31 0 -71 -7l-103 -525
q17 -3 40 -5z" />
    <glyph glyph-name="E" unicode="E" horiz-adv-x="441" 
d="M450.5 589q-29.5 -24 -78.5 -24q-55 0 -122 27l-37 -215h180q0 -43 -26 -62.5t-70 -19.5q-49 0 -97 23l-41 -229h121q20 0 43 3t36 9q6 -8 10 -20.5t4 -24.5q0 -33 -28.5 -44.5t-74.5 -11.5h-248l127 660h331q0 -47 -29.5 -71z" />
    <glyph glyph-name="F" unicode="F" horiz-adv-x="432" 
d="M450.5 589q-29.5 -24 -78.5 -24q-55 0 -122 27l-37 -215h180q0 -43 -26 -62.5t-70 -19.5q-49 0 -97 23l-57 -318h-121l127 660h331q0 -47 -29.5 -71z" />
    <glyph glyph-name="G" unicode="G" horiz-adv-x="528" 
d="M463 171q-15 -90 -18 -175q-10 -16 -35 -16q-58 0 -58 58q-72 -58 -152 -58q-85 0 -129.5 63.5t-44.5 177.5q0 109 39 215t116.5 175t186.5 69q75 0 120 -34.5t45 -97.5q0 -47 -25 -73t-63 -26q-15 0 -28.5 4t-20.5 12q7 16 11 37.5t4 36.5q0 32 -18 51t-50 19
q-63 0 -106 -63t-64 -152t-21 -165q0 -72 25 -112.5t87 -40.5q22 0 45.5 5t38.5 16l32 211l127 18q-29 -65 -44 -155z" />
    <glyph glyph-name="H" unicode="H" horiz-adv-x="615" 
d="M496 95q-5 -27 -5 -46q0 -25 12 -45q-30 -24 -67 -24q-34 0 -47.5 17t-13.5 50q0 20 11 86l27 157h-218l-56 -290h-117l127 660h119l-59 -300h217l56 300h119z" />
    <glyph glyph-name="I" unicode="I" horiz-adv-x="290" 
d="M268 660l-129 -660h-117l127 660h119z" />
    <glyph glyph-name="J" unicode="J" horiz-adv-x="290" 
d="M153 71q-20 -107 -54 -169t-91 -62q-23 0 -41 10t-26 29q39 15 59 61.5t32 110.5l117 609h119z" />
    <glyph glyph-name="K" unicode="K" horiz-adv-x="559" 
d="M142 0h-117q38 198 72.5 383t51.5 277h119zM414 429l-74 -93q50 -131 99.5 -207.5t86.5 -93.5q-7 -26 -27.5 -40t-50.5 -14q-46 0 -78.5 34t-63 103t-80.5 210l243 332h131q-22 -27 -186 -231z" />
    <glyph glyph-name="L" unicode="L" horiz-adv-x="376" 
d="M149 660h119l-112 -571h124q20 0 43 3t36 9q6 -8 10 -20.5t4 -24.5q0 -33 -28.5 -44.5t-73.5 -11.5h-249z" />
    <glyph glyph-name="M" unicode="M" horiz-adv-x="749" 
d="M745 660l-52 -538q-1 -8 -2 -20t-1 -21q0 -21 5 -36t17 -29q-30 -38 -76 -38q-39 0 -50.5 21.5t-11.5 69.5q0 20 6 74l41 375l-239 -518h-82l-86 518l-106 -518h-98l145 660h149l78 -461l211 461h152z" />
    <glyph glyph-name="N" unicode="N" horiz-adv-x="649" 
d="M125 0h-98l122 660h144l144 -516l86 516h97l-120 -660h-131l-155 533z" />
    <glyph glyph-name="O" unicode="O" horiz-adv-x="591" 
d="M518.5 621.5q46.5 -58.5 46.5 -174.5q0 -109 -36.5 -216.5t-114.5 -179t-194 -71.5q-101 0 -147.5 58.5t-46.5 175.5q0 110 37 217t115 178t193 71q101 0 147.5 -58.5zM240 552.5q-38 -57.5 -60 -151.5q-12 -50 -20.5 -111t-8.5 -105q0 -134 95 -134q70 0 107 59.5
t58 149.5q12 50 20.5 111t8.5 105q0 134 -95 134q-67 0 -105 -57.5z" />
    <glyph glyph-name="P" unicode="P" horiz-adv-x="507" 
d="M22 0l127 660q94 9 169 9q110 0 165.5 -35.5t55.5 -131.5q0 -64 -25 -115.5t-71.5 -80.5t-108.5 -29q-36 0 -63.5 11t-33.5 38q9 -2 28 -2q68 0 109 43.5t41 127.5q0 55 -21.5 81.5t-72.5 26.5q-31 0 -66 -7l-116 -596h-117z" />
    <glyph glyph-name="Q" unicode="Q" horiz-adv-x="592" 
d="M533.5 622q46.5 -58 46.5 -173q0 -111 -38.5 -219.5t-113.5 -179t-179 -70.5q6 -1 63 -13t120 -12q68 0 103 22q13 -23 13 -50q0 -40 -29.5 -57t-75.5 -17q-31 0 -62 6t-84 19q-42 11 -71.5 17t-55.5 6q-38 0 -67 -12q-11 9 -18 25t-7 33q0 39 29.5 53.5t73.5 20.5
q66 9 109.5 29.5t77.5 70t57 140.5q12 51 20.5 109t8.5 104q0 62 -20 99t-70 37q-117 0 -168 -210q-12 -48 -20 -104.5t-8 -94.5q0 -34 9.5 -49.5t35.5 -19.5q0 -17 -16 -28t-48 -11q-108 0 -108 143q0 87 35.5 190.5t113 178.5t196.5 75q101 0 147.5 -58z" />
    <glyph glyph-name="R" unicode="R" horiz-adv-x="566" 
d="M318 669q110 0 165.5 -35.5t55.5 -131.5q0 -88 -45.5 -148.5t-122.5 -73.5q45 -106 88.5 -168t76.5 -77q-7 -28 -28.5 -41t-49.5 -13q-45 0 -78 33.5t-64.5 104.5t-78.5 207q12 -1 25 -1q75 0 113.5 42.5t38.5 119.5q0 59 -24.5 87.5t-77.5 28.5q-27 0 -57 -7l-116 -596
h-117l127 660q94 9 169 9z" />
    <glyph glyph-name="S" unicode="S" horiz-adv-x="505" 
d="M440 651q43 -29 43 -89q0 -49 -27.5 -75.5t-63.5 -26.5q-29 0 -48 13q7 16 11 37t4 37q0 32 -18.5 51t-51.5 19q-40 0 -65.5 -27t-25.5 -68q0 -45 28.5 -77.5t84.5 -73.5q42 -31 68 -55.5t44.5 -59t18.5 -78.5q0 -60 -34 -105.5t-90.5 -70t-121.5 -24.5q-78 0 -132 34
t-54 96q0 43 26 66.5t63 23.5q30 0 50 -13q-7 -16 -11 -37t-4 -36q0 -33 23 -51t59 -18q46 0 79 29t33 75q0 29 -14.5 54t-35.5 43.5t-59 47.5q-45 35 -71 58.5t-44.5 58.5t-18.5 80q0 58 31.5 101.5t86 66.5t121.5 23q73 0 116 -29z" />
    <glyph glyph-name="T" unicode="T" horiz-adv-x="403" 
d="M439 663q23 3 36 9q6 -8 10 -20.5t4 -24.5q0 -33 -28 -44.5t-74 -11.5h-68l-95 -476q-5 -27 -5 -46q0 -25 12 -45q-30 -24 -68 -24q-33 0 -46.5 17t-13.5 48t6 61l92 465h-64q-20 0 -43 -3t-36 -9q-6 8 -10 20.5t-4 24.5q0 33 28.5 44.5t73.5 11.5h250q20 0 43 3z" />
    <glyph glyph-name="U" unicode="U" horiz-adv-x="570" 
d="M495 270q-28 -148 -90.5 -219t-179.5 -71q-89 0 -136 40t-47 118q0 44 14 114l79 408h118l-79 -419q-13 -70 -13 -98q0 -41 23 -64t65 -23q67 0 98 54.5t48 150.5l70 399h105z" />
    <glyph glyph-name="V" unicode="V" horiz-adv-x="489" 
d="M32 629q6 23 25.5 36.5t44.5 13.5q73 0 80 -114l29 -485l238 580h115l-303 -660h-157l-33 536q-4 69 -39 93z" />
    <glyph glyph-name="W" unicode="W" horiz-adv-x="804" 
d="M32 629q6 23 25.5 36.5t44.5 13.5q73 0 80 -114l29 -485l220 580h79l34 -580l220 580h115l-285 -660h-156l-18 413l-159 -413h-157l-33 536q-4 69 -39 93z" />
    <glyph glyph-name="X" unicode="X" horiz-adv-x="521" 
d="M89 595q-18 26 -38 31q8 25 29 39t50 14q40 0 61.5 -26t40.5 -76l57 -154l169 237h116l-250 -330l79 -209q12 -31 30 -57t38 -31q-8 -25 -29.5 -39t-50.5 -14q-40 0 -61 26t-41 76l-62 166l-164 -248h-115l244 341l-73 197q-12 31 -30 57z" />
    <glyph glyph-name="Y" unicode="Y" horiz-adv-x="375" 
d="M321.5 605q50.5 61 104.5 61q24 0 40 -11t21 -32q-66 -42 -129.5 -123.5t-114.5 -191.5l-58 -308h-121l64 321q-32 131 -66.5 203.5t-67.5 87.5q7 26 28 40t51 14q33 0 54 -18.5t36 -61t32 -124.5l13 -63q63 145 113.5 206z" />
    <glyph glyph-name="Z" unicode="Z" horiz-adv-x="449" 
d="M181 573q-38 0 -63 -5t-45 -17q-13 23 -13 51q0 73 110 73q42 0 118 -14q67 -13 106 -13q42 0 71 12q11 -9 18 -25t7 -31q0 -24 -14 -40l-362 -459q90 -18 172 -18q38 0 63 5t45 17q13 -23 13 -50q0 -41 -30 -57.5t-81 -16.5q-41 0 -123 14q-72 13 -111 13q-41 0 -70 -12
q-11 9 -18 25t-7 32q0 25 17 44l361 454q-92 18 -164 18z" />
    <glyph glyph-name="bracketleft" unicode="[" horiz-adv-x="378" 
d="M448 747q-22 -13 -68 -13h-70l-162 -867h50q45 0 64.5 -12t19.5 -40q0 -11 -1 -15h-264l188 1000h271q-6 -40 -28 -53z" />
    <glyph glyph-name="backslash" unicode="\" horiz-adv-x="283" 
d="M118.5 770.5q5.5 17.5 21 25t47.5 7.5q26 0 32 -4l-46 -931q-2 -39 -18 -53.5t-54 -14.5q-31 0 -37 4l47 914q2 35 7.5 52.5z" />
    <glyph glyph-name="bracketright" unicode="]" horiz-adv-x="378" 
d="M247 733h-52q-45 0 -64.5 12t-19.5 40q0 11 1 15h267l-188 -1000h-271q6 40 28 53t68 13h69z" />
    <glyph glyph-name="asciicircum" unicode="^" horiz-adv-x="474" 
d="M355.5 519.5q15.5 -69.5 42 -121t57.5 -72.5q-9 -12 -38.5 -21t-53.5 -9q-56 0 -85 60.5t-45 197.5q-45 -127 -89.5 -193t-96.5 -66q-21 0 -35.5 10t-17.5 27q53 22 108.5 114t95.5 214h141q1 -71 16.5 -140.5z" />
    <glyph glyph-name="underscore" unicode="_" horiz-adv-x="494" 
d="M457 -72q0 -27 -18.5 -44.5t-53.5 -17.5h-423q-4 12 -4 24q0 28 18 46t46 18h430q5 -15 5 -26z" />
    <glyph glyph-name="grave" unicode="`" horiz-adv-x="228" 
d="M169 622q-55 15 -85 34.5t-30 56.5q0 18 8 34t24 22l212 -136l-17 -41z" />
    <glyph glyph-name="a" unicode="a" horiz-adv-x="529" 
d="M425 104q-5 -30 -5 -42q0 -32 30 -35q-6 -23 -26.5 -35t-46.5 -12q-28 0 -46.5 15t-21.5 42q-20 -29 -57 -43t-79 -14q-77 0 -111.5 47.5t-34.5 139.5q0 90 30 173t92.5 136.5t154.5 53.5q27 0 49.5 -5t51.5 -16l100 13zM336.5 462q-23.5 8 -44.5 8q-52 0 -81 -45
t-46 -116q-10 -39 -16.5 -85.5t-6.5 -78.5q0 -48 17 -76.5t54 -28.5q51 0 80 47.5t41 113.5l44 238q-18 15 -41.5 23z" />
    <glyph glyph-name="b" unicode="b" horiz-adv-x="510" 
d="M234 599q-8 -43 -19 -86.5t-21 -69.5q27 42 68 64.5t90 22.5q72 0 102.5 -47.5t30.5 -133.5q0 -92 -30.5 -176.5t-93 -138.5t-152.5 -54q-47 0 -104.5 13.5t-91.5 36.5l130 670l113 12zM174.5 48q23.5 -8 43.5 -8q53 0 82.5 44t46.5 117q9 39 16 85t7 78q0 43 -15 66
t-50 23q-54 0 -87 -52t-47 -123l-39 -208q19 -14 42.5 -22z" />
    <glyph glyph-name="c" unicode="c" horiz-adv-x="439" 
d="M410.5 503q38.5 -27 38.5 -78q0 -42 -24.5 -64.5t-58.5 -22.5q-29 0 -42 14q6 15 10 34.5t4 33.5q0 24 -12 37.5t-36 13.5q-45 0 -79 -48.5t-51.5 -117t-17.5 -123.5q0 -119 91 -119q43 0 75 26.5t47 69.5q34 -10 34 -51q0 -35 -24.5 -64t-68 -46.5t-96.5 -17.5
q-173 0 -173 198q0 89 32.5 170t96 131.5t152.5 50.5q64 0 102.5 -27z" />
    <glyph glyph-name="d" unicode="d" horiz-adv-x="529" 
d="M425 104q-5 -30 -5 -42q0 -32 30 -35q-6 -23 -26.5 -35t-46.5 -12q-28 0 -46.5 15t-21.5 42q-20 -29 -57 -43t-79 -14q-77 0 -111.5 47.5t-34.5 138.5q0 90 30 173.5t92.5 137t153.5 53.5q24 0 44.5 -4t45.5 -13l37 187l112 12zM336.5 462q-23.5 8 -44.5 8q-52 0 -81 -45
t-46 -116q-10 -39 -16.5 -85.5t-6.5 -78.5q0 -48 17 -76.5t54 -28.5q51 0 80 47.5t41 113.5l44 238q-18 15 -41.5 23z" />
    <glyph glyph-name="e" unicode="e" horiz-adv-x="438" 
d="M414.5 503q37.5 -27 37.5 -87q0 -57 -34 -97t-91.5 -61t-127.5 -21q-28 0 -54 2q-3 -33 -3 -60q0 -58 21 -87t72 -29q43 0 77 20.5t53 58.5q12 -3 18 -14t6 -26q0 -30 -24 -58t-67 -46t-98 -18q-87 0 -130 48.5t-43 149.5q0 89 32.5 169.5t97 131.5t157.5 51
q63 0 100.5 -27zM202 415.5q-37 -57.5 -50 -127.5q77 0 134 32t57 95q0 29 -13.5 43.5t-38.5 14.5q-52 0 -89 -57.5z" />
    <glyph glyph-name="f" unicode="f" horiz-adv-x="308" 
d="M208.5 682q49.5 38 131.5 38q60 0 99 -20t39 -62q0 -32 -22.5 -50.5t-54.5 -18.5q-29 0 -43 11q14 25 14 50q0 46 -43 46q-64 0 -81 -98l-12 -68h91l-6 -45h-94l-87 -465l-116 -12l93 477h-71l9 45h70l14 54q20 80 69.5 118z" />
    <glyph glyph-name="g" unicode="g" horiz-adv-x="504" 
d="M431 141q-25 -129 -56 -202t-77.5 -106.5t-118.5 -33.5q-74 0 -121.5 32t-47.5 92q0 38 22 56.5t51 18.5q19 0 34.5 -8t23.5 -23q-19 -21 -19 -48q0 -29 17.5 -45t45.5 -16q60 0 89 65.5t49 191.5q-20 -29 -57 -43t-78 -14q-71 0 -109 42t-38 123q0 77 33 147.5t94 115
t140 44.5q25 0 47.5 -5t51.5 -16l100 13zM339 462q-23 8 -42 8q-45 0 -77 -44.5t-48 -106t-16 -109.5q0 -92 69 -92q53 0 80.5 45.5t42.5 115.5l32 160q-18 15 -41 23z" />
    <glyph glyph-name="h" unicode="h" horiz-adv-x="540" 
d="M255 599q-8 -43 -19 -86.5t-21 -69.5q27 44 70.5 65.5t93.5 21.5q63 0 92.5 -32.5t29.5 -95.5q0 -40 -9 -86.5t-28 -121.5q-10 -39 -17.5 -74.5t-7.5 -54.5q0 -17 6.5 -26.5t23.5 -11.5q-6 -23 -26.5 -35t-47.5 -12q-67 0 -67 75q0 30 8.5 72t24.5 109q15 59 22 93t7 56
q0 33 -17 50.5t-47 17.5q-53 0 -86.5 -51.5t-47.5 -123.5l-54 -278l-113 -12l139 712l113 12z" />
    <glyph glyph-name="i" unicode="i" horiz-adv-x="262" 
d="M266 708q20 -16 20 -46q0 -31 -21.5 -47.5t-54.5 -16.5t-53 16t-20 46q0 31 21.5 47.5t54.5 16.5t53 -16zM158 104q-5 -27 -5 -42q0 -32 30 -35q-6 -23 -26.5 -35t-47.5 -12q-31 0 -49 18t-18 49q0 29 19 127l68 336l113 12z" />
    <glyph glyph-name="j" unicode="j" horiz-adv-x="262" 
d="M271 708q20 -16 20 -46q0 -31 -21.5 -47.5t-54.5 -16.5t-53 16t-20 46q0 31 21.5 47.5t54.5 16.5t53 -16zM149 31q-24 -121 -68.5 -176t-101.5 -55q-61 0 -70 58q38 1 63.5 25.5t43.5 75.5t36 140l83 411l113 12z" />
    <glyph glyph-name="k" unicode="k" horiz-adv-x="470" 
d="M234 599q-8 -43 -19 -86.5t-21 -69.5q26 43 68 65t90 22q58 0 88 -31t30 -85q0 -71 -47 -116.5t-120 -71.5l46 -119q11 -29 30 -49t46 -23q-4 -25 -22 -40t-48 -15q-39 0 -65.5 26.5t-47.5 80t-50 154.5q70 17 118.5 55t48.5 94q0 31 -16 47t-46 16q-54 0 -82 -48
t-44 -127l-54 -278l-113 -12l139 712l113 12z" />
    <glyph glyph-name="l" unicode="l" horiz-adv-x="241" 
d="M137 104q-5 -27 -5 -42q0 -32 30 -35q-6 -23 -26.5 -35t-47.5 -12q-31 0 -49 18t-18 49q0 29 19 127l106 526l113 12z" />
    <glyph glyph-name="m" unicode="m" horiz-adv-x="818" 
d="M373 530q53 0 81 -22.5t37 -68.5q26 46 70.5 68.5t96.5 22.5q64 0 96 -33.5t32 -95.5q0 -40 -10.5 -87.5t-30.5 -118.5q-14 -52 -21 -81t-7 -48t7.5 -28t22.5 -11q-6 -23 -26.5 -35t-47.5 -12q-67 0 -67 75q0 30 9 74t25 108q11 43 19.5 84.5t8.5 63.5q0 33 -17 50.5
t-48 17.5q-55 0 -83.5 -49.5t-42.5 -125.5l-54 -278l-113 -12l51 253q1 7 12 58.5t11 83.5q0 34 -17 52t-49 18q-55 0 -83 -48.5t-43 -126.5l-54 -278l-113 -12l102 522l94 12l-13 -90q51 98 165 98z" />
    <glyph glyph-name="n" unicode="n" horiz-adv-x="540" 
d="M279 506q45 24 100 24q63 0 92.5 -32.5t29.5 -95.5q0 -40 -9 -86.5t-28 -121.5q-10 -39 -17.5 -74.5t-7.5 -54.5q0 -17 6.5 -26.5t23.5 -11.5q-6 -23 -26.5 -35t-47.5 -12q-67 0 -67 75q0 30 8.5 72t24.5 109q15 59 22 93t7 56q0 33 -17 50.5t-47 17.5q-53 0 -86.5 -51.5
t-47.5 -123.5l-54 -278l-113 -12l102 522l94 12l-13 -90q26 50 71 74z" />
    <glyph glyph-name="o" unicode="o" horiz-adv-x="509" 
d="M447 479q35 -51 35 -136q0 -96 -31 -178.5t-96 -133.5t-161 -51q-97 0 -132 51t-35 136q0 96 31 178.5t95.5 133.5t160.5 51q98 0 133 -51zM211 426q-29 -44 -46 -117q-10 -39 -16.5 -85.5t-6.5 -79.5q0 -104 74 -104q52 0 81.5 44t46.5 117q10 39 16.5 85.5t6.5 79.5
q0 104 -75 104q-52 0 -81 -44z" />
    <glyph glyph-name="p" unicode="p" horiz-adv-x="531" 
d="M280 503.5q45 26.5 97 26.5q69 0 98.5 -47.5t29.5 -134.5q0 -93 -30.5 -177t-93 -137.5t-153.5 -53.5q-43 0 -89 17l-35 -177l-112 -12l134 702l94 12l-13 -90q28 45 73 71.5zM195 48q23 -8 44 -8q53 0 82 45t46 116q10 39 16.5 85t6.5 78q0 44 -15.5 66.5t-50.5 22.5
q-50 0 -82 -41.5t-44 -102.5l-44 -238q18 -15 41 -23z" />
    <glyph glyph-name="q" unicode="q" horiz-adv-x="506" 
d="M371 -190l-113 -12l21 113q21 111 38 156q-27 -42 -68 -64.5t-90 -22.5q-72 0 -102.5 47.5t-30.5 134.5q0 93 30.5 177t93 137.5t153.5 53.5q27 0 49.5 -5t51.5 -16l99 13zM336.5 462q-23.5 8 -45.5 8q-51 0 -80.5 -44.5t-46.5 -116.5q-9 -39 -16 -85t-7 -78
q0 -43 15 -66t49 -23q55 0 88 52t47 123l38 208q-18 14 -41.5 22z" />
    <glyph glyph-name="r" unicode="r" horiz-adv-x="422" 
d="M264.5 503q38.5 27 84.5 27t70 -28t24 -72q0 -50 -27.5 -85.5t-70.5 -35.5q-32 0 -44 18q12 17 20.5 41t8.5 44q0 41 -36 41q-72 0 -104 -175l-49 -278l-116 -12l100 522l94 12l-13 -90q20 44 58.5 71z" />
    <glyph glyph-name="s" unicode="s" horiz-adv-x="416" 
d="M238.5 165q-21.5 24 -66.5 55q-53 36 -82 69t-29 83q0 48 30 84t79.5 55t104.5 19q60 0 101 -22.5t41 -72.5q0 -38 -25 -60t-62 -22q-28 0 -40 11q14 35 14 59q0 56 -57 56q-35 0 -55.5 -19.5t-20.5 -52.5q0 -34 21.5 -57.5t65.5 -54.5q36 -25 58.5 -44.5t38 -46.5
t15.5 -62q0 -49 -30 -86t-79.5 -57.5t-104.5 -20.5q-65 0 -114 27t-49 76q0 38 28.5 56.5t64.5 18.5q28 0 43 -12q-14 -30 -14 -59q0 -56 59 -56q37 0 61.5 22t24.5 57q0 33 -21.5 57z" />
    <glyph glyph-name="t" unicode="t" horiz-adv-x="299" 
d="M258 510h78l-9 -45h-79l-72 -361q-5 -27 -5 -42q0 -32 30 -35q-6 -23 -27 -35t-47 -12q-32 0 -49.5 18t-17.5 51q0 45 39 225l10 48l28 143h-71l4 30q49 18 95 48t81 66h32z" />
    <glyph glyph-name="u" unicode="u" horiz-adv-x="528" 
d="M424 104q-5 -30 -5 -42q0 -32 30 -35q-6 -23 -26.5 -35t-46.5 -12q-28 0 -46.5 15t-21.5 42q-20 -29 -57 -43t-79 -14q-70 0 -102 38.5t-32 104.5q0 34 7.5 78t22.5 109l46 200l109 12l-48 -213q-10 -44 -19 -96t-9 -84q0 -38 15.5 -63.5t50.5 -25.5q49 0 78 47t42 114
l60 309l112 12z" />
    <glyph glyph-name="v" unicode="v" horiz-adv-x="453" 
d="M71 410q-6 42 -14.5 62t-26.5 31q21 27 68 27t66 -27.5t25 -92.5q6 -66 6 -223q0 -71 -1 -115q62 81 107 185t45 188q0 30 -7 58q13 12 33.5 19.5t41.5 7.5q31 0 43.5 -16t12.5 -49q0 -63 -35 -146.5t-85 -151.5q-27 -38 -69 -84t-85 -83l-99 -11q-7 296 -26 421z" />
    <glyph glyph-name="w" unicode="w" horiz-adv-x="702" 
d="M71 410q-6 42 -14.5 62t-26.5 31q21 27 68 27t66 -27.5t25 -92.5q5 -57 5 -178l-1 -160q59 73 101 179.5t42 192.5q0 31 -7 59q12 11 30 19t38 8q31 0 40 -20.5t12 -64.5q3 -41 4.5 -111t1.5 -120q0 -32 -2 -142q59 73 101 179.5t42 192.5q0 31 -7 59q13 12 33.5 19.5
t41.5 7.5q30 0 42.5 -16t12.5 -49q0 -63 -35 -145.5t-85 -152.5q-25 -35 -64.5 -82t-79.5 -85l-98 -11q-3 115 -7 194q-34 -56 -71.5 -99t-82.5 -84l-99 -11q-7 296 -26 421z" />
    <glyph glyph-name="x" unicode="x" horiz-adv-x="430" 
d="M24 475q4 26 23 40.5t49 14.5q41 0 66 -28.5t49 -85.5l44 -106q36 35 54.5 65.5t18.5 66.5q0 30 -15 65q11 10 29 16t37 6q34 0 51 -19t17 -51q0 -49 -36.5 -91t-100.5 -87l-34 -23l63 -161q22 -57 73 -62q-4 -26 -23 -40.5t-49 -14.5q-43 0 -68 29.5t-47 84.5l-44 109
q-36 -35 -56.5 -68t-20.5 -68q0 -29 15 -64q-11 -10 -29 -16t-37 -6q-34 0 -51 19t-17 50q0 53 41.5 98t110.5 92l23 15l-63 158q-22 57 -73 62z" />
    <glyph glyph-name="y" unicode="y" horiz-adv-x="442" 
d="M130 19h-45l-2 71q-3 129 -6 196t-10 124q-5 42 -14 62t-27 31q21 27 68 27q49 0 67.5 -28t21.5 -92q2 -48 2 -130v-93l-1 -95q67 89 107.5 179t40.5 174q0 30 -7 58q13 12 33.5 19.5t42.5 7.5q30 0 42.5 -16t12.5 -49q0 -92 -64 -207t-180 -223q-34 -31 -48 -55t-14 -62
q0 -21 8 -45t20 -43q-13 -14 -34 -22t-44 -8q-32 0 -48.5 19.5t-16.5 53.5q0 62 95 146z" />
    <glyph glyph-name="z" unicode="z" horiz-adv-x="396" 
d="M216.5 428.5q-44.5 4.5 -70.5 4.5q-25 0 -43.5 -6t-33.5 -21q-18 23 -18 55q0 36 27 52t71 16q26 0 57.5 -5t37.5 -6q66 -12 97 -12q35 0 54 10q18 -18 18 -44q0 -37 -30 -71l-273 -305q29 -6 77 -11t76 -5q56 0 82 27q18 -23 18 -54q0 -37 -28.5 -53t-73.5 -16
q-34 0 -100 12q-64 12 -93 12q-35 0 -55 -11q-10 6 -17 22.5t-7 34.5q0 42 37 83l265 281q-30 6 -74.5 10.5z" />
    <glyph glyph-name="braceleft" unicode="{" horiz-adv-x="373" 
d="M428 793l-8 -45h-23q-39 0 -56.5 -26.5t-27.5 -83.5l-36 -206q-19 -110 -102 -121q37 -3 51 -20t14 -45q0 -23 -7 -56l-42 -209q-7 -39 -7 -67q0 -30 10 -45.5t36 -15.5h24l-11 -46q-49 -7 -81 -7q-51 0 -76.5 18t-25.5 60q0 26 8 68l44 219q7 35 7 54q0 29 -14.5 45
t-44.5 16l11 56q37 0 61 30t33 85l38 218q9 49 24 77t43.5 41t77.5 13q38 0 80 -7z" />
    <glyph glyph-name="bar" unicode="|" horiz-adv-x="284" 
d="M297 800l-190 -1000h-107l192 1000h105z" />
    <glyph glyph-name="braceright" unicode="}" horiz-adv-x="404" 
d="M59.5 -121.5q17.5 26.5 27.5 83.5l40 223q19 110 102 121q-37 3 -51 20t-14 45q0 18 6 56l39 192q7 39 7 67q0 30 -10 45.5t-35 15.5h-24l11 46q49 7 80 7q52 0 77.5 -18t25.5 -60q0 -20 -5.5 -52t-19.5 -100l-24 -118q-7 -35 -7 -54q0 -29 14.5 -45t44.5 -16l-11 -56
q-37 0 -61 -30t-33 -85l-41 -235q-9 -49 -24 -77t-44 -41t-78 -13q-37 0 -79 7l8 45h23q38 0 55.5 26.5z" />
    <glyph glyph-name="asciitilde" unicode="~" 
d="M430 235q0 -27 -26.5 -44.5t-70.5 -17.5q-23 0 -47 4t-61 13q-23 5 -46 9.5t-39 4.5q-22 0 -41 -7t-28 -18q-19 27 -19 47q0 27 26.5 44.5t70.5 17.5q23 0 51.5 -5.5t54.5 -11.5q23 -5 46.5 -9.5t40.5 -4.5q22 0 41 7t28 18q19 -27 19 -47z" />
    <glyph glyph-name="uni00A0" unicode="&#xa0;" horiz-adv-x="162" 
 />
    <glyph glyph-name="exclamdown" unicode="&#xa1;" horiz-adv-x="239" 
d="M218.5 514q20.5 -16 20.5 -46q0 -31 -21.5 -47.5t-55.5 -16.5q-33 0 -53 16t-20 46q0 31 21.5 47.5t54.5 16.5t53.5 -16zM56 -171q-32 0 -46 17t-14 50q0 32 10.5 75.5t32.5 115.5q23 74 36 127.5t14 95.5q8 9 21.5 14t27.5 5q25 0 38 -14.5t13 -38.5q0 -21 -4 -39
l-77 -398q-28 -10 -52 -10z" />
    <glyph glyph-name="cent" unicode="&#xa2;" 
d="M481 556q26 -28 26 -68t-24 -63t-59 -23q-30 0 -43 14q6 15 10 34.5t4 34.5q0 23 -12 36.5t-35 13.5q-45 0 -79 -48.5t-51.5 -117t-17.5 -123.5q0 -54 21 -86.5t69 -32.5q44 0 75.5 26t46.5 70q35 -10 35 -51q0 -44 -41 -79.5t-101 -45.5l-6 -31q-7 -38 -19.5 -51
t-41.5 -13q-24 0 -36 4l18 91q-72 12 -103.5 59.5t-31.5 132.5t28 162t83 128.5t131 61.5l6 32q7 37 19.5 50.5t38.5 13.5q14 0 36 -4l-18 -92q46 -7 72 -35z" />
    <glyph glyph-name="sterling" unicode="&#xa3;" 
d="M309 583.5q-17 -22.5 -24 -65.5l-21 -117h158q5 -10 5 -23q0 -40 -65 -40h-110l-17 -103q-16 -89 -77 -125q37 -8 90.5 -14t99.5 -6q35 0 60.5 4.5t46.5 17.5q13 -23 13 -50q0 -74 -110 -74q-41 0 -123 14q-72 13 -112 13q-41 0 -70 -12q-10 9 -17.5 24.5t-7.5 29.5
q0 15 8.5 27t18.5 21t14 13q22 21 35.5 42.5t20.5 59.5l20 118h-105q-4 9 -4 22q0 20 15.5 30.5t42.5 10.5h63l19 103q15 81 67 118.5t132 37.5q71 0 115.5 -28.5t44.5 -79.5q0 -42 -28 -67t-64 -25q-29 0 -48 13q16 37 16 73q0 27 -12.5 43.5t-39.5 16.5q-33 0 -50 -22.5z
" />
    <glyph glyph-name="currency" unicode="&#xa4;" 
d="M426 258l100 -87l-56 -66l-99 94q-44 -29 -106 -29q-47 0 -80 15l-89 -87l-61 62l93 83q-12 29 -12 67q0 65 31 111l-94 87l52 70l100 -101q43 24 93 24q41 0 74 -14l94 92l61 -62l-95 -85q17 -32 17 -77q0 -54 -23 -97zM350 264q26 29 26 76q0 45 -24 70t-64 25
q-45 0 -72 -31t-27 -80q0 -45 22.5 -67t63.5 -22q49 0 75 29z" />
    <glyph glyph-name="yen" unicode="&#xa5;" 
d="M145 0l27 139h-123q-4 9 -4 22q0 20 15.5 30.5t42.5 10.5h82l14 71h-124q-4 9 -4 22q0 20 15.5 30.5t42.5 10.5h76q-30 121 -63.5 192t-66.5 98q7 26 27.5 40t51.5 14q36 0 57 -23t37.5 -80t39.5 -178q64 149 115 215t103 66q24 0 40 -11t21 -32q-64 -52 -123 -128
t-107 -173h114q5 -10 5 -23q0 -40 -66 -40h-73l-14 -71h122q5 -10 5 -23q0 -40 -66 -40h-73l-26 -139h-120z" />
    <glyph glyph-name="brokenbar" unicode="&#xa6;" horiz-adv-x="284" 
d="M114 388l53 272h106l-52 -272h-107zM39 0l52 272h106l-51 -272h-107z" />
    <glyph glyph-name="section" unicode="&#xa7;" horiz-adv-x="488" 
d="M454.5 657.5q41.5 -22.5 41.5 -72.5q0 -38 -24.5 -60t-61.5 -22q-28 0 -40 11q14 35 14 59q0 56 -57 56q-35 0 -56 -19.5t-21 -52.5q0 -35 22.5 -61t67.5 -61q36 -28 57.5 -49t36.5 -49.5t15 -64.5q0 -59 -39.5 -102.5t-106.5 -79.5q52 -52 52 -110q0 -48 -30 -84
t-79 -55.5t-105 -19.5q-58 0 -99.5 22.5t-41.5 72.5q0 38 24.5 60t61.5 22q28 0 40 -11q-14 -35 -14 -59q0 -56 57 -56q35 0 56 19.5t21 52.5q0 35 -22 60.5t-68 62.5q-36 28 -57.5 49t-36.5 49.5t-15 63.5q0 58 39.5 102t105.5 79q-51 53 -51 112q0 48 30 84t79.5 55
t104.5 19q58 0 99.5 -22.5zM174.5 327q-18.5 -25 -18.5 -61q0 -28 12.5 -50t32.5 -40t64 -52q37 24 56 49.5t19 60.5q0 37 -19 60.5t-64 59.5q-18 14 -27 22q-37 -24 -55.5 -49z" />
    <glyph glyph-name="dieresis" unicode="&#xa8;" horiz-adv-x="339" 
d="M71 598zM404 708q20 -16 20 -46q0 -31 -21.5 -47.5t-54.5 -16.5t-53 16t-20 46q0 31 21.5 47.5t54.5 16.5t53 -16zM200 708q20 -16 20 -46q0 -31 -21.5 -47.5t-54.5 -16.5t-53 16t-20 46q0 31 21.5 47.5t54.5 16.5t53 -16z" />
    <glyph glyph-name="copyright" unicode="&#xa9;" horiz-adv-x="776" 
d="M82 411.5q55 94.5 153.5 148.5t225.5 54q137 0 212.5 -67t75.5 -203q0 -115 -53.5 -211t-152.5 -152.5t-228 -56.5q-139 0 -213.5 68.5t-74.5 205.5q0 119 55 213.5zM179 44q58 -59 157 -59q93 0 165.5 50t113 130.5t40.5 167.5q0 105 -58 162.5t-157 57.5
q-92 0 -165 -48.5t-113.5 -127.5t-40.5 -168q0 -106 58 -165zM362.5 362q-22.5 -65 -22.5 -139q0 -43 11.5 -65.5t44.5 -22.5q30 0 53 19t32 49q25 -7 25 -37q0 -23 -17 -44t-48.5 -34t-73.5 -13q-65 0 -98 34.5t-33 108.5q0 65 25 122.5t73.5 93t116.5 35.5
q46 0 73.5 -17.5t27.5 -55.5q0 -31 -17.5 -48.5t-44.5 -17.5q-24 0 -33 10q5 11 8 26.5t3 26.5q0 34 -33 34q-50 0 -72.5 -65z" />
    <glyph glyph-name="ordfeminine" unicode="&#xaa;" horiz-adv-x="449" 
d="M360 368q-4 -16 -4 -29q0 -24 22 -25q-4 -15 -20.5 -24.5t-36.5 -9.5q-21 0 -37 11.5t-18 31.5q-14 -21 -40 -32t-55 -11q-54 0 -81.5 36t-27.5 103q0 62 23.5 121t69.5 96.5t110 37.5q33 0 72 -15l80 9zM172 512q-15 -66 -15 -107q0 -67 46 -67q32 0 51 30t27 74l28 154
q-12 9 -27 14.5t-28 5.5q-58 0 -82 -104zM359 210q0 -21 -13.5 -34.5t-40.5 -13.5h-262q-2 14 -2 21q0 22 13.5 35.5t33.5 13.5h269q2 -16 2 -22z" />
    <glyph glyph-name="guillemotleft" unicode="&#xab;" horiz-adv-x="478" 
d="M186 509h97l-120 -192l49 -191h-95l-87 191zM384 509h98l-120 -192l49 -191h-96l-87 191z" />
    <glyph glyph-name="logicalnot" unicode="&#xac;" 
d="M424.5 -0.5q-12.5 -1.5 -24.5 -1.5q-28 0 -39.5 10.5t-11.5 33.5q0 16 5 41l21 114h-323q-3 14 -3 24q0 28 17.5 45.5t45.5 17.5h381l-53 -282q-3 -1 -15.5 -2.5z" />
    <glyph glyph-name="uni00AD" unicode="&#xad;" horiz-adv-x="332" 
d="M291.5 289q17.5 2 24.5 6q8 -19 8 -45q0 -25 -14.5 -40t-39.5 -15h-200q-12 0 -29.5 -2t-24.5 -6q-4 8 -6 21.5t-2 23.5q0 25 14.5 40t39.5 15h200q12 0 29.5 2z" />
    <glyph glyph-name="registered" unicode="&#xae;" horiz-adv-x="776" 
d="M673.5 612q75.5 -67 75.5 -203q0 -115 -53.5 -211t-152.5 -152.5t-228 -56.5q-139 0 -213.5 68.5t-74.5 205.5q0 119 55 213.5t153.5 148.5t225.5 54q137 0 212.5 -67zM275 569.5q-73 -48.5 -113.5 -127.5t-40.5 -168q0 -106 58 -165t157 -59q93 0 165.5 50t113 130.5
t40.5 167.5q0 105 -58 162.5t-157 57.5q-92 0 -165 -48.5zM502 512q39 -20 39 -77q0 -47 -26.5 -82t-70.5 -42q14 -45 25 -67.5t24.5 -34.5t35.5 -18q-4 -20 -21 -34t-45 -14q-29 0 -46.5 18.5t-29 59t-24.5 116.5h2q42 1 63.5 25.5t21.5 64.5q0 29 -13.5 43.5t-46.5 14.5
q-19 0 -29 -3l-62 -330h-91l72 375q60 5 117 5q66 0 105 -20z" />
    <glyph glyph-name="macron" unicode="&#xaf;" horiz-adv-x="266" 
d="M354 672q0 -27 -17.5 -42.5t-51.5 -15.5h-211q-2 8 -2 24q1 27 17.5 42.5t43.5 15.5h218q3 -10 3 -24z" />
    <glyph glyph-name="degree" unicode="&#xb0;" horiz-adv-x="342" 
d="M78 403q-36 33 -36 94q0 53 27 96t74 67t103 24q64 0 99 -32.5t35 -93.5q0 -54 -26.5 -96.5t-72.5 -67t-102 -24.5q-65 0 -101 33zM262.5 461.5q29.5 38.5 29.5 94.5q0 34 -13 52t-43 18q-47 0 -74.5 -39.5t-27.5 -96.5q0 -35 12 -51t40 -16q47 0 76.5 38.5z" />
    <glyph glyph-name="plusminus" unicode="&#xb1;" 
d="M274 450.5q19 15.5 46 15.5q18 0 34 -6l-25 -133h128q5 -17 5 -27q0 -26 -17.5 -40.5t-49.5 -14.5h-83l-14 -75q-5 -25 -22 -38.5t-43 -13.5q-17 0 -37 6l22 121h-127q-4 11 -4 20q0 27 17.5 44.5t44.5 17.5h85l16 82q5 26 24 41.5zM399 65q0 -25 -16.5 -38.5
t-49.5 -13.5h-257q-4 12 -4 25q0 25 15.5 39t43.5 14h264q4 -12 4 -26z" />
    <glyph glyph-name="uni00B2" unicode="&#xb2;" horiz-adv-x="350" 
d="M310.5 656q30.5 -25 30.5 -77q0 -35 -13.5 -61.5t-39.5 -51.5l-30 -27q-59 -54 -81 -72q34 -10 79 -10q42 0 62 12q7 -14 7 -33q0 -50 -60 -50q-31 0 -75 8q-46 8 -76 8q-24 0 -41 -7q-6 5 -10 13.5t-4 15.5q0 16 24.5 42.5t70.5 68.5q7 7 27.5 25t30.5 30q16 19 26 40
t10 39q0 23 -15 35t-39 12q-51 0 -81 -54q-22 7 -22 33q0 41 41 63.5t95 22.5q53 0 83.5 -25z" />
    <glyph glyph-name="uni00B3" unicode="&#xb3;" horiz-adv-x="347" 
d="M215 526q28 18 28 50q0 40 -44 40q-25 0 -49.5 -12.5t-39.5 -33.5q-19 10 -19 30q0 36 42.5 58.5t94.5 22.5q47 0 76 -21t29 -61t-27.5 -67t-67.5 -39q87 -7 87 -83q0 -38 -21.5 -67.5t-57 -45.5t-76.5 -16q-48 0 -81.5 21t-33.5 58q0 12 4.5 19t13.5 13q19 -23 41 -34.5
t51 -11.5q66 0 66 59q0 35 -23 47t-67 12l5 39q41 5 69 23z" />
    <glyph glyph-name="acute" unicode="&#xb4;" horiz-adv-x="228" 
d="M276 769q17 -6 25 -22t8 -34q0 -37 -30.5 -56.5t-85.5 -34.5l-111 -30l-17 41z" />
    <glyph glyph-name="uni00B5" unicode="&#xb5;" horiz-adv-x="546" 
d="M0 0zM522 522l-80 -418q-5 -30 -5 -42q0 -32 30 -35q-6 -23 -26.5 -35t-46.5 -12q-28 0 -46.5 15t-21.5 42q-20 -29 -56.5 -43t-76.5 -14q-31 0 -55 9l-30 -169l-116 -12l97 501q21 109 21 137q0 34 -30 37q6 23 26.5 35t47.5 12q32 0 49.5 -18t17.5 -55q0 -24 -8 -66.5
t-18 -86.5q-15 -68 -22 -108.5t-7 -70.5q0 -85 64 -85q50 0 79 46.5t42 114.5l58 309z" />
    <glyph glyph-name="paragraph" unicode="&#xb6;" horiz-adv-x="764" 
d="M305 -165q-44 -35 -117 -35q-58 0 -90 20t-32 54q0 7 1 13t2 7q14 -8 38.5 -13t45.5 -5q48 0 77.5 27.5t39.5 76.5l57 288q-16 -7 -44.5 -11t-52.5 -4q-68 0 -105.5 38.5t-37.5 114.5q0 78 39 139t110 95.5t164 34.5q55 0 101 -15l-133 -714q-19 -76 -63 -111zM797 664
q-5 -44 -24.5 -62.5t-60.5 -18.5q-28 0 -43 5l-108 -588l-110 -20l134 680h113q70 0 99 4z" />
    <glyph glyph-name="periodcentered" unicode="&#xb7;" horiz-adv-x="192" 
d="M141.5 307q20.5 -16 20.5 -46q0 -31 -21.5 -47.5t-55.5 -16.5q-33 0 -53 16t-20 46q0 31 21.5 47.5t54.5 16.5t53.5 -16z" />
    <glyph glyph-name="cedilla" unicode="&#xb8;" horiz-adv-x="444" 
d="M333 -82.5q27 -18.5 27 -57.5q0 -49 -43 -81t-107 -32q-39 0 -62.5 12.5t-23.5 35.5q0 21 16 33q17 -28 63 -28q30 0 52 11t22 37q0 41 -79 41q-11 0 -37 -2l37 124h47l-23 -77q20 2 40 2q44 0 71 -18.5z" />
    <glyph glyph-name="uni00B9" unicode="&#xb9;" horiz-adv-x="331" 
d="M210 352h33q23 0 29 9q9 -10 9 -35q0 -24 -12.5 -32.5t-35.5 -8.5l-150 2q-32 0 -40 -7q-2 6 -3.5 15t-1.5 19q0 40 47 40h33l44 226q-11 -7 -26 -11t-27 -4q-23 0 -33 16t-13 44q43 6 90.5 20t88.5 34l30 -10z" />
    <glyph glyph-name="ordmasculine" unicode="&#xba;" horiz-adv-x="454" 
d="M398.5 414q-22.5 -58 -70 -96t-119.5 -38q-64 0 -95.5 33.5t-31.5 106.5q0 63 23 121t70.5 95.5t118.5 37.5q63 0 95 -34t32 -106q0 -62 -22.5 -120zM281.5 374.5q22.5 36.5 33 85t10.5 85.5q0 71 -46 71q-35 0 -57.5 -37t-32.5 -86t-10 -85q0 -70 46 -70q34 0 56.5 36.5
zM41 183q0 22 13.5 35.5t33.5 13.5h268q2 -16 2 -22q0 -21 -13.5 -34.5t-39.5 -13.5h-262q-2 14 -2 21z" />
    <glyph glyph-name="guillemotright" unicode="&#xbb;" horiz-adv-x="478" 
d="M249 318l-156 -192h-97l120 192l-49 191h95zM448 318l-156 -192h-98l120 192l-49 191h96z" />
    <glyph glyph-name="onequarter" unicode="&#xbc;" horiz-adv-x="827" 
d="M551 720q22 0 32.5 -5.5t10.5 -20.5q0 -14 -9 -35l-326 -748q-6 -2 -27 -2q-43 0 -43 26q0 8 6 22l330 761q12 2 26 2zM208 352h33q23 0 29 9q9 -10 9 -35q0 -24 -12.5 -32.5t-35.5 -8.5l-150 2q-32 0 -40 -7q-2 6 -3.5 15t-1.5 19q0 40 47 40h33l44 226q-11 -7 -26 -11
t-27 -4q-23 0 -33 16t-13 44q43 6 90.5 20t88.5 34l30 -10zM761 380q-23 -95 -49 -243q34 3 51 14q8 -13 8 -31q0 -23 -17.5 -36t-55.5 -17l-10 -67q-15 -12 -41 -12t-36.5 10t-10.5 32l1 13l4 26q-87 4 -146 19l-3 45l217 255zM619 136l8 36q17 89 31 131l-132 -162
q45 -5 93 -5z" />
    <glyph glyph-name="onehalf" unicode="&#xbd;" horiz-adv-x="777" 
d="M551 720q22 0 32.5 -5.5t10.5 -20.5q0 -14 -9 -35l-326 -748q-6 -2 -27 -2q-43 0 -43 26q0 8 6 22l330 761q12 2 26 2zM208 352h33q23 0 29 9q9 -10 9 -35q0 -24 -12.5 -32.5t-35.5 -8.5l-150 2q-32 0 -40 -7q-2 6 -3.5 15t-1.5 19q0 40 47 40h33l44 226q-11 -7 -26 -11
t-27 -4q-23 0 -33 16t-13 44q43 6 90.5 20t88.5 34l30 -10zM664 273q0 24 -14.5 35.5t-38.5 11.5q-52 0 -82 -54q-22 7 -22 33q0 41 41 63.5t95 22.5t84 -25.5t30 -76.5q0 -40 -18.5 -70t-56.5 -64l-33 -28q-14 -13 -28.5 -25.5t-27.5 -24.5q34 -10 79 -10q42 0 62 12
q7 -14 7 -33q0 -50 -63 -50q-24 0 -78 8q-52 8 -71 8q-22 0 -40 -7q-6 5 -10 14t-4 17q0 11 7.5 22t23.5 25l78 72q80 70 80 124z" />
    <glyph glyph-name="threequarters" unicode="&#xbe;" horiz-adv-x="846" 
d="M570 720q22 0 32.5 -5.5t10.5 -20.5q0 -14 -9 -35l-326 -748q-6 -2 -27 -2q-43 0 -43 26q0 8 6 22l330 761q12 2 26 2zM204 526q28 18 28 50q0 40 -44 40q-25 0 -49.5 -12.5t-39.5 -33.5q-19 10 -19 30q0 36 42.5 58.5t94.5 22.5q47 0 76 -21t29 -61t-27.5 -67t-67.5 -39
q87 -7 87 -83q0 -38 -21.5 -67.5t-57 -45.5t-76.5 -16q-48 0 -81.5 21t-33.5 58q0 12 4.5 19t13.5 13q19 -23 41 -34.5t51 -11.5q66 0 66 59q0 35 -23 47t-67 12l5 39q41 5 69 23zM780 380q-23 -95 -49 -243q34 3 51 14q8 -13 8 -31q0 -23 -17.5 -36t-55.5 -17l-10 -67
q-15 -12 -41 -12t-36.5 10t-10.5 32l1 13l4 26q-87 4 -146 19l-3 45l217 255zM638 136l8 36q17 89 31 131l-132 -162q45 -5 93 -5z" />
    <glyph glyph-name="questiondown" unicode="&#xbf;" horiz-adv-x="409" 
d="M348.5 514q20.5 -16 20.5 -46q0 -31 -21.5 -47.5t-55.5 -16.5q-33 0 -53 16t-20 46q0 31 21.5 47.5t54.5 16.5t53.5 -16zM-19.5 29q22.5 35 54.5 61.5t86 63.5q50 35 79.5 59t49.5 53.5t20 64.5q28 0 42.5 -19.5t14.5 -52.5q0 -43 -30.5 -76t-90.5 -77
q-61 -45 -91.5 -78.5t-30.5 -76.5q0 -31 18.5 -46t50.5 -15q41 0 68 23t27 64q0 25 -9 44q23 6 50 6q40 0 62.5 -17.5t22.5 -52.5q0 -68 -73.5 -97.5t-160.5 -29.5q-85 0 -133.5 31t-48.5 92q0 41 22.5 76z" />
    <glyph glyph-name="Agrave" unicode="&#xc0;" horiz-adv-x="536" 
d="M0 0zM463 123q6 -72 39 -93q-6 -23 -25.5 -36.5t-45.5 -13.5q-39 0 -55.5 30.5t-23.5 82.5q-6 45 -8 75h-187l-40 -98l-29 -70h-115l298 660h146zM238 373l-53 -134h153l-19 339zM424 713l-115 6q-59 3 -96 19.5t-37 61.5q0 30 22 45l234 -89z" />
    <glyph glyph-name="Aacute" unicode="&#xc1;" horiz-adv-x="536" 
d="M0 0zM463 123q6 -72 39 -93q-6 -23 -25.5 -36.5t-45.5 -13.5q-39 0 -55.5 30.5t-23.5 82.5q-6 45 -8 75h-187l-40 -98l-29 -70h-115l298 660h146zM238 373l-53 -134h153l-19 339zM265 756l234 89q22 -15 22 -45q0 -45 -37 -61.5t-96 -19.5l-115 -6z" />
    <glyph glyph-name="Acircumflex" unicode="&#xc2;" horiz-adv-x="536" 
d="M0 0zM463 123q6 -72 39 -93q-6 -23 -25.5 -36.5t-45.5 -13.5q-39 0 -55.5 30.5t-23.5 82.5q-6 45 -8 75h-187l-40 -98l-29 -70h-115l298 660h146zM238 373l-53 -134h153l-19 339zM487 722l-40 -48l-105 72l-130 -72l-27 49l163 116h7z" />
    <glyph glyph-name="Atilde" unicode="&#xc3;" horiz-adv-x="536" 
d="M0 0zM463 123q6 -72 39 -93q-6 -23 -25.5 -36.5t-45.5 -13.5q-39 0 -55.5 30.5t-23.5 82.5q-6 45 -8 75h-187l-40 -98l-29 -70h-115l298 660h146zM238 373l-53 -134h153l-19 339zM515 785q0 -29 -21 -44.5t-56 -15.5q-20 0 -84 8q-62 8 -82 8q-37 0 -56 -15
q-17 25 -17 46q0 26 21 40t59 14q23 0 87 -8q62 -8 83 -8q38 0 50 16q16 -19 16 -41z" />
    <glyph glyph-name="Adieresis" unicode="&#xc4;" horiz-adv-x="536" 
d="M0 0zM463 123q6 -72 39 -93q-6 -23 -25.5 -36.5t-45.5 -13.5q-39 0 -55.5 30.5t-23.5 82.5q-6 45 -8 75h-187l-40 -98l-29 -70h-115l298 660h146zM238 373l-53 -134h153l-19 339zM300.5 837q20.5 -16 20.5 -46q0 -31 -22 -47.5t-55 -16.5t-53 16t-20 46q0 31 21.5 47.5
t54.5 16.5t53.5 -16zM509.5 837q20.5 -16 20.5 -46q0 -31 -22 -47.5t-55 -16.5t-53 16t-20 46q0 31 21.5 47.5t54.5 16.5t53.5 -16z" />
    <glyph glyph-name="Aring" unicode="&#xc5;" horiz-adv-x="536" 
d="M0 0zM463 123q6 -72 39 -93q-6 -23 -25.5 -36.5t-45.5 -13.5q-39 0 -55.5 30.5t-23.5 82.5q-6 45 -8 75h-187l-40 -98l-29 -70h-115l298 660h146zM238 373l-53 -134h153l-19 339zM421 717q-36 -27 -82 -27q-41 0 -64 17.5t-23 50.5q0 44 35 70.5t81 26.5q41 0 65 -18
t24 -50q0 -43 -36 -70zM387 810.5q-10 9.5 -29 9.5t-33.5 -18.5t-14.5 -44.5q0 -35 35 -35q19 0 35.5 18.5t16.5 43.5q0 17 -10 26.5z" />
    <glyph glyph-name="AE" unicode="&#xc6;" horiz-adv-x="669" 
d="M45 0h-116l358 660h390q0 -47 -29.5 -71t-78.5 -24q-30 0 -68.5 8t-66.5 19l-19 -215h185q0 -43 -26 -62.5t-71 -19.5q-24 0 -49.5 5.5t-44.5 13.5q-12 -124 -12 -154q0 -51 25.5 -72t76.5 -21q46 0 84 14q6 -12 6 -29q0 -38 -42 -55t-95 -17q-77 0 -122 37.5t-45 108.5
q0 27 3 51h-154zM317 420l17 149l-161 -315h126q6 63 18 166z" />
    <glyph glyph-name="Ccedilla" unicode="&#xc7;" horiz-adv-x="512" 
d="M417.5 453q-13.5 4 -20.5 12q6 16 10 37.5t4 36.5q0 32 -17.5 51t-50.5 19q-62 0 -105 -63t-64 -151.5t-21 -163.5q0 -71 24.5 -112.5t84.5 -41.5q52 0 89 30.5t66 84.5q17 -9 24.5 -21.5t7.5 -33.5q0 -60 -53.5 -102.5t-130.5 -52.5l-14 -48q20 2 40 2q44 0 71 -18.5
t27 -57.5q0 -49 -43 -81t-107 -32q-39 0 -62.5 12.5t-23.5 35.5q0 21 16 33q17 -28 63 -28q30 0 52 11t22 37q0 41 -79 41q-11 0 -37 -2l28 93q-93 4 -142 65.5t-49 178.5q0 107 39 212.5t116.5 174.5t186.5 69q75 0 120 -34.5t45 -97.5q0 -47 -25 -73t-63 -26
q-15 0 -28.5 4z" />
    <glyph glyph-name="Egrave" unicode="&#xc8;" horiz-adv-x="441" 
d="M22 0zM450.5 589q-29.5 -24 -78.5 -24q-55 0 -122 27l-37 -215h180q0 -43 -26 -62.5t-70 -19.5q-49 0 -97 23l-41 -229h121q20 0 43 3t36 9q6 -8 10 -20.5t4 -24.5q0 -33 -28.5 -44.5t-74.5 -11.5h-248l127 660h331q0 -47 -29.5 -71zM400 713l-115 6q-59 3 -96 19.5
t-37 61.5q0 30 22 45l234 -89z" />
    <glyph glyph-name="Eacute" unicode="&#xc9;" horiz-adv-x="441" 
d="M22 0zM450.5 589q-29.5 -24 -78.5 -24q-55 0 -122 27l-37 -215h180q0 -43 -26 -62.5t-70 -19.5q-49 0 -97 23l-41 -229h121q20 0 43 3t36 9q6 -8 10 -20.5t4 -24.5q0 -33 -28.5 -44.5t-74.5 -11.5h-248l127 660h331q0 -47 -29.5 -71zM241 756l234 89q22 -15 22 -45
q0 -45 -37 -61.5t-96 -19.5l-115 -6z" />
    <glyph glyph-name="Ecircumflex" unicode="&#xca;" horiz-adv-x="441" 
d="M22 0zM450.5 589q-29.5 -24 -78.5 -24q-55 0 -122 27l-37 -215h180q0 -43 -26 -62.5t-70 -19.5q-49 0 -97 23l-41 -229h121q20 0 43 3t36 9q6 -8 10 -20.5t4 -24.5q0 -33 -28.5 -44.5t-74.5 -11.5h-248l127 660h331q0 -47 -29.5 -71zM463 722l-40 -48l-105 72l-130 -72
l-27 49l163 116h7z" />
    <glyph glyph-name="Edieresis" unicode="&#xcb;" horiz-adv-x="441" 
d="M22 0zM450.5 589q-29.5 -24 -78.5 -24q-55 0 -122 27l-37 -215h180q0 -43 -26 -62.5t-70 -19.5q-49 0 -97 23l-41 -229h121q20 0 43 3t36 9q6 -8 10 -20.5t4 -24.5q0 -33 -28.5 -44.5t-74.5 -11.5h-248l127 660h331q0 -47 -29.5 -71zM276.5 837q20.5 -16 20.5 -46
q0 -31 -22 -47.5t-55 -16.5t-53 16t-20 46q0 31 21.5 47.5t54.5 16.5t53.5 -16zM485.5 837q20.5 -16 20.5 -46q0 -31 -22 -47.5t-55 -16.5t-53 16t-20 46q0 31 21.5 47.5t54.5 16.5t53.5 -16z" />
    <glyph glyph-name="Igrave" unicode="&#xcc;" horiz-adv-x="290" 
d="M22 0zM268 660l-129 -660h-117l127 660h119zM306 713l-115 6q-59 3 -96 19.5t-37 61.5q0 30 22 45l234 -89z" />
    <glyph glyph-name="Iacute" unicode="&#xcd;" horiz-adv-x="290" 
d="M22 0zM268 660l-129 -660h-117l127 660h119zM147 756l234 89q22 -15 22 -45q0 -45 -37 -61.5t-96 -19.5l-115 -6z" />
    <glyph glyph-name="Icircumflex" unicode="&#xce;" horiz-adv-x="290" 
d="M22 0zM268 660l-129 -660h-117l127 660h119zM369 722l-40 -48l-105 72l-130 -72l-27 49l163 116h7z" />
    <glyph glyph-name="Idieresis" unicode="&#xcf;" horiz-adv-x="290" 
d="M22 0zM268 660l-129 -660h-117l127 660h119zM182.5 837q20.5 -16 20.5 -46q0 -31 -22 -47.5t-55 -16.5t-53 16t-20 46q0 31 21.5 47.5t54.5 16.5t53.5 -16zM391.5 837q20.5 -16 20.5 -46q0 -31 -22 -47.5t-55 -16.5t-53 16t-20 46q0 31 21.5 47.5t54.5 16.5t53.5 -16z
" />
    <glyph glyph-name="Eth" unicode="&#xd0;" horiz-adv-x="598" 
d="M3 0zM249.5 666q56.5 3 88.5 3q87 0 137.5 -25t72.5 -76t22 -132q0 -118 -40 -219t-123 -163.5t-206 -62.5q-34 0 -83 2.5t-97 6.5l57 295h-73q-2 8 -2 24q2 48 56 48h33l57 293q44 3 100.5 6zM191 62q23 -2 41 -2q74 0 117 54t66 147q11 45 20 102t9 100
q0 69 -27.5 102.5t-91.5 33.5q-31 0 -71 -7l-44 -225h151q3 -10 3 -24q0 -48 -63 -48h-105l-45 -228q17 -3 40 -5z" />
    <glyph glyph-name="Ntilde" unicode="&#xd1;" horiz-adv-x="649" 
d="M27 0zM125 0h-98l122 660h144l144 -516l86 516h97l-120 -660h-131l-155 533zM569 785q0 -29 -21 -44.5t-56 -15.5q-20 0 -84 8q-62 8 -82 8q-37 0 -56 -15q-17 25 -17 46q0 26 21 40t59 14q23 0 87 -8q62 -8 83 -8q38 0 50 16q16 -19 16 -41z" />
    <glyph glyph-name="Ograve" unicode="&#xd2;" horiz-adv-x="591" 
d="M26 0zM518.5 621.5q46.5 -58.5 46.5 -174.5q0 -109 -36.5 -216.5t-114.5 -179t-194 -71.5q-101 0 -147.5 58.5t-46.5 175.5q0 110 37 217t115 178t193 71q101 0 147.5 -58.5zM240 552.5q-38 -57.5 -60 -151.5q-12 -50 -20.5 -111t-8.5 -105q0 -134 95 -134q70 0 107 59.5
t58 149.5q12 50 20.5 111t8.5 105q0 134 -95 134q-67 0 -105 -57.5zM460 713l-115 6q-59 3 -96 19.5t-37 61.5q0 30 22 45l234 -89z" />
    <glyph glyph-name="Oacute" unicode="&#xd3;" horiz-adv-x="591" 
d="M26 0zM518.5 621.5q46.5 -58.5 46.5 -174.5q0 -109 -36.5 -216.5t-114.5 -179t-194 -71.5q-101 0 -147.5 58.5t-46.5 175.5q0 110 37 217t115 178t193 71q101 0 147.5 -58.5zM240 552.5q-38 -57.5 -60 -151.5q-12 -50 -20.5 -111t-8.5 -105q0 -134 95 -134q70 0 107 59.5
t58 149.5q12 50 20.5 111t8.5 105q0 134 -95 134q-67 0 -105 -57.5zM301 756l234 89q22 -15 22 -45q0 -45 -37 -61.5t-96 -19.5l-115 -6z" />
    <glyph glyph-name="Ocircumflex" unicode="&#xd4;" horiz-adv-x="591" 
d="M26 0zM518.5 621.5q46.5 -58.5 46.5 -174.5q0 -109 -36.5 -216.5t-114.5 -179t-194 -71.5q-101 0 -147.5 58.5t-46.5 175.5q0 110 37 217t115 178t193 71q101 0 147.5 -58.5zM240 552.5q-38 -57.5 -60 -151.5q-12 -50 -20.5 -111t-8.5 -105q0 -134 95 -134q70 0 107 59.5
t58 149.5q12 50 20.5 111t8.5 105q0 134 -95 134q-67 0 -105 -57.5zM523 722l-40 -48l-105 72l-130 -72l-27 49l163 116h7z" />
    <glyph glyph-name="Otilde" unicode="&#xd5;" horiz-adv-x="591" 
d="M26 0zM518.5 621.5q46.5 -58.5 46.5 -174.5q0 -109 -36.5 -216.5t-114.5 -179t-194 -71.5q-101 0 -147.5 58.5t-46.5 175.5q0 110 37 217t115 178t193 71q101 0 147.5 -58.5zM240 552.5q-38 -57.5 -60 -151.5q-12 -50 -20.5 -111t-8.5 -105q0 -134 95 -134q70 0 107 59.5
t58 149.5q12 50 20.5 111t8.5 105q0 134 -95 134q-67 0 -105 -57.5zM551 785q0 -29 -21 -44.5t-56 -15.5q-20 0 -84 8q-62 8 -82 8q-37 0 -56 -15q-17 25 -17 46q0 26 21 40t59 14q23 0 87 -8q62 -8 83 -8q38 0 50 16q16 -19 16 -41z" />
    <glyph glyph-name="Odieresis" unicode="&#xd6;" horiz-adv-x="591" 
d="M26 0zM518.5 621.5q46.5 -58.5 46.5 -174.5q0 -109 -36.5 -216.5t-114.5 -179t-194 -71.5q-101 0 -147.5 58.5t-46.5 175.5q0 110 37 217t115 178t193 71q101 0 147.5 -58.5zM240 552.5q-38 -57.5 -60 -151.5q-12 -50 -20.5 -111t-8.5 -105q0 -134 95 -134q70 0 107 59.5
t58 149.5q12 50 20.5 111t8.5 105q0 134 -95 134q-67 0 -105 -57.5zM336.5 837q20.5 -16 20.5 -46q0 -31 -22 -47.5t-55 -16.5t-53 16t-20 46q0 31 21.5 47.5t54.5 16.5t53.5 -16zM545.5 837q20.5 -16 20.5 -46q0 -31 -22 -47.5t-55 -16.5t-53 16t-20 46q0 31 21.5 47.5
t54.5 16.5t53.5 -16z" />
    <glyph glyph-name="multiply" unicode="&#xd7;" 
d="M423 104q9 -12 9 -28q0 -26 -19 -44t-48 -19l-106 148l-128 -126q-24 -24 -54 -24q-16 0 -28.5 8t-19.5 22l182 187l-85 119q-12 17 -12 38q0 23 16 40t44 23l110 -151l124 125q25 25 56 25q27 0 41 -35l-175 -179z" />
    <glyph glyph-name="Oslash" unicode="&#xd8;" horiz-adv-x="608" 
d="M616 623l-51 -57q17 -47 17 -119q0 -109 -36.5 -216.5t-114.5 -179t-194 -71.5q-101 0 -148 59l-32 -34q-25 -27 -44 -59q-19 0 -30 12t-12 30q0 24 18 45l67 74q-13 45 -13 107q0 110 37 217t115 178t193 71q91 0 138 -49l24 27q24 26 44 55q14 0 27.5 -13.5t13.5 -33.5
q0 -21 -19 -43zM170 235l278 310q-19 65 -87 65q-67 0 -104.5 -57.5t-59.5 -151.5q-20 -85 -27 -166zM374 118.5q41 67.5 56.5 147.5t25.5 180l-283 -313q15 -82 89 -82q71 0 112 67.5z" />
    <glyph glyph-name="Ugrave" unicode="&#xd9;" horiz-adv-x="570" 
d="M42 0zM495 270q-28 -148 -90.5 -219t-179.5 -71q-89 0 -136 40t-47 118q0 44 14 114l79 408h118l-79 -419q-13 -70 -13 -98q0 -41 23 -64t65 -23q67 0 98 54.5t48 150.5l70 399h105zM468 713l-115 6q-59 3 -96 19.5t-37 61.5q0 30 22 45l234 -89z" />
    <glyph glyph-name="Uacute" unicode="&#xda;" horiz-adv-x="570" 
d="M42 0zM495 270q-28 -148 -90.5 -219t-179.5 -71q-89 0 -136 40t-47 118q0 44 14 114l79 408h118l-79 -419q-13 -70 -13 -98q0 -41 23 -64t65 -23q67 0 98 54.5t48 150.5l70 399h105zM309 756l234 89q22 -15 22 -45q0 -45 -37 -61.5t-96 -19.5l-115 -6z" />
    <glyph glyph-name="Ucircumflex" unicode="&#xdb;" horiz-adv-x="570" 
d="M42 0zM495 270q-28 -148 -90.5 -219t-179.5 -71q-89 0 -136 40t-47 118q0 44 14 114l79 408h118l-79 -419q-13 -70 -13 -98q0 -41 23 -64t65 -23q67 0 98 54.5t48 150.5l70 399h105zM531 722l-40 -48l-105 72l-130 -72l-27 49l163 116h7z" />
    <glyph glyph-name="Udieresis" unicode="&#xdc;" horiz-adv-x="570" 
d="M42 0zM495 270q-28 -148 -90.5 -219t-179.5 -71q-89 0 -136 40t-47 118q0 44 14 114l79 408h118l-79 -419q-13 -70 -13 -98q0 -41 23 -64t65 -23q67 0 98 54.5t48 150.5l70 399h105zM344.5 837q20.5 -16 20.5 -46q0 -31 -22 -47.5t-55 -16.5t-53 16t-20 46
q0 31 21.5 47.5t54.5 16.5t53.5 -16zM553.5 837q20.5 -16 20.5 -46q0 -31 -22 -47.5t-55 -16.5t-53 16t-20 46q0 31 21.5 47.5t54.5 16.5t53.5 -16z" />
    <glyph glyph-name="Yacute" unicode="&#xdd;" horiz-adv-x="375" 
d="M0 0zM321.5 605q50.5 61 104.5 61q24 0 40 -11t21 -32q-66 -42 -129.5 -123.5t-114.5 -191.5l-58 -308h-121l64 321q-32 131 -66.5 203.5t-67.5 87.5q7 26 28 40t51 14q33 0 54 -18.5t36 -61t32 -124.5l13 -63q63 145 113.5 206zM188 756l234 89q22 -15 22 -45
q0 -45 -37 -61.5t-96 -19.5l-115 -6z" />
    <glyph glyph-name="Thorn" unicode="&#xde;" horiz-adv-x="501" 
d="M243 536q46 2 69 2q105 0 154 -37t49 -125q0 -65 -25 -117t-71.5 -81t-108.5 -29q-36 0 -63.5 11t-33.5 38q12 -1 26 -1q74 0 113 42.5t39 117.5q0 59 -25 85t-79 26q-28 0 -58 -7l-90 -461h-117l127 660h119z" />
    <glyph glyph-name="germandbls" unicode="&#xdf;" horiz-adv-x="617" 
d="M328 720q83 0 135 -30.5t52 -90.5q0 -45 -17 -71.5t-49 -55.5q-24 -22 -35 -37t-11 -37q0 -33 22 -54.5t69 -51.5q36 -25 57 -43t36 -44.5t15 -61.5q0 -49 -30 -86.5t-79 -58t-104 -20.5q-64 0 -113.5 26.5t-49.5 76.5q0 38 28.5 56.5t64.5 18.5q28 0 43 -12
q-14 -30 -14 -59q0 -56 59 -56q37 0 61.5 22t24.5 57q0 37 -24 61.5t-74 57.5q-49 32 -75.5 61.5t-26.5 75.5q0 30 13 52t39 51q29 34 43.5 58.5t14.5 62.5q0 40 -18.5 64t-58.5 24q-42 0 -65 -28t-33 -81l-104 -497q-21 -107 -54.5 -168.5t-90.5 -61.5q-22 0 -40 10t-26 29
q38 15 58 61t32 110l107 513q30 157 218 157z" />
    <glyph glyph-name="agrave" unicode="&#xe0;" horiz-adv-x="529" 
d="M27 0zM425 104q-5 -30 -5 -42q0 -32 30 -35q-6 -23 -26.5 -35t-46.5 -12q-28 0 -46.5 15t-21.5 42q-20 -29 -57 -43t-79 -14q-77 0 -111.5 47.5t-34.5 139.5q0 90 30 173t92.5 136.5t154.5 53.5q27 0 49.5 -5t51.5 -16l100 13zM336.5 462q-23.5 8 -44.5 8q-52 0 -81 -45
t-46 -116q-10 -39 -16.5 -85.5t-6.5 -78.5q0 -48 17 -76.5t54 -28.5q51 0 80 47.5t41 113.5l44 238q-18 15 -41.5 23zM314 622q-55 15 -85 34.5t-30 56.5q0 18 8 34t24 22l212 -136l-17 -41z" />
    <glyph glyph-name="aacute" unicode="&#xe1;" horiz-adv-x="529" 
d="M27 0zM425 104q-5 -30 -5 -42q0 -32 30 -35q-6 -23 -26.5 -35t-46.5 -12q-28 0 -46.5 15t-21.5 42q-20 -29 -57 -43t-79 -14q-77 0 -111.5 47.5t-34.5 139.5q0 90 30 173t92.5 136.5t154.5 53.5q27 0 49.5 -5t51.5 -16l100 13zM336.5 462q-23.5 8 -44.5 8q-52 0 -81 -45
t-46 -116q-10 -39 -16.5 -85.5t-6.5 -78.5q0 -48 17 -76.5t54 -28.5q51 0 80 47.5t41 113.5l44 238q-18 15 -41.5 23zM482 769q17 -6 25 -22t8 -34q0 -37 -30.5 -56.5t-85.5 -34.5l-111 -30l-17 41z" />
    <glyph glyph-name="acircumflex" unicode="&#xe2;" horiz-adv-x="529" 
d="M27 0zM425 104q-5 -30 -5 -42q0 -32 30 -35q-6 -23 -26.5 -35t-46.5 -12q-28 0 -46.5 15t-21.5 42q-20 -29 -57 -43t-79 -14q-77 0 -111.5 47.5t-34.5 139.5q0 90 30 173t92.5 136.5t154.5 53.5q27 0 49.5 -5t51.5 -16l100 13zM336.5 462q-23.5 8 -44.5 8q-52 0 -81 -45
t-46 -116q-10 -39 -16.5 -85.5t-6.5 -78.5q0 -48 17 -76.5t54 -28.5q51 0 80 47.5t41 113.5l44 238q-18 15 -41.5 23zM532 628l-40 -48l-105 72l-130 -72l-27 49l163 116h7z" />
    <glyph glyph-name="atilde" unicode="&#xe3;" horiz-adv-x="529" 
d="M27 0zM425 104q-5 -30 -5 -42q0 -32 30 -35q-6 -23 -26.5 -35t-46.5 -12q-28 0 -46.5 15t-21.5 42q-20 -29 -57 -43t-79 -14q-77 0 -111.5 47.5t-34.5 139.5q0 90 30 173t92.5 136.5t154.5 53.5q27 0 49.5 -5t51.5 -16l100 13zM336.5 462q-23.5 8 -44.5 8q-52 0 -81 -45
t-46 -116q-10 -39 -16.5 -85.5t-6.5 -78.5q0 -48 17 -76.5t54 -28.5q51 0 80 47.5t41 113.5l44 238q-18 15 -41.5 23zM537 679q0 -29 -21 -44.5t-56 -15.5q-19 0 -83 8q-62 8 -83 8q-37 0 -56 -15q-17 25 -17 46q0 26 21 40t60 14q24 0 86 -8t83 -8q38 0 50 16
q16 -19 16 -41z" />
    <glyph glyph-name="adieresis" unicode="&#xe4;" horiz-adv-x="529" 
d="M27 0zM425 104q-5 -30 -5 -42q0 -32 30 -35q-6 -23 -26.5 -35t-46.5 -12q-28 0 -46.5 15t-21.5 42q-20 -29 -57 -43t-79 -14q-77 0 -111.5 47.5t-34.5 139.5q0 90 30 173t92.5 136.5t154.5 53.5q27 0 49.5 -5t51.5 -16l100 13zM336.5 462q-23.5 8 -44.5 8q-52 0 -81 -45
t-46 -116q-10 -39 -16.5 -85.5t-6.5 -78.5q0 -48 17 -76.5t54 -28.5q51 0 80 47.5t41 113.5l44 238q-18 15 -41.5 23zM538 708q20 -16 20 -46q0 -31 -21.5 -47.5t-54.5 -16.5t-53 16t-20 46q0 31 21.5 47.5t54.5 16.5t53 -16zM334 708q20 -16 20 -46q0 -31 -21.5 -47.5
t-54.5 -16.5t-53 16t-20 46q0 31 21.5 47.5t54.5 16.5t53 -16z" />
    <glyph glyph-name="aring" unicode="&#xe5;" horiz-adv-x="529" 
d="M27 0zM425 104q-5 -30 -5 -42q0 -32 30 -35q-6 -23 -26.5 -35t-46.5 -12q-28 0 -46.5 15t-21.5 42q-20 -29 -57 -43t-79 -14q-77 0 -111.5 47.5t-34.5 139.5q0 90 30 173t92.5 136.5t154.5 53.5q27 0 49.5 -5t51.5 -16l100 13zM336.5 462q-23.5 8 -44.5 8q-52 0 -81 -45
t-46 -116q-10 -39 -16.5 -85.5t-6.5 -78.5q0 -48 17 -76.5t54 -28.5q51 0 80 47.5t41 113.5l44 238q-18 15 -41.5 23zM290.5 588.5q-22.5 20.5 -22.5 59.5q0 51 36.5 81.5t90.5 30.5q42 0 65.5 -20.5t23.5 -59.5q0 -51 -37.5 -81.5t-91.5 -30.5q-42 0 -64.5 20.5zM405 623
q18 23 18 54q0 22 -10 35t-29 13q-25 0 -41 -23t-16 -55q0 -47 35 -47q25 0 43 23z" />
    <glyph glyph-name="ae" unicode="&#xe6;" horiz-adv-x="735" 
d="M749 417q0 -57 -33.5 -97.5t-91 -61.5t-127.5 -21q-29 0 -55 2q-3 -33 -3 -60q0 -58 21 -87t72 -29q43 0 77 20.5t53 58.5q12 -3 18 -14t6 -26q0 -30 -24 -58t-66 -46t-95 -18t-94 20t-61 58q-36 -38 -77.5 -58t-93.5 -20q-79 0 -114 46.5t-35 137.5q0 89 30 173.5
t91.5 138.5t150.5 54q79 0 160 -46q63 46 151 46q140 0 140 -113zM499 415.5q-37 -57.5 -50 -127.5q77 0 134 32t57 95q0 58 -51 58q-53 0 -90 -57.5zM335.5 462q-23.5 8 -44.5 8q-52 0 -81 -45t-46 -116q-10 -39 -16.5 -85.5t-6.5 -78.5q0 -48 17 -76.5t54 -28.5
q51 0 80 47.5t41 113.5l44 238q-18 15 -41.5 23z" />
    <glyph glyph-name="ccedilla" unicode="&#xe7;" horiz-adv-x="439" 
d="M324 352q6 15 10 34.5t4 33.5q0 24 -12 37.5t-36 13.5q-45 0 -79 -48.5t-51.5 -117t-17.5 -123.5q0 -119 91 -119q43 0 75 26.5t47 69.5q34 -10 34 -51q0 -48 -45.5 -84t-116.5 -43l-14 -47q20 2 40 2q44 0 71 -18.5t27 -57.5q0 -49 -43 -81t-107 -32q-39 0 -62.5 12.5
t-23.5 35.5q0 21 16 33q17 -28 63 -28q30 0 52 11t22 37q0 41 -79 41q-11 0 -37 -2l28 94q-153 10 -153 197q0 89 32.5 170t96 131.5t152.5 50.5q64 0 102.5 -27t38.5 -78q0 -42 -24.5 -64.5t-58.5 -22.5q-29 0 -42 14z" />
    <glyph glyph-name="egrave" unicode="&#xe8;" horiz-adv-x="438" 
d="M27 0zM414.5 503q37.5 -27 37.5 -87q0 -57 -34 -97t-91.5 -61t-127.5 -21q-28 0 -54 2q-3 -33 -3 -60q0 -58 21 -87t72 -29q43 0 77 20.5t53 58.5q12 -3 18 -14t6 -26q0 -30 -24 -58t-67 -46t-98 -18q-87 0 -130 48.5t-43 149.5q0 89 32.5 169.5t97 131.5t157.5 51
q63 0 100.5 -27zM202 415.5q-37 -57.5 -50 -127.5q77 0 134 32t57 95q0 29 -13.5 43.5t-38.5 14.5q-52 0 -89 -57.5zM247 622q-55 15 -85 34.5t-30 56.5q0 18 8 34t24 22l212 -136l-17 -41z" />
    <glyph glyph-name="eacute" unicode="&#xe9;" horiz-adv-x="438" 
d="M27 0zM414.5 503q37.5 -27 37.5 -87q0 -57 -34 -97t-91.5 -61t-127.5 -21q-28 0 -54 2q-3 -33 -3 -60q0 -58 21 -87t72 -29q43 0 77 20.5t53 58.5q12 -3 18 -14t6 -26q0 -30 -24 -58t-67 -46t-98 -18q-87 0 -130 48.5t-43 149.5q0 89 32.5 169.5t97 131.5t157.5 51
q63 0 100.5 -27zM202 415.5q-37 -57.5 -50 -127.5q77 0 134 32t57 95q0 29 -13.5 43.5t-38.5 14.5q-52 0 -89 -57.5zM415 769q17 -6 25 -22t8 -34q0 -37 -30.5 -56.5t-85.5 -34.5l-111 -30l-17 41z" />
    <glyph glyph-name="ecircumflex" unicode="&#xea;" horiz-adv-x="438" 
d="M27 0zM414.5 503q37.5 -27 37.5 -87q0 -57 -34 -97t-91.5 -61t-127.5 -21q-28 0 -54 2q-3 -33 -3 -60q0 -58 21 -87t72 -29q43 0 77 20.5t53 58.5q12 -3 18 -14t6 -26q0 -30 -24 -58t-67 -46t-98 -18q-87 0 -130 48.5t-43 149.5q0 89 32.5 169.5t97 131.5t157.5 51
q63 0 100.5 -27zM202 415.5q-37 -57.5 -50 -127.5q77 0 134 32t57 95q0 29 -13.5 43.5t-38.5 14.5q-52 0 -89 -57.5zM465 628l-40 -48l-105 72l-130 -72l-27 49l163 116h7z" />
    <glyph glyph-name="edieresis" unicode="&#xeb;" horiz-adv-x="438" 
d="M27 0zM414.5 503q37.5 -27 37.5 -87q0 -57 -34 -97t-91.5 -61t-127.5 -21q-28 0 -54 2q-3 -33 -3 -60q0 -58 21 -87t72 -29q43 0 77 20.5t53 58.5q12 -3 18 -14t6 -26q0 -30 -24 -58t-67 -46t-98 -18q-87 0 -130 48.5t-43 149.5q0 89 32.5 169.5t97 131.5t157.5 51
q63 0 100.5 -27zM202 415.5q-37 -57.5 -50 -127.5q77 0 134 32t57 95q0 29 -13.5 43.5t-38.5 14.5q-52 0 -89 -57.5zM471 708q20 -16 20 -46q0 -31 -21.5 -47.5t-54.5 -16.5t-53 16t-20 46q0 31 21.5 47.5t54.5 16.5t53 -16zM267 708q20 -16 20 -46q0 -31 -21.5 -47.5
t-54.5 -16.5t-53 16t-20 46q0 31 21.5 47.5t54.5 16.5t53 -16z" />
    <glyph glyph-name="igrave" unicode="&#xec;" horiz-adv-x="261" 
d="M32 0zM153 62q0 -32 30 -35q-6 -23 -26.5 -35t-47.5 -12q-31 0 -49 18t-18 49q0 29 19 127l68 336l113 12l-84 -418q-5 -27 -5 -42zM147 622q-55 15 -85 34.5t-30 56.5q0 18 8 34t24 22l212 -136l-17 -41z" />
    <glyph glyph-name="iacute" unicode="&#xed;" horiz-adv-x="261" 
d="M42 0zM153 62q0 -32 30 -35q-6 -23 -26.5 -35t-47.5 -12q-31 0 -49 18t-18 49q0 29 19 127l68 336l113 12l-84 -418q-5 -27 -5 -42zM315 769q17 -6 25 -22t8 -34q0 -37 -30.5 -56.5t-85.5 -34.5l-111 -30l-17 41z" />
    <glyph glyph-name="icircumflex" unicode="&#xee;" horiz-adv-x="261" 
d="M42 0zM153 62q0 -32 30 -35q-6 -23 -26.5 -35t-47.5 -12q-31 0 -49 18t-18 49q0 29 19 127l68 336l113 12l-84 -418q-5 -27 -5 -42zM365 628l-40 -48l-105 72l-130 -72l-27 49l163 116h7z" />
    <glyph glyph-name="idieresis" unicode="&#xef;" horiz-adv-x="261" 
d="M38 0zM153 62q0 -32 30 -35q-6 -23 -26.5 -35t-47.5 -12q-31 0 -49 18t-18 49q0 29 19 127l68 336l113 12l-84 -418q-5 -27 -5 -42zM371 708q20 -16 20 -46q0 -31 -21.5 -47.5t-54.5 -16.5t-53 16t-20 46q0 31 21.5 47.5t54.5 16.5t53 -16zM167 708q20 -16 20 -46
q0 -31 -21.5 -47.5t-54.5 -16.5t-53 16t-20 46q0 31 21.5 47.5t54.5 16.5t53 -16z" />
    <glyph glyph-name="eth" unicode="&#xf0;" horiz-adv-x="514" 
d="M546 669q0 -15 -10.5 -25.5t-32.5 -18.5l-24 -8q20 -59 20 -155q0 -116 -33 -226.5t-104.5 -183t-178.5 -72.5q-80 0 -118 45.5t-38 142.5q0 88 30 169.5t92.5 133.5t153.5 52q36 0 72 -11q-2 42 -7 67l-100 -35q-13 13 -13 29q0 25 28 35l63 23q-15 17 -43 17
q-14 0 -29.5 -4t-25.5 -11q-6 10 -6 23q0 30 29 47t68 17q34 0 64.5 -14.5t47.5 -37.5l84 30q11 -10 11 -29zM367 348q7 49 9 85q-18 14 -41 22t-44 8q-52 0 -81 -43.5t-45 -109.5q-10 -39 -16.5 -85.5t-6.5 -80.5q0 -104 67 -104q38 0 64.5 31.5t42.5 76.5t34 114
q10 37 17 86z" />
    <glyph glyph-name="ntilde" unicode="&#xf1;" horiz-adv-x="540" 
d="M25 0zM279 506q45 24 100 24q63 0 92.5 -32.5t29.5 -95.5q0 -40 -9 -86.5t-28 -121.5q-10 -39 -17.5 -74.5t-7.5 -54.5q0 -17 6.5 -26.5t23.5 -11.5q-6 -23 -26.5 -35t-47.5 -12q-67 0 -67 75q0 30 8.5 72t24.5 109q15 59 22 93t7 56q0 33 -17 50.5t-47 17.5
q-53 0 -86.5 -51.5t-47.5 -123.5l-54 -278l-113 -12l102 522l94 12l-13 -90q26 50 71 74zM515 679q0 -29 -21 -44.5t-56 -15.5q-19 0 -83 8q-62 8 -83 8q-37 0 -56 -15q-17 25 -17 46q0 26 21 40t60 14q24 0 86 -8t83 -8q38 0 50 16q16 -19 16 -41z" />
    <glyph glyph-name="ograve" unicode="&#xf2;" horiz-adv-x="509" 
d="M27 0zM447 479q35 -51 35 -136q0 -96 -31 -178.5t-96 -133.5t-161 -51q-97 0 -132 51t-35 136q0 96 31 178.5t95.5 133.5t160.5 51q98 0 133 -51zM211 426q-29 -44 -46 -117q-10 -39 -16.5 -85.5t-6.5 -79.5q0 -104 74 -104q52 0 81.5 44t46.5 117q10 39 16.5 85.5
t6.5 79.5q0 104 -75 104q-52 0 -81 -44zM282 622q-55 15 -85 34.5t-30 56.5q0 18 8 34t24 22l212 -136l-17 -41z" />
    <glyph glyph-name="oacute" unicode="&#xf3;" horiz-adv-x="509" 
d="M27 0zM447 479q35 -51 35 -136q0 -96 -31 -178.5t-96 -133.5t-161 -51q-97 0 -132 51t-35 136q0 96 31 178.5t95.5 133.5t160.5 51q98 0 133 -51zM211 426q-29 -44 -46 -117q-10 -39 -16.5 -85.5t-6.5 -79.5q0 -104 74 -104q52 0 81.5 44t46.5 117q10 39 16.5 85.5
t6.5 79.5q0 104 -75 104q-52 0 -81 -44zM450 769q17 -6 25 -22t8 -34q0 -37 -30.5 -56.5t-85.5 -34.5l-111 -30l-17 41z" />
    <glyph glyph-name="ocircumflex" unicode="&#xf4;" horiz-adv-x="509" 
d="M27 0zM447 479q35 -51 35 -136q0 -96 -31 -178.5t-96 -133.5t-161 -51q-97 0 -132 51t-35 136q0 96 31 178.5t95.5 133.5t160.5 51q98 0 133 -51zM211 426q-29 -44 -46 -117q-10 -39 -16.5 -85.5t-6.5 -79.5q0 -104 74 -104q52 0 81.5 44t46.5 117q10 39 16.5 85.5
t6.5 79.5q0 104 -75 104q-52 0 -81 -44zM500 628l-40 -48l-105 72l-130 -72l-27 49l163 116h7z" />
    <glyph glyph-name="otilde" unicode="&#xf5;" horiz-adv-x="509" 
d="M27 0zM447 479q35 -51 35 -136q0 -96 -31 -178.5t-96 -133.5t-161 -51q-97 0 -132 51t-35 136q0 96 31 178.5t95.5 133.5t160.5 51q98 0 133 -51zM211 426q-29 -44 -46 -117q-10 -39 -16.5 -85.5t-6.5 -79.5q0 -104 74 -104q52 0 81.5 44t46.5 117q10 39 16.5 85.5
t6.5 79.5q0 104 -75 104q-52 0 -81 -44zM505 679q0 -29 -21 -44.5t-56 -15.5q-19 0 -83 8q-62 8 -83 8q-37 0 -56 -15q-17 25 -17 46q0 26 21 40t60 14q24 0 86 -8t83 -8q38 0 50 16q16 -19 16 -41z" />
    <glyph glyph-name="odieresis" unicode="&#xf6;" horiz-adv-x="509" 
d="M27 0zM447 479q35 -51 35 -136q0 -96 -31 -178.5t-96 -133.5t-161 -51q-97 0 -132 51t-35 136q0 96 31 178.5t95.5 133.5t160.5 51q98 0 133 -51zM211 426q-29 -44 -46 -117q-10 -39 -16.5 -85.5t-6.5 -79.5q0 -104 74 -104q52 0 81.5 44t46.5 117q10 39 16.5 85.5
t6.5 79.5q0 104 -75 104q-52 0 -81 -44zM506 708q20 -16 20 -46q0 -31 -21.5 -47.5t-54.5 -16.5t-53 16t-20 46q0 31 21.5 47.5t54.5 16.5t53 -16zM302 708q20 -16 20 -46q0 -31 -21.5 -47.5t-54.5 -16.5t-53 16t-20 46q0 31 21.5 47.5t54.5 16.5t53 -16z" />
    <glyph glyph-name="divide" unicode="&#xf7;" 
d="M347 356q-18 -14 -47 -14t-46.5 13.5t-17.5 37.5q0 25 19 40t48 15q28 0 45 -14t17 -39t-18 -39zM473 248q0 -22 -18 -36t-52 -14h-338q-4 12 -4 28q0 25 18 41t45 16h344q5 -17 5 -35zM281.5 47.5q-18.5 -14.5 -47.5 -14.5q-28 0 -46 14t-18 38q0 25 19 39.5t48 14.5
q28 0 45.5 -14t17.5 -38q0 -25 -18.5 -39.5z" />
    <glyph glyph-name="oslash" unicode="&#xf8;" horiz-adv-x="509" 
d="M511 499l-46 -51q17 -41 17 -105q0 -96 -31 -178.5t-96 -133.5t-161 -51q-79 0 -119 37l-11 -12q-25 -27 -44 -59q-19 0 -30 12.5t-11 30.5q0 26 18 44l41 46q-11 33 -11 88q0 96 31 178.5t95.5 133.5t160.5 51q65 0 104 -26l27 30q24 26 44 55q14 0 27.5 -13.5
t13.5 -33.5q0 -24 -19 -43zM145 199l210 234q-18 37 -63 37q-52 0 -81 -44t-46 -116q-11 -46 -20 -111zM297.5 89.5q32.5 49.5 48.5 118t20 130.5l-220 -242q16 -56 70 -56q49 0 81.5 49.5z" />
    <glyph glyph-name="ugrave" unicode="&#xf9;" horiz-adv-x="528" 
d="M38 0zM424 104q-5 -30 -5 -42q0 -32 30 -35q-6 -23 -26.5 -35t-46.5 -12q-28 0 -46.5 15t-21.5 42q-20 -29 -57 -43t-79 -14q-70 0 -102 38.5t-32 104.5q0 34 7.5 78t22.5 109l46 200l109 12l-48 -213q-10 -44 -19 -96t-9 -84q0 -38 15.5 -63.5t50.5 -25.5q49 0 78 47
t42 114l60 309l112 12zM276 622q-55 15 -85 34.5t-30 56.5q0 18 8 34t24 22l212 -136l-17 -41z" />
    <glyph glyph-name="uacute" unicode="&#xfa;" horiz-adv-x="528" 
d="M38 0zM424 104q-5 -30 -5 -42q0 -32 30 -35q-6 -23 -26.5 -35t-46.5 -12q-28 0 -46.5 15t-21.5 42q-20 -29 -57 -43t-79 -14q-70 0 -102 38.5t-32 104.5q0 34 7.5 78t22.5 109l46 200l109 12l-48 -213q-10 -44 -19 -96t-9 -84q0 -38 15.5 -63.5t50.5 -25.5q49 0 78 47
t42 114l60 309l112 12zM444 769q17 -6 25 -22t8 -34q0 -37 -30.5 -56.5t-85.5 -34.5l-111 -30l-17 41z" />
    <glyph glyph-name="ucircumflex" unicode="&#xfb;" horiz-adv-x="528" 
d="M38 0zM424 104q-5 -30 -5 -42q0 -32 30 -35q-6 -23 -26.5 -35t-46.5 -12q-28 0 -46.5 15t-21.5 42q-20 -29 -57 -43t-79 -14q-70 0 -102 38.5t-32 104.5q0 34 7.5 78t22.5 109l46 200l109 12l-48 -213q-10 -44 -19 -96t-9 -84q0 -38 15.5 -63.5t50.5 -25.5q49 0 78 47
t42 114l60 309l112 12zM494 628l-40 -48l-105 72l-130 -72l-27 49l163 116h7z" />
    <glyph glyph-name="udieresis" unicode="&#xfc;" horiz-adv-x="528" 
d="M38 0zM424 104q-5 -30 -5 -42q0 -32 30 -35q-6 -23 -26.5 -35t-46.5 -12q-28 0 -46.5 15t-21.5 42q-20 -29 -57 -43t-79 -14q-70 0 -102 38.5t-32 104.5q0 34 7.5 78t22.5 109l46 200l109 12l-48 -213q-10 -44 -19 -96t-9 -84q0 -38 15.5 -63.5t50.5 -25.5q49 0 78 47
t42 114l60 309l112 12zM500 708q20 -16 20 -46q0 -31 -21.5 -47.5t-54.5 -16.5t-53 16t-20 46q0 31 21.5 47.5t54.5 16.5t53 -16zM296 708q20 -16 20 -46q0 -31 -21.5 -47.5t-54.5 -16.5t-53 16t-20 46q0 31 21.5 47.5t54.5 16.5t53 -16z" />
    <glyph glyph-name="yacute" unicode="&#xfd;" horiz-adv-x="442" 
d="M26 0zM130 19h-45l-2 71q-3 129 -6 196t-10 124q-5 42 -14 62t-27 31q21 27 68 27q49 0 67.5 -28t21.5 -92q2 -48 2 -130v-93l-1 -95q67 89 107.5 179t40.5 174q0 30 -7 58q13 12 33.5 19.5t42.5 7.5q30 0 42.5 -16t12.5 -49q0 -92 -64 -207t-180 -223q-34 -31 -48 -55
t-14 -62q0 -21 8 -45t20 -43q-13 -14 -34 -22t-44 -8q-32 0 -48.5 19.5t-16.5 53.5q0 62 95 146zM388 769q17 -6 25 -22t8 -34q0 -37 -30.5 -56.5t-85.5 -34.5l-111 -30l-17 41z" />
    <glyph glyph-name="thorn" unicode="&#xfe;" horiz-adv-x="530" 
d="M235 513.5q-11 -43.5 -21 -69.5q29 39 71.5 62.5t90.5 23.5q69 0 98.5 -47.5t29.5 -134.5q0 -93 -30.5 -177t-93 -137.5t-153.5 -53.5q-43 0 -89 17l-35 -177l-112 -12l172 892l113 12l-22 -113q-8 -42 -19 -85.5zM194 48q23 -8 44 -8q53 0 82 45t46 116q10 39 16.5 85
t6.5 78q0 44 -15.5 66.5t-50.5 22.5q-50 0 -82 -41.5t-44 -102.5l-44 -238q18 -15 41 -23z" />
    <glyph glyph-name="ydieresis" unicode="&#xff;" horiz-adv-x="442" 
d="M26 0zM130 19h-45l-2 71q-3 129 -6 196t-10 124q-5 42 -14 62t-27 31q21 27 68 27q49 0 67.5 -28t21.5 -92q2 -48 2 -130v-93l-1 -95q67 89 107.5 179t40.5 174q0 30 -7 58q13 12 33.5 19.5t42.5 7.5q30 0 42.5 -16t12.5 -49q0 -92 -64 -207t-180 -223q-34 -31 -48 -55
t-14 -62q0 -21 8 -45t20 -43q-13 -14 -34 -22t-44 -8q-32 0 -48.5 19.5t-16.5 53.5q0 62 95 146zM444 708q20 -16 20 -46q0 -31 -21.5 -47.5t-54.5 -16.5t-53 16t-20 46q0 31 21.5 47.5t54.5 16.5t53 -16zM240 708q20 -16 20 -46q0 -31 -21.5 -47.5t-54.5 -16.5t-53 16
t-20 46q0 31 21.5 47.5t54.5 16.5t53 -16z" />
    <glyph glyph-name="Amacron" unicode="&#x100;" horiz-adv-x="536" 
d="M489 792q0 -26 -17.5 -42t-50.5 -16h-211q-2 8 -2 24q1 27 17.5 42.5t43.5 15.5h217q3 -10 3 -24zM463 123q6 -72 39 -93q-6 -23 -25.5 -36.5t-45.5 -13.5q-39 0 -55.5 30.5t-23.5 82.5q-6 45 -8 75h-187l-40 -98l-29 -70h-115l298 660h146zM238 373l-53 -134h153
l-19 339z" />
    <glyph glyph-name="amacron" unicode="&#x101;" horiz-adv-x="529" 
d="M27 0zM425 104q-5 -30 -5 -42q0 -32 30 -35q-6 -23 -26.5 -35t-46.5 -12q-28 0 -46.5 15t-21.5 42q-20 -29 -57 -43t-79 -14q-77 0 -111.5 47.5t-34.5 139.5q0 90 30 173t92.5 136.5t154.5 53.5q27 0 49.5 -5t51.5 -16l100 13zM336.5 462q-23.5 8 -44.5 8q-52 0 -81 -45
t-46 -116q-10 -39 -16.5 -85.5t-6.5 -78.5q0 -48 17 -76.5t54 -28.5q51 0 80 47.5t41 113.5l44 238q-18 15 -41.5 23zM532 672q0 -27 -17.5 -42.5t-51.5 -15.5h-211q-2 8 -2 24q1 27 17.5 42.5t43.5 15.5h218q3 -10 3 -24z" />
    <glyph glyph-name="Abreve" unicode="&#x102;" horiz-adv-x="536" 
d="M0 0zM463 123q6 -72 39 -93q-6 -23 -25.5 -36.5t-45.5 -13.5q-39 0 -55.5 30.5t-23.5 82.5q-6 45 -8 75h-187l-40 -98l-29 -70h-115l298 660h146zM238 373l-53 -134h153l-19 339zM306 803q0 -25 13 -40t37 -15q32 0 56.5 26.5t30.5 57.5h80q-11 -61 -58.5 -97t-118.5 -36
q-62 0 -94 27.5t-32 77.5q0 13 3 28h87q-4 -19 -4 -29z" />
    <glyph glyph-name="abreve" unicode="&#x103;" horiz-adv-x="529" 
d="M27 0zM425 104q-5 -30 -5 -42q0 -32 30 -35q-6 -23 -26.5 -35t-46.5 -12q-28 0 -46.5 15t-21.5 42q-20 -29 -57 -43t-79 -14q-77 0 -111.5 47.5t-34.5 139.5q0 90 30 173t92.5 136.5t154.5 53.5q27 0 49.5 -5t51.5 -16l100 13zM336.5 462q-23.5 8 -44.5 8q-52 0 -81 -45
t-46 -116q-10 -39 -16.5 -85.5t-6.5 -78.5q0 -48 17 -76.5t54 -28.5q51 0 80 47.5t41 113.5l44 238q-18 15 -41.5 23zM328 702q0 -25 13 -40t37 -15q32 0 56.5 26.5t30.5 57.5h81q-11 -61 -58.5 -97t-119.5 -36q-62 0 -93.5 27.5t-31.5 77.5q0 13 3 28h86q-4 -19 -4 -29z
" />
    <glyph glyph-name="Aogonek" unicode="&#x104;" horiz-adv-x="536" 
d="M531 -200q0 -24 -24 -41t-61 -17q-53 0 -84 28.5t-31 79.5q0 40 20 75t52 60q-24 11 -34.5 38.5t-16.5 69.5q-6 45 -8 75h-187l-40 -98l-29 -70h-115l298 660h146l46 -537q6 -72 39 -93q-1 -6 -5 -13h3v-7l-15 -9q-8 -8 -13 -11q-32 -25 -50 -59t-18 -68q0 -31 13.5 -45
t45.5 -14q15 0 29.5 6t22.5 19q16 -12 16 -29zM338 239l-19 339l-81 -205l-53 -134h153z" />
    <glyph glyph-name="aogonek" unicode="&#x105;" horiz-adv-x="529" 
d="M474 -200q0 -24 -24 -41t-61 -17q-53 0 -84 28.5t-31 79.5q0 40 20 75t52 60q-33 15 -37 52q-20 -29 -57 -43t-79 -14q-77 0 -111.5 47.5t-34.5 139.5q0 90 30 173t92.5 136.5t154.5 53.5q27 0 49.5 -5t51.5 -16l100 13l-80 -418q-5 -30 -5 -42q0 -32 30 -35
q-3 -10 -7 -16v-1h-0.5t-0.5 -1q-12 -16 -34 -24q-28 -25 -44.5 -57.5t-16.5 -64.5q0 -31 13.5 -45t45.5 -14q15 0 29.5 6t22.5 19q16 -12 16 -29zM293 87.5q29 47.5 41 113.5l44 238q-18 15 -41.5 23t-44.5 8q-52 0 -81 -45t-46 -116q-10 -39 -16.5 -85.5t-6.5 -78.5
q0 -48 17 -76.5t54 -28.5q51 0 80 47.5z" />
    <glyph glyph-name="Cacute" unicode="&#x106;" horiz-adv-x="512" 
d="M27 0zM489 645.5q45 -34.5 45 -97.5q0 -47 -25 -73t-63 -26q-15 0 -28.5 4t-20.5 12q6 16 10 37.5t4 36.5q0 32 -17.5 51t-50.5 19q-62 0 -105 -63t-64 -151.5t-21 -163.5q0 -71 24.5 -112.5t84.5 -41.5q52 0 89 30.5t66 84.5q17 -9 24.5 -21.5t7.5 -33.5
q0 -45 -31.5 -81t-82.5 -56t-107 -20q-98 0 -149.5 62t-51.5 182q0 107 39 212.5t116.5 174.5t186.5 69q75 0 120 -34.5zM291 756l234 89q22 -15 22 -45q0 -45 -37 -61.5t-96 -19.5l-115 -6z" />
    <glyph glyph-name="cacute" unicode="&#x107;" horiz-adv-x="439" 
d="M27 0zM410.5 503q38.5 -27 38.5 -78q0 -42 -24.5 -64.5t-58.5 -22.5q-29 0 -42 14q6 15 10 34.5t4 33.5q0 24 -12 37.5t-36 13.5q-45 0 -79 -48.5t-51.5 -117t-17.5 -123.5q0 -119 91 -119q43 0 75 26.5t47 69.5q34 -10 34 -51q0 -35 -24.5 -64t-68 -46.5t-96.5 -17.5
q-173 0 -173 198q0 89 32.5 170t96 131.5t152.5 50.5q64 0 102.5 -27zM435 769q17 -6 25 -22t8 -34q0 -37 -30.5 -56.5t-85.5 -34.5l-111 -30l-17 41z" />
    <glyph glyph-name="Ccircumflex" unicode="&#x108;" horiz-adv-x="512" 
d="M27 0zM489 645.5q45 -34.5 45 -97.5q0 -47 -25 -73t-63 -26q-15 0 -28.5 4t-20.5 12q6 16 10 37.5t4 36.5q0 32 -17.5 51t-50.5 19q-62 0 -105 -63t-64 -151.5t-21 -163.5q0 -71 24.5 -112.5t84.5 -41.5q52 0 89 30.5t66 84.5q17 -9 24.5 -21.5t7.5 -33.5
q0 -45 -31.5 -81t-82.5 -56t-107 -20q-98 0 -149.5 62t-51.5 182q0 107 39 212.5t116.5 174.5t186.5 69q75 0 120 -34.5zM513 722l-40 -48l-105 72l-130 -72l-27 49l163 116h7z" />
    <glyph glyph-name="ccircumflex" unicode="&#x109;" horiz-adv-x="439" 
d="M27 0zM410.5 503q38.5 -27 38.5 -78q0 -42 -24.5 -64.5t-58.5 -22.5q-29 0 -42 14q6 15 10 34.5t4 33.5q0 24 -12 37.5t-36 13.5q-45 0 -79 -48.5t-51.5 -117t-17.5 -123.5q0 -119 91 -119q43 0 75 26.5t47 69.5q34 -10 34 -51q0 -35 -24.5 -64t-68 -46.5t-96.5 -17.5
q-173 0 -173 198q0 89 32.5 170t96 131.5t152.5 50.5q64 0 102.5 -27zM485 628l-40 -48l-105 72l-130 -72l-27 49l163 116h7z" />
    <glyph glyph-name="Cdotaccent" unicode="&#x10a;" horiz-adv-x="512" 
d="M427.5 837q20.5 -16 20.5 -46q0 -31 -22 -47.5t-55 -16.5t-53 16t-20 46q0 31 21.5 47.5t54.5 16.5t53.5 -16zM489 645.5q45 -34.5 45 -97.5q0 -47 -25 -73t-63 -26q-15 0 -28.5 4t-20.5 12q6 16 10 37.5t4 36.5q0 32 -17.5 51t-50.5 19q-62 0 -105 -63t-64 -151.5
t-21 -163.5q0 -71 24.5 -112.5t84.5 -41.5q52 0 89 30.5t66 84.5q17 -9 24.5 -21.5t7.5 -33.5q0 -45 -31.5 -81t-82.5 -56t-107 -20q-98 0 -149.5 62t-51.5 182q0 107 39 212.5t116.5 174.5t186.5 69q75 0 120 -34.5z" />
    <glyph glyph-name="cdotaccent" unicode="&#x10b;" horiz-adv-x="439" 
d="M27 0zM410.5 503q38.5 -27 38.5 -78q0 -42 -24.5 -64.5t-58.5 -22.5q-29 0 -42 14q6 15 10 34.5t4 33.5q0 24 -12 37.5t-36 13.5q-45 0 -79 -48.5t-51.5 -117t-17.5 -123.5q0 -119 91 -119q43 0 75 26.5t47 69.5q34 -10 34 -51q0 -35 -24.5 -64t-68 -46.5t-96.5 -17.5
q-173 0 -173 198q0 89 32.5 170t96 131.5t152.5 50.5q64 0 102.5 -27zM377 708q20 -16 20 -46q0 -31 -21.5 -47.5t-54.5 -16.5t-53 16t-20 46q0 31 21.5 47.5t54.5 16.5t53 -16z" />
    <glyph glyph-name="Ccaron" unicode="&#x10c;" horiz-adv-x="512" 
d="M27 0zM489 645.5q45 -34.5 45 -97.5q0 -47 -25 -73t-63 -26q-15 0 -28.5 4t-20.5 12q6 16 10 37.5t4 36.5q0 32 -17.5 51t-50.5 19q-62 0 -105 -63t-64 -151.5t-21 -163.5q0 -71 24.5 -112.5t84.5 -41.5q52 0 89 30.5t66 84.5q17 -9 24.5 -21.5t7.5 -33.5
q0 -45 -31.5 -81t-82.5 -56t-107 -20q-98 0 -149.5 62t-51.5 182q0 107 39 212.5t116.5 174.5t186.5 69q75 0 120 -34.5zM238 799l40 38l104 -52l130 52l27 -39l-163 -106h-6z" />
    <glyph glyph-name="ccaron" unicode="&#x10d;" horiz-adv-x="439" 
d="M27 0zM410.5 503q38.5 -27 38.5 -78q0 -42 -24.5 -64.5t-58.5 -22.5q-29 0 -42 14q6 15 10 34.5t4 33.5q0 24 -12 37.5t-36 13.5q-45 0 -79 -48.5t-51.5 -117t-17.5 -123.5q0 -119 91 -119q43 0 75 26.5t47 69.5q34 -10 34 -51q0 -35 -24.5 -64t-68 -46.5t-96.5 -17.5
q-173 0 -173 198q0 89 32.5 170t96 131.5t152.5 50.5q64 0 102.5 -27zM192 708l40 48l104 -62l130 62l27 -49l-163 -116h-6z" />
    <glyph glyph-name="Dcaron" unicode="&#x10e;" horiz-adv-x="598" 
d="M21 0zM249.5 666q56.5 3 88.5 3q87 0 137.5 -25t72.5 -76t22 -132q0 -118 -40 -219t-123 -163.5t-206 -62.5q-34 0 -83 2.5t-97 6.5l128 660q44 3 100.5 6zM191 62q23 -2 41 -2q74 0 117 54t66 147q11 45 20 102t9 100q0 69 -27.5 102.5t-91.5 33.5q-31 0 -71 -7
l-103 -525q17 -3 40 -5zM228 799l40 38l104 -52l130 52l27 -39l-163 -106h-6z" />
    <glyph glyph-name="dcaron" unicode="&#x10f;" horiz-adv-x="529" 
d="M27 0zM425 104q-5 -30 -5 -42q0 -32 30 -35q-6 -23 -26.5 -35t-46.5 -12q-28 0 -46.5 15t-21.5 42q-20 -29 -57 -43t-79 -14q-77 0 -111.5 47.5t-34.5 138.5q0 90 30 173.5t92.5 137t153.5 53.5q24 0 44.5 -4t45.5 -13l37 187l112 12zM336.5 462q-23.5 8 -44.5 8
q-52 0 -81 -45t-46 -116q-10 -39 -16.5 -85.5t-6.5 -78.5q0 -48 17 -76.5t54 -28.5q51 0 80 47.5t41 113.5l44 238q-18 15 -41.5 23zM600 714.5q14 3.5 27 3.5q24 0 38.5 -15t14.5 -45q0 -33 -17.5 -62t-44.5 -46.5t-54 -17.5q-15 0 -31 6q27 33 40 62.5t13 65.5q0 24 -8 40
q8 5 22 8.5z" />
    <glyph glyph-name="Dcroat" unicode="&#x110;" horiz-adv-x="598" 
d="M249.5 666q56.5 3 88.5 3q87 0 137.5 -25t72.5 -76t22 -132q0 -118 -40 -219t-123 -163.5t-206 -62.5q-34 0 -83 2.5t-97 6.5l57 295h-73q-2 8 -2 24q2 48 56 48h33l57 293q44 3 100.5 6zM191 62q23 -2 41 -2q74 0 117 54t66 147q11 45 20 102t9 100q0 69 -27.5 102.5
t-91.5 33.5q-31 0 -71 -7l-44 -225h151q3 -10 3 -24q0 -48 -63 -48h-105l-45 -228q17 -3 40 -5z" />
    <glyph glyph-name="dcroat" unicode="&#x111;" horiz-adv-x="527" 
d="M609 607q0 -48 -63 -48h-33l-88 -455q-5 -30 -5 -42q0 -32 30 -35q-6 -23 -26.5 -35t-46.5 -12q-28 0 -46.5 15t-21.5 42q-20 -29 -57 -43t-79 -14q-77 0 -111.5 47.5t-34.5 138.5q0 90 30 173.5t92.5 137t153.5 53.5q24 0 44.5 -4t45.5 -13l9 46h-152q-2 8 -2 24
q2 48 56 48h112l14 69l112 12l-16 -81h80q3 -10 3 -24zM336.5 462q-23.5 8 -44.5 8q-52 0 -81 -45t-46 -116q-10 -39 -16.5 -85.5t-6.5 -78.5q0 -48 17 -76.5t54 -28.5q51 0 80 47.5t41 113.5l44 238q-18 15 -41.5 23z" />
    <glyph glyph-name="Emacron" unicode="&#x112;" horiz-adv-x="441" 
d="M465 792q0 -26 -17.5 -42t-50.5 -16h-211q-2 8 -2 24q1 27 17.5 42.5t43.5 15.5h217q3 -10 3 -24zM450.5 589q-29.5 -24 -78.5 -24q-55 0 -122 27l-37 -215h180q0 -43 -26 -62.5t-70 -19.5q-49 0 -97 23l-41 -229h121q20 0 43 3t36 9q6 -8 10 -20.5t4 -24.5
q0 -33 -28.5 -44.5t-74.5 -11.5h-248l127 660h331q0 -47 -29.5 -71z" />
    <glyph glyph-name="emacron" unicode="&#x113;" horiz-adv-x="438" 
d="M27 0zM414.5 503q37.5 -27 37.5 -87q0 -57 -34 -97t-91.5 -61t-127.5 -21q-28 0 -54 2q-3 -33 -3 -60q0 -58 21 -87t72 -29q43 0 77 20.5t53 58.5q12 -3 18 -14t6 -26q0 -30 -24 -58t-67 -46t-98 -18q-87 0 -130 48.5t-43 149.5q0 89 32.5 169.5t97 131.5t157.5 51
q63 0 100.5 -27zM202 415.5q-37 -57.5 -50 -127.5q77 0 134 32t57 95q0 29 -13.5 43.5t-38.5 14.5q-52 0 -89 -57.5zM465 672q0 -27 -17.5 -42.5t-51.5 -15.5h-211q-2 8 -2 24q1 27 17.5 42.5t43.5 15.5h218q3 -10 3 -24z" />
    <glyph glyph-name="Ebreve" unicode="&#x114;" horiz-adv-x="441" 
d="M22 0zM450.5 589q-29.5 -24 -78.5 -24q-55 0 -122 27l-37 -215h180q0 -43 -26 -62.5t-70 -19.5q-49 0 -97 23l-41 -229h121q20 0 43 3t36 9q6 -8 10 -20.5t4 -24.5q0 -33 -28.5 -44.5t-74.5 -11.5h-248l127 660h331q0 -47 -29.5 -71zM282 803q0 -25 13 -40t37 -15
q32 0 56.5 26.5t30.5 57.5h80q-11 -61 -58.5 -97t-118.5 -36q-62 0 -94 27.5t-32 77.5q0 13 3 28h87q-4 -19 -4 -29z" />
    <glyph glyph-name="ebreve" unicode="&#x115;" horiz-adv-x="438" 
d="M27 0zM414.5 503q37.5 -27 37.5 -87q0 -57 -34 -97t-91.5 -61t-127.5 -21q-28 0 -54 2q-3 -33 -3 -60q0 -58 21 -87t72 -29q43 0 77 20.5t53 58.5q12 -3 18 -14t6 -26q0 -30 -24 -58t-67 -46t-98 -18q-87 0 -130 48.5t-43 149.5q0 89 32.5 169.5t97 131.5t157.5 51
q63 0 100.5 -27zM202 415.5q-37 -57.5 -50 -127.5q77 0 134 32t57 95q0 29 -13.5 43.5t-38.5 14.5q-52 0 -89 -57.5zM261 702q0 -25 13 -40t37 -15q32 0 56.5 26.5t30.5 57.5h81q-11 -61 -58.5 -97t-119.5 -36q-62 0 -93.5 27.5t-31.5 77.5q0 13 3 28h86q-4 -19 -4 -29z" />
    <glyph glyph-name="Edotaccent" unicode="&#x116;" horiz-adv-x="441" 
d="M378.5 837q20.5 -16 20.5 -46q0 -31 -22 -47.5t-55 -16.5t-53 16t-20 46q0 31 21.5 47.5t54.5 16.5t53.5 -16zM450.5 589q-29.5 -24 -78.5 -24q-55 0 -122 27l-37 -215h180q0 -43 -26 -62.5t-70 -19.5q-49 0 -97 23l-41 -229h121q20 0 43 3t36 9q6 -8 10 -20.5t4 -24.5
q0 -33 -28.5 -44.5t-74.5 -11.5h-248l127 660h331q0 -47 -29.5 -71z" />
    <glyph glyph-name="edotaccent" unicode="&#x117;" horiz-adv-x="438" 
d="M27 0zM414.5 503q37.5 -27 37.5 -87q0 -57 -34 -97t-91.5 -61t-127.5 -21q-28 0 -54 2q-3 -33 -3 -60q0 -58 21 -87t72 -29q43 0 77 20.5t53 58.5q12 -3 18 -14t6 -26q0 -30 -24 -58t-67 -46t-98 -18q-87 0 -130 48.5t-43 149.5q0 89 32.5 169.5t97 131.5t157.5 51
q63 0 100.5 -27zM202 415.5q-37 -57.5 -50 -127.5q77 0 134 32t57 95q0 29 -13.5 43.5t-38.5 14.5q-52 0 -89 -57.5zM357 708q20 -16 20 -46q0 -31 -21.5 -47.5t-54.5 -16.5t-53 16t-20 46q0 31 21.5 47.5t54.5 16.5t53 -16z" />
    <glyph glyph-name="Eogonek" unicode="&#x118;" horiz-adv-x="441" 
d="M250 592l-37 -215h180q0 -43 -26 -62.5t-70 -19.5q-49 0 -97 23l-41 -229h121q20 0 43 3t36 9q6 -8 10 -20.5t4 -24.5q0 -33 -32 -46q-43 -25 -69.5 -65t-26.5 -82q0 -31 13.5 -45t45.5 -14q15 0 29.5 6t22.5 19q16 -12 16 -29q0 -24 -24 -41t-61 -17q-53 0 -84 28.5
t-31 79.5q0 47 26 85.5t67 64.5h-243l127 660h331q0 -47 -29.5 -71t-78.5 -24q-55 0 -122 27z" />
    <glyph glyph-name="eogonek" unicode="&#x119;" horiz-adv-x="438" 
d="M145 239q-3 -33 -3 -60q0 -58 21 -87t72 -29q43 0 77 20.5t53 58.5q12 -3 18 -14t6 -26q0 -27 -19 -52.5t-53 -43.5q-41 -25 -65.5 -64t-24.5 -79q0 -31 13.5 -45t45.5 -14q15 0 29.5 6t22.5 19q16 -12 16 -29q0 -24 -24 -41t-61 -17q-53 0 -84 28.5t-31 79.5
q0 75 67 131q-7 -1 -21 -1q-87 0 -130 48.5t-43 149.5q0 89 32.5 169.5t97 131.5t157.5 51q63 0 100.5 -27t37.5 -87q0 -57 -34 -97t-91.5 -61t-127.5 -21q-28 0 -54 2zM202 415.5q-37 -57.5 -50 -127.5q77 0 134 32t57 95q0 29 -13.5 43.5t-38.5 14.5q-52 0 -89 -57.5z" />
    <glyph glyph-name="Ecaron" unicode="&#x11a;" horiz-adv-x="441" 
d="M22 0zM450.5 589q-29.5 -24 -78.5 -24q-55 0 -122 27l-37 -215h180q0 -43 -26 -62.5t-70 -19.5q-49 0 -97 23l-41 -229h121q20 0 43 3t36 9q6 -8 10 -20.5t4 -24.5q0 -33 -28.5 -44.5t-74.5 -11.5h-248l127 660h331q0 -47 -29.5 -71zM188 799l40 38l104 -52l130 52
l27 -39l-163 -106h-6z" />
    <glyph glyph-name="ecaron" unicode="&#x11b;" horiz-adv-x="438" 
d="M27 0zM414.5 503q37.5 -27 37.5 -87q0 -57 -34 -97t-91.5 -61t-127.5 -21q-28 0 -54 2q-3 -33 -3 -60q0 -58 21 -87t72 -29q43 0 77 20.5t53 58.5q12 -3 18 -14t6 -26q0 -30 -24 -58t-67 -46t-98 -18q-87 0 -130 48.5t-43 149.5q0 89 32.5 169.5t97 131.5t157.5 51
q63 0 100.5 -27zM202 415.5q-37 -57.5 -50 -127.5q77 0 134 32t57 95q0 29 -13.5 43.5t-38.5 14.5q-52 0 -89 -57.5zM172 708l40 48l104 -62l130 62l27 -49l-163 -116h-6z" />
    <glyph glyph-name="Gcircumflex" unicode="&#x11c;" horiz-adv-x="528" 
d="M26 0zM463 171q-15 -90 -18 -175q-10 -16 -35 -16q-58 0 -58 58q-72 -58 -152 -58q-85 0 -129.5 63.5t-44.5 177.5q0 109 39 215t116.5 175t186.5 69q75 0 120 -34.5t45 -97.5q0 -47 -25 -73t-63 -26q-15 0 -28.5 4t-20.5 12q7 16 11 37.5t4 36.5q0 32 -18 51t-50 19
q-63 0 -106 -63t-64 -152t-21 -165q0 -72 25 -112.5t87 -40.5q22 0 45.5 5t38.5 16l32 211l127 18q-29 -65 -44 -155zM518 722l-40 -48l-105 72l-130 -72l-27 49l163 116h7z" />
    <glyph glyph-name="gcircumflex" unicode="&#x11d;" horiz-adv-x="504" 
d="M10 0zM431 141q-25 -129 -56 -202t-77.5 -106.5t-118.5 -33.5q-74 0 -121.5 32t-47.5 92q0 38 22 56.5t51 18.5q19 0 34.5 -8t23.5 -23q-19 -21 -19 -48q0 -29 17.5 -45t45.5 -16q60 0 89 65.5t49 191.5q-20 -29 -57 -43t-78 -14q-71 0 -109 42t-38 123q0 77 33 147.5
t94 115t140 44.5q25 0 47.5 -5t51.5 -16l100 13zM339 462q-23 8 -42 8q-45 0 -77 -44.5t-48 -106t-16 -109.5q0 -92 69 -92q53 0 80.5 45.5t42.5 115.5l32 160q-18 15 -41 23zM505 628l-40 -48l-105 72l-130 -72l-27 49l163 116h7z" />
    <glyph glyph-name="Gbreve" unicode="&#x11e;" horiz-adv-x="528" 
d="M26 0zM463 171q-15 -90 -18 -175q-10 -16 -35 -16q-58 0 -58 58q-72 -58 -152 -58q-85 0 -129.5 63.5t-44.5 177.5q0 109 39 215t116.5 175t186.5 69q75 0 120 -34.5t45 -97.5q0 -47 -25 -73t-63 -26q-15 0 -28.5 4t-20.5 12q7 16 11 37.5t4 36.5q0 32 -18 51t-50 19
q-63 0 -106 -63t-64 -152t-21 -165q0 -72 25 -112.5t87 -40.5q22 0 45.5 5t38.5 16l32 211l127 18q-29 -65 -44 -155zM337 803q0 -25 13 -40t37 -15q32 0 56.5 26.5t30.5 57.5h80q-11 -61 -58.5 -97t-118.5 -36q-62 0 -94 27.5t-32 77.5q0 13 3 28h87q-4 -19 -4 -29z" />
    <glyph glyph-name="gbreve" unicode="&#x11f;" horiz-adv-x="504" 
d="M10 0zM431 141q-25 -129 -56 -202t-77.5 -106.5t-118.5 -33.5q-74 0 -121.5 32t-47.5 92q0 38 22 56.5t51 18.5q19 0 34.5 -8t23.5 -23q-19 -21 -19 -48q0 -29 17.5 -45t45.5 -16q60 0 89 65.5t49 191.5q-20 -29 -57 -43t-78 -14q-71 0 -109 42t-38 123q0 77 33 147.5
t94 115t140 44.5q25 0 47.5 -5t51.5 -16l100 13zM339 462q-23 8 -42 8q-45 0 -77 -44.5t-48 -106t-16 -109.5q0 -92 69 -92q53 0 80.5 45.5t42.5 115.5l32 160q-18 15 -41 23zM301 702q0 -25 13 -40t37 -15q32 0 56.5 26.5t30.5 57.5h81q-11 -61 -58.5 -97t-119.5 -36
q-62 0 -93.5 27.5t-31.5 77.5q0 13 3 28h86q-4 -19 -4 -29z" />
    <glyph glyph-name="Gdotaccent" unicode="&#x120;" horiz-adv-x="528" 
d="M432.5 837q20.5 -16 20.5 -46q0 -31 -22 -47.5t-55 -16.5t-53 16t-20 46q0 31 21.5 47.5t54.5 16.5t53.5 -16zM463 171q-15 -90 -18 -175q-10 -16 -35 -16q-58 0 -58 58q-72 -58 -152 -58q-85 0 -129.5 63.5t-44.5 177.5q0 109 39 215t116.5 175t186.5 69q75 0 120 -34.5
t45 -97.5q0 -47 -25 -73t-63 -26q-15 0 -28.5 4t-20.5 12q7 16 11 37.5t4 36.5q0 32 -18 51t-50 19q-63 0 -106 -63t-64 -152t-21 -165q0 -72 25 -112.5t87 -40.5q22 0 45.5 5t38.5 16l32 211l127 18q-29 -65 -44 -155z" />
    <glyph glyph-name="gdotaccent" unicode="&#x121;" horiz-adv-x="504" 
d="M10 0zM431 141q-25 -129 -56 -202t-77.5 -106.5t-118.5 -33.5q-74 0 -121.5 32t-47.5 92q0 38 22 56.5t51 18.5q19 0 34.5 -8t23.5 -23q-19 -21 -19 -48q0 -29 17.5 -45t45.5 -16q60 0 89 65.5t49 191.5q-20 -29 -57 -43t-78 -14q-71 0 -109 42t-38 123q0 77 33 147.5
t94 115t140 44.5q25 0 47.5 -5t51.5 -16l100 13zM339 462q-23 8 -42 8q-45 0 -77 -44.5t-48 -106t-16 -109.5q0 -92 69 -92q53 0 80.5 45.5t42.5 115.5l32 160q-18 15 -41 23zM397 708q20 -16 20 -46q0 -31 -21.5 -47.5t-54.5 -16.5t-53 16t-20 46q0 31 21.5 47.5t54.5 16.5
t53 -16z" />
    <glyph glyph-name="Gcommaaccent" unicode="&#x122;" horiz-adv-x="528" 
d="M26 0zM463 171q-15 -90 -18 -175q-10 -16 -35 -16q-58 0 -58 58q-72 -58 -152 -58q-85 0 -129.5 63.5t-44.5 177.5q0 109 39 215t116.5 175t186.5 69q75 0 120 -34.5t45 -97.5q0 -47 -25 -73t-63 -26q-15 0 -28.5 4t-20.5 12q7 16 11 37.5t4 36.5q0 32 -18 51t-50 19
q-63 0 -106 -63t-64 -152t-21 -165q0 -72 25 -112.5t87 -40.5q22 0 45.5 5t38.5 16l32 211l127 18q-29 -65 -44 -155zM276.5 -166.5q-18.5 -30.5 -48 -50.5t-59.5 -20q-17 0 -28 11q27 37 40.5 66t13.5 63q0 19 -7 37q21 11 52 11q24 0 39.5 -14t15.5 -42q0 -31 -18.5 -61.5
z" />
    <glyph glyph-name="gcommaaccent" unicode="&#x123;" horiz-adv-x="504" 
d="M10 0zM431 141q-25 -129 -56 -202t-77.5 -106.5t-118.5 -33.5q-74 0 -121.5 32t-47.5 92q0 38 22 56.5t51 18.5q19 0 34.5 -8t23.5 -23q-19 -21 -19 -48q0 -29 17.5 -45t45.5 -16q60 0 89 65.5t49 191.5q-20 -29 -57 -43t-78 -14q-71 0 -109 42t-38 123q0 77 33 147.5
t94 115t140 44.5q25 0 47.5 -5t51.5 -16l100 13zM339 462q-23 8 -42 8q-45 0 -77 -44.5t-48 -106t-16 -109.5q0 -92 69 -92q53 0 80.5 45.5t42.5 115.5l32 160q-18 15 -41 23zM445 749q-27 -37 -40.5 -66t-13.5 -63q0 -19 7 -37q-21 -11 -52 -11q-24 0 -39.5 14t-15.5 42
q0 31 18.5 61.5t48 50.5t59.5 20q17 0 28 -11z" />
    <glyph glyph-name="Hcircumflex" unicode="&#x124;" horiz-adv-x="615" 
d="M22 0zM496 95q-5 -27 -5 -46q0 -25 12 -45q-30 -24 -67 -24q-34 0 -47.5 17t-13.5 50q0 20 11 86l27 157h-218l-56 -290h-117l127 660h119l-59 -300h217l56 300h119zM520 722l-40 -48l-105 72l-130 -72l-27 49l163 116h7z" />
    <glyph glyph-name="hcircumflex" unicode="&#x125;" horiz-adv-x="540" 
d="M25 0zM255 599q-8 -43 -19 -86.5t-21 -69.5q27 44 70.5 65.5t93.5 21.5q63 0 92.5 -32.5t29.5 -95.5q0 -40 -9 -86.5t-28 -121.5q-10 -39 -17.5 -74.5t-7.5 -54.5q0 -17 6.5 -26.5t23.5 -11.5q-6 -23 -26.5 -35t-47.5 -12q-67 0 -67 75q0 30 8.5 72t24.5 109q15 59 22 93
t7 56q0 33 -17 50.5t-47 17.5q-53 0 -86.5 -51.5t-47.5 -123.5l-54 -278l-113 -12l139 712l113 12zM379 722l-40 -48l-105 72l-130 -72l-27 49l163 116h7z" />
    <glyph glyph-name="Hbar" unicode="&#x126;" horiz-adv-x="615" 
d="M644 501q0 -27 -17.5 -43t-50.5 -16h-15l-65 -347q-5 -27 -5 -46q0 -25 12 -45q-30 -24 -67 -24q-34 0 -47.5 17t-13.5 50q0 20 11 86l27 157h-218l-56 -290h-117l85 442h-63q-2 8 -2 25q1 27 17.5 42.5t43.5 15.5h20l26 135h119l-27 -135h216l25 135h119l-25 -135h65
q3 -10 3 -24zM426 360l15 82h-216l-16 -82h217z" />
    <glyph glyph-name="hbar" unicode="&#x127;" horiz-adv-x="540" 
d="M215 443q27 44 70.5 65.5t93.5 21.5q63 0 92.5 -32.5t29.5 -95.5q0 -40 -9 -86.5t-28 -121.5q-10 -39 -17.5 -74.5t-7.5 -54.5q0 -17 6.5 -26.5t23.5 -11.5q-6 -23 -26.5 -35t-47.5 -12q-67 0 -67 75q0 30 8.5 72t24.5 109q15 59 22 93t7 56q0 33 -17 50.5t-47 17.5
q-53 0 -86.5 -51.5t-47.5 -123.5l-54 -278l-113 -12l113 579h-64q-2 8 -2 24q2 48 56 48h24l12 61l113 12l-14 -73h167q3 -10 3 -24q0 -48 -63 -48h-121q-17 -80 -34 -124z" />
    <glyph glyph-name="Itilde" unicode="&#x128;" horiz-adv-x="290" 
d="M22 0zM268 660l-129 -660h-117l127 660h119zM397 785q0 -29 -21 -44.5t-56 -15.5q-20 0 -84 8q-62 8 -82 8q-37 0 -56 -15q-17 25 -17 46q0 26 21 40t59 14q23 0 87 -8q62 -8 83 -8q38 0 50 16q16 -19 16 -41z" />
    <glyph glyph-name="itilde" unicode="&#x129;" horiz-adv-x="261" 
d="M42 0zM153 62q0 -32 30 -35q-6 -23 -26.5 -35t-47.5 -12q-31 0 -49 18t-18 49q0 29 19 127l68 336l113 12l-84 -418q-5 -27 -5 -42zM370 679q0 -29 -21 -44.5t-56 -15.5q-19 0 -83 8q-62 8 -83 8q-37 0 -56 -15q-17 25 -17 46q0 26 21 40t60 14q24 0 86 -8t83 -8
q38 0 50 16q16 -19 16 -41z" />
    <glyph glyph-name="Imacron" unicode="&#x12a;" horiz-adv-x="290" 
d="M371 792q0 -26 -17.5 -42t-50.5 -16h-211q-2 8 -2 24q1 27 17.5 42.5t43.5 15.5h217q3 -10 3 -24zM268 660l-129 -660h-117l127 660h119z" />
    <glyph glyph-name="imacron" unicode="&#x12b;" horiz-adv-x="261" 
d="M42 0zM153 62q0 -32 30 -35q-6 -23 -26.5 -35t-47.5 -12q-31 0 -49 18t-18 49q0 29 19 127l68 336l113 12l-84 -418q-5 -27 -5 -42zM365 672q0 -27 -17.5 -42.5t-51.5 -15.5h-211q-2 8 -2 24q1 27 17.5 42.5t43.5 15.5h218q3 -10 3 -24z" />
    <glyph glyph-name="Ibreve" unicode="&#x12c;" horiz-adv-x="290" 
d="M22 0zM268 660l-129 -660h-117l127 660h119zM188 803q0 -25 13 -40t37 -15q32 0 56.5 26.5t30.5 57.5h80q-11 -61 -58.5 -97t-118.5 -36q-62 0 -94 27.5t-32 77.5q0 13 3 28h87q-4 -19 -4 -29z" />
    <glyph glyph-name="ibreve" unicode="&#x12d;" horiz-adv-x="261" 
d="M42 0zM153 62q0 -32 30 -35q-6 -23 -26.5 -35t-47.5 -12q-31 0 -49 18t-18 49q0 29 19 127l68 336l113 12l-84 -418q-5 -27 -5 -42zM161 702q0 -25 13 -40t37 -15q32 0 56.5 26.5t30.5 57.5h81q-11 -61 -58.5 -97t-119.5 -36q-62 0 -93.5 27.5t-31.5 77.5q0 13 3 28h86
q-4 -19 -4 -29z" />
    <glyph glyph-name="Iogonek" unicode="&#x12e;" horiz-adv-x="290" 
d="M172 -200q0 -24 -24 -41t-61 -17q-53 0 -84 28.5t-31 79.5q0 47 26 85.5t67 64.5h-43l127 660h119l-127 -650l-2 -10h-14q-37 -26 -58.5 -62.5t-21.5 -74.5q0 -31 13.5 -45t45.5 -14q15 0 29.5 6t22.5 19q16 -12 16 -29z" />
    <glyph glyph-name="iogonek" unicode="&#x12f;" horiz-adv-x="261" 
d="M257 708q20 -16 20 -46q0 -31 -21.5 -47.5t-54.5 -16.5t-53 16t-20 46q0 31 21.5 47.5t54.5 16.5t53 -16zM158 104q-5 -27 -5 -42q0 -32 30 -35q-9 -32 -43 -42q-28 -26 -44.5 -58t-16.5 -64q0 -31 13.5 -45t45.5 -14q15 0 29.5 6t22.5 19q16 -12 16 -29q0 -24 -24 -41
t-61 -17q-53 0 -84 28.5t-31 79.5q0 40 20 75t52 60q-17 8 -26.5 24t-9.5 38q0 29 19 127l68 336l113 12z" />
    <glyph glyph-name="Idotaccent" unicode="&#x130;" horiz-adv-x="290" 
d="M284.5 837q20.5 -16 20.5 -46q0 -31 -22 -47.5t-55 -16.5t-53 16t-20 46q0 31 21.5 47.5t54.5 16.5t53.5 -16zM268 660l-129 -660h-117l127 660h119z" />
    <glyph glyph-name="dotlessi" unicode="&#x131;" horiz-adv-x="261" 
d="M153 62q0 -32 30 -35q-6 -23 -26.5 -35t-47.5 -12q-31 0 -49 18t-18 49q0 29 19 127l68 336l113 12l-84 -418q-5 -27 -5 -42z" />
    <glyph glyph-name="IJ" unicode="&#x132;" horiz-adv-x="580" 
d="M22 0zM268 660l-129 -660h-117l127 660h119zM443 71q-20 -107 -54 -169t-91 -62q-23 0 -41 10t-26 29q39 15 59 61.5t32 110.5l117 609h119z" />
    <glyph glyph-name="ij" unicode="&#x133;" horiz-adv-x="524" 
d="M42 0zM266 708q20 -16 20 -46q0 -31 -21.5 -47.5t-54.5 -16.5t-53 16t-20 46q0 31 21.5 47.5t54.5 16.5t53 -16zM158 104q-5 -27 -5 -42q0 -32 30 -35q-6 -23 -26.5 -35t-47.5 -12q-31 0 -49 18t-18 49q0 29 19 127l68 336l113 12zM533 708q20 -16 20 -46
q0 -31 -21.5 -47.5t-54.5 -16.5t-53 16t-20 46q0 31 21.5 47.5t54.5 16.5t53 -16zM411 31q-24 -121 -68.5 -176t-101.5 -55q-61 0 -70 58q38 1 63.5 25.5t43.5 75.5t36 140l83 411l113 12z" />
    <glyph glyph-name="Jcircumflex" unicode="&#x134;" horiz-adv-x="290" 
d="M0 0zM153 71q-20 -107 -54 -169t-91 -62q-23 0 -41 10t-26 29q39 15 59 61.5t32 110.5l117 609h119zM370 722l-40 -48l-105 72l-130 -72l-27 49l163 116h7z" />
    <glyph glyph-name="jcircumflex" unicode="&#x135;" horiz-adv-x="262" 
d="M0 0zM149 31q-24 -121 -68.5 -176t-101.5 -55q-61 0 -70 58q38 1 63.5 25.5t43.5 75.5t36 140l83 411l113 12zM371 628l-40 -48l-105 72l-130 -72l-27 49l163 116h7z" />
    <glyph glyph-name="Kcommaaccent" unicode="&#x136;" horiz-adv-x="559" 
d="M25 0zM142 0h-117q38 198 72.5 383t51.5 277h119zM414 429l-74 -93q50 -131 99.5 -207.5t86.5 -93.5q-7 -26 -27.5 -40t-50.5 -14q-46 0 -78.5 34t-63 103t-80.5 210l243 332h131q-22 -27 -186 -231zM284.5 -166.5q-18.5 -30.5 -48 -50.5t-59.5 -20q-17 0 -28 11
q27 37 40.5 66t13.5 63q0 19 -7 37q21 11 52 11q24 0 39.5 -14t15.5 -42q0 -31 -18.5 -61.5z" />
    <glyph glyph-name="kcommaaccent" unicode="&#x137;" horiz-adv-x="470" 
d="M4 0zM234 599q-8 -43 -19 -86.5t-21 -69.5q26 43 68 65t90 22q58 0 88 -31t30 -85q0 -71 -47 -116.5t-120 -71.5l46 -119q11 -29 30 -49t46 -23q-4 -25 -22 -40t-48 -15q-39 0 -65.5 26.5t-47.5 80t-50 154.5q70 17 118.5 55t48.5 94q0 31 -16 47t-46 16q-54 0 -82 -48
t-44 -127l-54 -278l-113 -12l139 712l113 12zM251.5 -166.5q-18.5 -30.5 -48 -50.5t-59.5 -20q-17 0 -28 11q27 37 40.5 66t13.5 63q0 19 -7 37q21 11 52 11q24 0 39.5 -14t15.5 -42q0 -31 -18.5 -61.5z" />
    <glyph glyph-name="kgreenlandic" unicode="&#x138;" horiz-adv-x="491" 
d="M208 431q29 52 72 75.5t93 23.5q58 0 88 -31t30 -85q0 -71 -47.5 -116.5t-119.5 -71.5l46 -119q11 -29 30 -49t46 -23q-4 -25 -22 -40t-48 -15q-39 0 -65.5 26.5t-47.5 80t-50 154.5q69 18 118 55.5t49 93.5q0 31 -16 47t-46 16q-54 0 -82 -48t-44 -127l-54 -278
l-113 -12l102 522l94 11z" />
    <glyph glyph-name="Lacute" unicode="&#x139;" horiz-adv-x="376" 
d="M22 0zM149 660h119l-112 -571h124q20 0 43 3t36 9q6 -8 10 -20.5t4 -24.5q0 -33 -28.5 -44.5t-73.5 -11.5h-249zM118 756l234 89q22 -15 22 -45q0 -45 -37 -61.5t-96 -19.5l-115 -6z" />
    <glyph glyph-name="lacute" unicode="&#x13a;" horiz-adv-x="241" 
d="M21 0zM137 104q-5 -27 -5 -42q0 -32 30 -35q-6 -23 -26.5 -35t-47.5 -12q-31 0 -49 18t-18 49q0 29 19 127l106 526l113 12zM131 773l234 89q22 -15 22 -45q0 -45 -37 -61.5t-96 -19.5l-115 -6z" />
    <glyph glyph-name="Lcommaaccent" unicode="&#x13b;" horiz-adv-x="376" 
d="M22 0zM149 660h119l-112 -571h124q20 0 43 3t36 9q6 -8 10 -20.5t4 -24.5q0 -33 -28.5 -44.5t-73.5 -11.5h-249zM214.5 -166.5q-18.5 -30.5 -48 -50.5t-59.5 -20q-17 0 -28 11q27 37 40.5 66t13.5 63q0 19 -7 37q21 11 52 11q24 0 39.5 -14t15.5 -42q0 -31 -18.5 -61.5z
" />
    <glyph glyph-name="lcommaaccent" unicode="&#x13c;" horiz-adv-x="241" 
d="M1 0zM137 104q-5 -27 -5 -42q0 -32 30 -35q-6 -23 -26.5 -35t-47.5 -12q-31 0 -49 18t-18 49q0 29 19 127l106 526l113 12zM136.5 -166.5q-18.5 -30.5 -48 -50.5t-59.5 -20q-17 0 -28 11q27 37 40.5 66t13.5 63q0 19 -7 37q21 11 52 11q24 0 39.5 -14t15.5 -42
q0 -31 -18.5 -61.5z" />
    <glyph glyph-name="Lcaron" unicode="&#x13d;" horiz-adv-x="376" 
d="M22 0zM149 660h119l-112 -571h124q20 0 43 3t36 9q6 -8 10 -20.5t4 -24.5q0 -33 -28.5 -44.5t-73.5 -11.5h-249zM379 714.5q14 3.5 27 3.5q24 0 38.5 -15t14.5 -45q0 -33 -17.5 -62t-44.5 -46.5t-54 -17.5q-15 0 -31 6q27 33 40 62.5t13 65.5q0 24 -8 40q8 5 22 8.5z" />
    <glyph glyph-name="lcaron" unicode="&#x13e;" horiz-adv-x="241" 
d="M21 0zM137 104q-5 -27 -5 -42q0 -32 30 -35q-6 -23 -26.5 -35t-47.5 -12q-31 0 -49 18t-18 49q0 29 19 127l106 526l113 12zM313 716.5q14 3.5 27 3.5q24 0 38.5 -15t14.5 -45q0 -33 -17.5 -62t-44.5 -46.5t-54 -17.5q-15 0 -31 6q27 33 40 62.5t13 65.5q0 24 -8 40
q8 5 22 8.5z" />
    <glyph glyph-name="Ldot" unicode="&#x13f;" horiz-adv-x="376" 
d="M149 660h119l-112 -571h124q20 0 43 3t36 9q6 -8 10 -20.5t4 -24.5q0 -33 -28.5 -44.5t-73.5 -11.5h-249zM361.5 394q13.5 -12 13.5 -32q0 -32 -23 -52t-51 -20q-21 0 -34 11.5t-13 32.5q0 32 22.5 52t50.5 20q21 0 34.5 -12z" />
    <glyph glyph-name="ldot" unicode="&#x140;" horiz-adv-x="270" 
d="M137 104q-5 -27 -5 -42q0 -32 30 -35q-6 -23 -26.5 -35t-47.5 -12q-31 0 -49 18t-18 49q0 29 19 127l106 526l113 12zM308.5 376q13.5 -12 13.5 -32q0 -32 -23 -52t-51 -20q-21 0 -34 11.5t-13 32.5q0 32 22.5 52t50.5 20q21 0 34.5 -12z" />
    <glyph glyph-name="Lslash" unicode="&#x141;" horiz-adv-x="398" 
d="M345 92q23 3 36 9q6 -8 10 -20.5t4 -24.5q0 -33 -28.5 -44.5t-73.5 -11.5h-249l49 257l-88 -32q-9 10 -13.5 18.5t-4.5 20.5q0 36 38 51l86 32l60 313h119l-52 -267l107 40q16 -15 16 -42q0 -21 -14.5 -34.5t-45.5 -24.5l-81 -29l-42 -214h124q20 0 43 3z" />
    <glyph glyph-name="lslash" unicode="&#x142;" horiz-adv-x="306" 
d="M371 410q0 -21 -14.5 -34.5t-45.5 -24.5l-81 -30l-44 -217q-5 -27 -5 -42q0 -32 30 -35q-6 -23 -26.5 -35t-47.5 -12q-31 0 -49 18t-18 49q0 30 19 125l21 106l-94 -34q-9 10 -13.5 18.5t-4.5 20.5q0 36 38 51l92 34l67 332l113 12l-60 -300l107 40q16 -15 16 -42z" />
    <glyph glyph-name="Nacute" unicode="&#x143;" horiz-adv-x="649" 
d="M27 0zM125 0h-98l122 660h144l144 -516l86 516h97l-120 -660h-131l-155 533zM319 756l234 89q22 -15 22 -45q0 -45 -37 -61.5t-96 -19.5l-115 -6z" />
    <glyph glyph-name="nacute" unicode="&#x144;" horiz-adv-x="540" 
d="M25 0zM279 506q45 24 100 24q63 0 92.5 -32.5t29.5 -95.5q0 -40 -9 -86.5t-28 -121.5q-10 -39 -17.5 -74.5t-7.5 -54.5q0 -17 6.5 -26.5t23.5 -11.5q-6 -23 -26.5 -35t-47.5 -12q-67 0 -67 75q0 30 8.5 72t24.5 109q15 59 22 93t7 56q0 33 -17 50.5t-47 17.5
q-53 0 -86.5 -51.5t-47.5 -123.5l-54 -278l-113 -12l102 522l94 12l-13 -90q26 50 71 74zM460 769q17 -6 25 -22t8 -34q0 -37 -30.5 -56.5t-85.5 -34.5l-111 -30l-17 41z" />
    <glyph glyph-name="Ncommaaccent" unicode="&#x145;" horiz-adv-x="649" 
d="M27 0zM125 0h-98l122 660h144l144 -516l86 516h97l-120 -660h-131l-155 533zM321.5 -166.5q-18.5 -30.5 -48 -50.5t-59.5 -20q-17 0 -28 11q27 37 40.5 66t13.5 63q0 19 -7 37q21 11 52 11q24 0 39.5 -14t15.5 -42q0 -31 -18.5 -61.5z" />
    <glyph glyph-name="ncommaaccent" unicode="&#x146;" horiz-adv-x="540" 
d="M25 0zM279 506q45 24 100 24q63 0 92.5 -32.5t29.5 -95.5q0 -40 -9 -86.5t-28 -121.5q-10 -39 -17.5 -74.5t-7.5 -54.5q0 -17 6.5 -26.5t23.5 -11.5q-6 -23 -26.5 -35t-47.5 -12q-67 0 -67 75q0 30 8.5 72t24.5 109q15 59 22 93t7 56q0 33 -17 50.5t-47 17.5
q-53 0 -86.5 -51.5t-47.5 -123.5l-54 -278l-113 -12l102 522l94 12l-13 -90q26 50 71 74zM262.5 -166.5q-18.5 -30.5 -48 -50.5t-59.5 -20q-17 0 -28 11q27 37 40.5 66t13.5 63q0 19 -7 37q21 11 52 11q24 0 39.5 -14t15.5 -42q0 -31 -18.5 -61.5z" />
    <glyph glyph-name="Ncaron" unicode="&#x147;" horiz-adv-x="649" 
d="M27 0zM125 0h-98l122 660h144l144 -516l86 516h97l-120 -660h-131l-155 533zM266 799l40 38l104 -52l130 52l27 -39l-163 -106h-6z" />
    <glyph glyph-name="ncaron" unicode="&#x148;" horiz-adv-x="540" 
d="M25 0zM279 506q45 24 100 24q63 0 92.5 -32.5t29.5 -95.5q0 -40 -9 -86.5t-28 -121.5q-10 -39 -17.5 -74.5t-7.5 -54.5q0 -17 6.5 -26.5t23.5 -11.5q-6 -23 -26.5 -35t-47.5 -12q-67 0 -67 75q0 30 8.5 72t24.5 109q15 59 22 93t7 56q0 33 -17 50.5t-47 17.5
q-53 0 -86.5 -51.5t-47.5 -123.5l-54 -278l-113 -12l102 522l94 12l-13 -90q26 50 71 74zM217 708l40 48l104 -62l130 62l27 -49l-163 -116h-6z" />
    <glyph glyph-name="napostrophe" unicode="&#x149;" horiz-adv-x="540" 
d="M144 682.5q16 -16.5 16 -45.5q0 -61 -35 -98t-93 -37q-15 0 -33 6q30 26 43.5 59.5t13.5 80.5q0 26 -8 39q8 5 23.5 8.5t30.5 3.5q26 0 42 -16.5zM471.5 497.5q29.5 -32.5 29.5 -95.5q0 -40 -9 -86.5t-28 -121.5q-10 -39 -17.5 -74.5t-7.5 -54.5q0 -17 6.5 -26.5
t23.5 -11.5q-6 -23 -26.5 -35t-47.5 -12q-67 0 -67 75q0 30 8.5 72t24.5 109q15 59 22 93t7 56q0 33 -17 50.5t-47 17.5q-53 0 -86.5 -51.5t-47.5 -123.5l-54 -278l-113 -12l102 522l94 12l-13 -90q26 50 71 74t100 24q63 0 92.5 -32.5z" />
    <glyph glyph-name="Eng" unicode="&#x14a;" horiz-adv-x="648" 
d="M125 0h-98l122 660h144l144 -516l86 516h97l-109 -597q-19 -104 -49.5 -163.5t-82.5 -59.5q-20 0 -37 8.5t-24 23.5q60 22 89 128h-38l-155 533z" />
    <glyph glyph-name="eng" unicode="&#x14b;" horiz-adv-x="541" 
d="M221 522l-13 -90q26 50 71 74t100 24q63 0 92.5 -32.5t29.5 -95.5q0 -22 -5 -52t-8.5 -48.5t-5.5 -26.5q-4 -16 -10 -46l-39 -198q-24 -121 -68.5 -176t-101.5 -55q-28 0 -46 14.5t-22 43.5q38 1 63.5 25.5t43.5 75.5t36 140l19 95q15 73 24 123t9 68q0 33 -17 50.5
t-47 17.5q-53 0 -86.5 -51.5t-47.5 -123.5l-54 -278l-113 -12l102 522z" />
    <glyph glyph-name="Omacron" unicode="&#x14c;" horiz-adv-x="591" 
d="M525 792q0 -26 -17.5 -42t-50.5 -16h-211q-2 8 -2 24q1 27 17.5 42.5t43.5 15.5h217q3 -10 3 -24zM518.5 621.5q46.5 -58.5 46.5 -174.5q0 -109 -36.5 -216.5t-114.5 -179t-194 -71.5q-101 0 -147.5 58.5t-46.5 175.5q0 110 37 217t115 178t193 71q101 0 147.5 -58.5z
M240 552.5q-38 -57.5 -60 -151.5q-12 -50 -20.5 -111t-8.5 -105q0 -134 95 -134q70 0 107 59.5t58 149.5q12 50 20.5 111t8.5 105q0 134 -95 134q-67 0 -105 -57.5z" />
    <glyph glyph-name="omacron" unicode="&#x14d;" horiz-adv-x="509" 
d="M27 0zM447 479q35 -51 35 -136q0 -96 -31 -178.5t-96 -133.5t-161 -51q-97 0 -132 51t-35 136q0 96 31 178.5t95.5 133.5t160.5 51q98 0 133 -51zM211 426q-29 -44 -46 -117q-10 -39 -16.5 -85.5t-6.5 -79.5q0 -104 74 -104q52 0 81.5 44t46.5 117q10 39 16.5 85.5
t6.5 79.5q0 104 -75 104q-52 0 -81 -44zM500 672q0 -27 -17.5 -42.5t-51.5 -15.5h-211q-2 8 -2 24q1 27 17.5 42.5t43.5 15.5h218q3 -10 3 -24z" />
    <glyph glyph-name="Obreve" unicode="&#x14e;" horiz-adv-x="591" 
d="M26 0zM518.5 621.5q46.5 -58.5 46.5 -174.5q0 -109 -36.5 -216.5t-114.5 -179t-194 -71.5q-101 0 -147.5 58.5t-46.5 175.5q0 110 37 217t115 178t193 71q101 0 147.5 -58.5zM240 552.5q-38 -57.5 -60 -151.5q-12 -50 -20.5 -111t-8.5 -105q0 -134 95 -134q70 0 107 59.5
t58 149.5q12 50 20.5 111t8.5 105q0 134 -95 134q-67 0 -105 -57.5zM342 803q0 -25 13 -40t37 -15q32 0 56.5 26.5t30.5 57.5h80q-11 -61 -58.5 -97t-118.5 -36q-62 0 -94 27.5t-32 77.5q0 13 3 28h87q-4 -19 -4 -29z" />
    <glyph glyph-name="obreve" unicode="&#x14f;" horiz-adv-x="509" 
d="M27 0zM447 479q35 -51 35 -136q0 -96 -31 -178.5t-96 -133.5t-161 -51q-97 0 -132 51t-35 136q0 96 31 178.5t95.5 133.5t160.5 51q98 0 133 -51zM211 426q-29 -44 -46 -117q-10 -39 -16.5 -85.5t-6.5 -79.5q0 -104 74 -104q52 0 81.5 44t46.5 117q10 39 16.5 85.5
t6.5 79.5q0 104 -75 104q-52 0 -81 -44zM296 702q0 -25 13 -40t37 -15q32 0 56.5 26.5t30.5 57.5h81q-11 -61 -58.5 -97t-119.5 -36q-62 0 -93.5 27.5t-31.5 77.5q0 13 3 28h86q-4 -19 -4 -29z" />
    <glyph glyph-name="Ohungarumlaut" unicode="&#x150;" horiz-adv-x="591" 
d="M26 0zM518.5 621.5q46.5 -58.5 46.5 -174.5q0 -109 -36.5 -216.5t-114.5 -179t-194 -71.5q-101 0 -147.5 58.5t-46.5 175.5q0 110 37 217t115 178t193 71q101 0 147.5 -58.5zM240 552.5q-38 -57.5 -60 -151.5q-12 -50 -20.5 -111t-8.5 -105q0 -134 95 -134q70 0 107 59.5
t58 149.5q12 50 20.5 111t8.5 105q0 134 -95 134q-67 0 -105 -57.5zM407 847q11 -8 17 -21t6 -28q0 -30 -20 -48t-63 -27l-76 -16l-22 33zM590 847q24 -16 24 -48q0 -31 -19.5 -49t-62.5 -27l-78 -16l-21 33z" />
    <glyph glyph-name="ohungarumlaut" unicode="&#x151;" horiz-adv-x="509" 
d="M27 0zM447 479q35 -51 35 -136q0 -96 -31 -178.5t-96 -133.5t-161 -51q-97 0 -132 51t-35 136q0 96 31 178.5t95.5 133.5t160.5 51q98 0 133 -51zM211 426q-29 -44 -46 -117q-10 -39 -16.5 -85.5t-6.5 -79.5q0 -104 74 -104q52 0 81.5 44t46.5 117q10 39 16.5 85.5
t6.5 79.5q0 104 -75 104q-52 0 -81 -44zM330 770q23 -6 37.5 -27t14.5 -47q0 -29 -18 -50t-50 -42l-80 -50l-39 29zM520 770q23 -6 38 -27t15 -47q0 -29 -18 -50t-51 -42l-80 -50l-39 29z" />
    <glyph glyph-name="OE" unicode="&#x152;" horiz-adv-x="791" 
d="M707 314.5q-26 -19.5 -71 -19.5q-24 0 -49.5 5.5t-44.5 13.5q-12 -118 -12 -147q0 -56 25 -78t77 -22q46 0 84 14q6 -12 6 -29q0 -38 -42 -55t-95 -17q-59 0 -100 21.5t-59 61.5q-44 -44 -91.5 -63.5t-108.5 -19.5q-107 0 -154 57t-47 174q0 113 38.5 221.5t115 178
t183.5 69.5q60 0 105 -20h343q0 -47 -29.5 -71t-78.5 -24q-30 0 -68.5 8t-66.5 19l-19 -215h185q0 -43 -26 -62.5zM350 111q38 60 59 150q12 50 20.5 109t8.5 102q0 137 -93 137q-68 0 -106 -60t-59 -150q-12 -50 -20.5 -109t-8.5 -102q0 -137 94 -137q67 0 105 60z" />
    <glyph glyph-name="oe" unicode="&#x153;" horiz-adv-x="759" 
d="M773 417q0 -57 -33.5 -97.5t-91 -61.5t-127.5 -21q-29 0 -55 2q-3 -33 -3 -60q0 -58 21 -87t72 -29q43 0 77 21t53 58q12 -3 18 -14t6 -26q0 -30 -24 -58t-66.5 -46t-94.5 -18q-48 0 -87.5 16.5t-61.5 51.5q-37 -35 -79.5 -51.5t-97.5 -16.5q-95 0 -133.5 46.5
t-38.5 142.5q0 94 31 176.5t95 133.5t157 51q53 0 91.5 -17.5t55.5 -49.5q70 67 175 67q141 0 141 -113zM523 415.5q-37 -57.5 -50 -127.5q77 0 134 32t57 95q0 29 -13.5 43.5t-38.5 14.5q-52 0 -89 -57.5zM297.5 84q29.5 44 46.5 117q10 39 16.5 85.5t6.5 79.5
q0 104 -75 104q-52 0 -81 -44t-46 -117q-10 -39 -16.5 -85.5t-6.5 -79.5q0 -104 74 -104q52 0 81.5 44z" />
    <glyph glyph-name="Racute" unicode="&#x154;" horiz-adv-x="566" 
d="M22 0zM318 669q110 0 165.5 -35.5t55.5 -131.5q0 -88 -45.5 -148.5t-122.5 -73.5q45 -106 88.5 -168t76.5 -77q-7 -28 -28.5 -41t-49.5 -13q-45 0 -78 33.5t-64.5 104.5t-78.5 207q12 -1 25 -1q75 0 113.5 42.5t38.5 119.5q0 59 -24.5 87.5t-77.5 28.5q-27 0 -57 -7
l-116 -596h-117l127 660q94 9 169 9zM266 756l234 89q22 -15 22 -45q0 -45 -37 -61.5t-96 -19.5l-115 -6z" />
    <glyph glyph-name="racute" unicode="&#x155;" horiz-adv-x="422" 
d="M25 0zM264.5 503q38.5 27 84.5 27t70 -28t24 -72q0 -50 -27.5 -85.5t-70.5 -35.5q-32 0 -44 18q12 17 20.5 41t8.5 44q0 41 -36 41q-72 0 -104 -175l-49 -278l-116 -12l100 522l94 12l-13 -90q20 44 58.5 71zM309 769q17 -6 25 -22t8 -34q0 -37 -30.5 -56.5t-85.5 -34.5
l-111 -30l-17 41z" />
    <glyph glyph-name="Rcommaaccent" unicode="&#x156;" horiz-adv-x="566" 
d="M22 0zM318 669q110 0 165.5 -35.5t55.5 -131.5q0 -88 -45.5 -148.5t-122.5 -73.5q45 -106 88.5 -168t76.5 -77q-7 -28 -28.5 -41t-49.5 -13q-45 0 -78 33.5t-64.5 104.5t-78.5 207q12 -1 25 -1q75 0 113.5 42.5t38.5 119.5q0 59 -24.5 87.5t-77.5 28.5q-27 0 -57 -7
l-116 -596h-117l127 660q94 9 169 9zM287.5 -166.5q-18.5 -30.5 -48 -50.5t-59.5 -20q-17 0 -28 11q27 37 40.5 66t13.5 63q0 19 -7 37q21 11 52 11q24 0 39.5 -14t15.5 -42q0 -31 -18.5 -61.5z" />
    <glyph glyph-name="rcommaaccent" unicode="&#x157;" horiz-adv-x="422" 
d="M0 0zM264.5 503q38.5 27 84.5 27t70 -28t24 -72q0 -50 -27.5 -85.5t-70.5 -35.5q-32 0 -44 18q12 17 20.5 41t8.5 44q0 41 -36 41q-72 0 -104 -175l-49 -278l-116 -12l100 522l94 12l-13 -90q20 44 58.5 71zM124.5 -166.5q-18.5 -30.5 -48 -50.5t-59.5 -20q-17 0 -28 11
q27 37 40.5 66t13.5 63q0 19 -7 37q21 11 52 11q24 0 39.5 -14t15.5 -42q0 -31 -18.5 -61.5z" />
    <glyph glyph-name="Rcaron" unicode="&#x158;" horiz-adv-x="566" 
d="M22 0zM318 669q110 0 165.5 -35.5t55.5 -131.5q0 -88 -45.5 -148.5t-122.5 -73.5q45 -106 88.5 -168t76.5 -77q-7 -28 -28.5 -41t-49.5 -13q-45 0 -78 33.5t-64.5 104.5t-78.5 207q12 -1 25 -1q75 0 113.5 42.5t38.5 119.5q0 59 -24.5 87.5t-77.5 28.5q-27 0 -57 -7
l-116 -596h-117l127 660q94 9 169 9zM213 799l40 38l104 -52l130 52l27 -39l-163 -106h-6z" />
    <glyph glyph-name="rcaron" unicode="&#x159;" horiz-adv-x="422" 
d="M25 0zM264.5 503q38.5 27 84.5 27t70 -28t24 -72q0 -50 -27.5 -85.5t-70.5 -35.5q-32 0 -44 18q12 17 20.5 41t8.5 44q0 41 -36 41q-72 0 -104 -175l-49 -278l-116 -12l100 522l94 12l-13 -90q20 44 58.5 71zM66 708l40 48l104 -62l130 62l27 -49l-163 -116h-6z" />
    <glyph glyph-name="Sacute" unicode="&#x15a;" horiz-adv-x="505" 
d="M10 0zM440 651q43 -29 43 -89q0 -49 -27.5 -75.5t-63.5 -26.5q-29 0 -48 13q7 16 11 37t4 37q0 32 -18.5 51t-51.5 19q-40 0 -65.5 -27t-25.5 -68q0 -45 28.5 -77.5t84.5 -73.5q42 -31 68 -55.5t44.5 -59t18.5 -78.5q0 -60 -34 -105.5t-90.5 -70t-121.5 -24.5
q-78 0 -132 34t-54 96q0 43 26 66.5t63 23.5q30 0 50 -13q-7 -16 -11 -37t-4 -36q0 -33 23 -51t59 -18q46 0 79 29t33 75q0 29 -14.5 54t-35.5 43.5t-59 47.5q-45 35 -71 58.5t-44.5 58.5t-18.5 80q0 58 31.5 101.5t86 66.5t121.5 23q73 0 116 -29zM261 756l234 89
q22 -15 22 -45q0 -45 -37 -61.5t-96 -19.5l-115 -6z" />
    <glyph glyph-name="sacute" unicode="&#x15b;" horiz-adv-x="416" 
d="M0 0zM238.5 165q-21.5 24 -66.5 55q-53 36 -82 69t-29 83q0 48 30 84t79.5 55t104.5 19q60 0 101 -22.5t41 -72.5q0 -38 -25 -60t-62 -22q-28 0 -40 11q14 35 14 59q0 56 -57 56q-35 0 -55.5 -19.5t-20.5 -52.5q0 -34 21.5 -57.5t65.5 -54.5q36 -25 58.5 -44.5t38 -46.5
t15.5 -62q0 -49 -30 -86t-79.5 -57.5t-104.5 -20.5q-65 0 -114 27t-49 76q0 38 28.5 56.5t64.5 18.5q28 0 43 -12q-14 -30 -14 -59q0 -56 59 -56q37 0 61.5 22t24.5 57q0 33 -21.5 57zM391 769q17 -6 25 -22t8 -34q0 -37 -30.5 -56.5t-85.5 -34.5l-111 -30l-17 41z" />
    <glyph glyph-name="Scircumflex" unicode="&#x15c;" horiz-adv-x="505" 
d="M10 0zM440 651q43 -29 43 -89q0 -49 -27.5 -75.5t-63.5 -26.5q-29 0 -48 13q7 16 11 37t4 37q0 32 -18.5 51t-51.5 19q-40 0 -65.5 -27t-25.5 -68q0 -45 28.5 -77.5t84.5 -73.5q42 -31 68 -55.5t44.5 -59t18.5 -78.5q0 -60 -34 -105.5t-90.5 -70t-121.5 -24.5
q-78 0 -132 34t-54 96q0 43 26 66.5t63 23.5q30 0 50 -13q-7 -16 -11 -37t-4 -36q0 -33 23 -51t59 -18q46 0 79 29t33 75q0 29 -14.5 54t-35.5 43.5t-59 47.5q-45 35 -71 58.5t-44.5 58.5t-18.5 80q0 58 31.5 101.5t86 66.5t121.5 23q73 0 116 -29zM483 722l-40 -48l-105 72
l-130 -72l-27 49l163 116h7z" />
    <glyph glyph-name="scircumflex" unicode="&#x15d;" horiz-adv-x="416" 
d="M0 0zM238.5 165q-21.5 24 -66.5 55q-53 36 -82 69t-29 83q0 48 30 84t79.5 55t104.5 19q60 0 101 -22.5t41 -72.5q0 -38 -25 -60t-62 -22q-28 0 -40 11q14 35 14 59q0 56 -57 56q-35 0 -55.5 -19.5t-20.5 -52.5q0 -34 21.5 -57.5t65.5 -54.5q36 -25 58.5 -44.5t38 -46.5
t15.5 -62q0 -49 -30 -86t-79.5 -57.5t-104.5 -20.5q-65 0 -114 27t-49 76q0 38 28.5 56.5t64.5 18.5q28 0 43 -12q-14 -30 -14 -59q0 -56 59 -56q37 0 61.5 22t24.5 57q0 33 -21.5 57zM441 628l-40 -48l-105 72l-130 -72l-27 49l163 116h7z" />
    <glyph glyph-name="Scedilla" unicode="&#x15e;" horiz-adv-x="505" 
d="M344 473q7 16 11 37t4 37q0 32 -18.5 51t-51.5 19q-40 0 -65.5 -27t-25.5 -68q0 -45 28.5 -77.5t84.5 -73.5q42 -31 68 -55.5t44.5 -59t18.5 -78.5q0 -55 -28.5 -97.5t-77 -68.5t-106.5 -32l-14 -46q20 2 40 2q44 0 71 -18.5t27 -57.5q0 -49 -43 -81t-107 -32
q-39 0 -62.5 12.5t-23.5 35.5q0 21 16 33q17 -28 63 -28q30 0 52 11t22 37q0 41 -79 41q-11 0 -37 -2l27 91q-73 3 -122.5 37t-49.5 93q0 43 26 66.5t63 23.5q30 0 50 -13q-7 -16 -11 -37t-4 -36q0 -33 23 -51t59 -18q46 0 79 29t33 75q0 29 -14.5 54t-35.5 43.5t-59 47.5
q-45 35 -71 58.5t-44.5 58.5t-18.5 80q0 58 31.5 101.5t86 66.5t121.5 23q73 0 116 -29t43 -89q0 -49 -27.5 -75.5t-63.5 -26.5q-29 0 -48 13z" />
    <glyph glyph-name="scedilla" unicode="&#x15f;" horiz-adv-x="416" 
d="M290 364q14 35 14 59q0 56 -57 56q-35 0 -55.5 -19.5t-20.5 -52.5q0 -34 21.5 -57.5t65.5 -54.5q36 -25 58.5 -44.5t38 -46.5t15.5 -62q0 -47 -28 -83.5t-74 -57t-99 -23.5l-13 -44q20 2 40 2q44 0 71 -18.5t27 -57.5q0 -49 -43 -81t-107 -32q-39 0 -62.5 12.5
t-23.5 35.5q0 21 16 33q17 -28 63 -28q30 0 52 11t22 37q0 41 -79 41q-11 0 -37 -2l28 93q-55 7 -92.5 33t-37.5 68q0 38 28.5 56.5t64.5 18.5q28 0 43 -12q-14 -30 -14 -59q0 -56 59 -56q37 0 61.5 22t24.5 57q0 33 -21.5 57t-66.5 55q-53 36 -82 69t-29 83q0 48 30 84
t79.5 55t104.5 19q60 0 101 -22.5t41 -72.5q0 -38 -25 -60t-62 -22q-28 0 -40 11z" />
    <glyph glyph-name="Scaron" unicode="&#x160;" horiz-adv-x="505" 
d="M10 0zM440 651q43 -29 43 -89q0 -49 -27.5 -75.5t-63.5 -26.5q-29 0 -48 13q7 16 11 37t4 37q0 32 -18.5 51t-51.5 19q-40 0 -65.5 -27t-25.5 -68q0 -45 28.5 -77.5t84.5 -73.5q42 -31 68 -55.5t44.5 -59t18.5 -78.5q0 -60 -34 -105.5t-90.5 -70t-121.5 -24.5
q-78 0 -132 34t-54 96q0 43 26 66.5t63 23.5q30 0 50 -13q-7 -16 -11 -37t-4 -36q0 -33 23 -51t59 -18q46 0 79 29t33 75q0 29 -14.5 54t-35.5 43.5t-59 47.5q-45 35 -71 58.5t-44.5 58.5t-18.5 80q0 58 31.5 101.5t86 66.5t121.5 23q73 0 116 -29zM208 799l40 38l104 -52
l130 52l27 -39l-163 -106h-6z" />
    <glyph glyph-name="scaron" unicode="&#x161;" horiz-adv-x="416" 
d="M0 0zM238.5 165q-21.5 24 -66.5 55q-53 36 -82 69t-29 83q0 48 30 84t79.5 55t104.5 19q60 0 101 -22.5t41 -72.5q0 -38 -25 -60t-62 -22q-28 0 -40 11q14 35 14 59q0 56 -57 56q-35 0 -55.5 -19.5t-20.5 -52.5q0 -34 21.5 -57.5t65.5 -54.5q36 -25 58.5 -44.5t38 -46.5
t15.5 -62q0 -49 -30 -86t-79.5 -57.5t-104.5 -20.5q-65 0 -114 27t-49 76q0 38 28.5 56.5t64.5 18.5q28 0 43 -12q-14 -30 -14 -59q0 -56 59 -56q37 0 61.5 22t24.5 57q0 33 -21.5 57zM148 708l40 48l104 -62l130 62l27 -49l-163 -116h-6z" />
    <glyph glyph-name="uni0162" unicode="&#x162;" horiz-adv-x="403" 
d="M485 651.5q4 -12.5 4 -24.5q0 -33 -28 -44.5t-74 -11.5h-68l-95 -476q-5 -27 -5 -46q0 -25 12 -45q-22 -17 -48 -22l-14 -48q20 2 40 2q44 0 71 -18.5t27 -57.5q0 -49 -43 -81t-107 -32q-39 0 -62.5 12.5t-23.5 35.5q0 21 16 33q17 -28 63 -28q30 0 52 11t22 37
q0 41 -79 41q-11 0 -37 -2l29 97q-34 10 -34 61q0 31 6 61l92 465h-64q-20 0 -43 -3t-36 -9q-6 8 -10 20.5t-4 24.5q0 33 28.5 44.5t73.5 11.5h250q20 0 43 3t36 9q6 -8 10 -20.5z" />
    <glyph glyph-name="uni0163" unicode="&#x163;" horiz-adv-x="299" 
d="M176 104q-5 -27 -5 -42q0 -32 30 -35q-6 -23 -26.5 -35t-46.5 -12l-14 -46q20 2 40 2q44 0 71 -18.5t27 -57.5q0 -49 -43 -81t-107 -32q-39 0 -62.5 12.5t-23.5 35.5q0 21 16 33q17 -28 63 -28q30 0 52 11t22 37q0 41 -79 41q-11 0 -37 -2l31 105q-24 18 -24 57
q0 45 39 225l10 48l28 143h-71l4 30q49 18 95 48t81 66h32l-20 -99h78l-9 -45h-79z" />
    <glyph glyph-name="Tcaron" unicode="&#x164;" horiz-adv-x="403" 
d="M44 0zM439 663q23 3 36 9q6 -8 10 -20.5t4 -24.5q0 -33 -28 -44.5t-74 -11.5h-68l-95 -476q-5 -27 -5 -46q0 -25 12 -45q-30 -24 -68 -24q-33 0 -46.5 17t-13.5 48t6 61l92 465h-64q-20 0 -43 -3t-36 -9q-6 8 -10 20.5t-4 24.5q0 33 28.5 44.5t73.5 11.5h250q20 0 43 3z
M152 799l40 38l104 -52l130 52l27 -39l-163 -106h-6z" />
    <glyph glyph-name="tcaron" unicode="&#x165;" horiz-adv-x="299" 
d="M352 716.5q14 3.5 27 3.5q24 0 38.5 -15t14.5 -45q0 -33 -17.5 -62t-44.5 -46.5t-54 -17.5q-15 0 -31 6q27 33 40 62.5t13 65.5q0 21 -8 40q8 5 22 8.5zM258 510h78l-9 -45h-79l-72 -361q-5 -27 -5 -42q0 -32 30 -35q-6 -23 -27 -35t-47 -12q-32 0 -49.5 18t-17.5 51
q0 45 39 225l10 48l28 143h-71l4 30q49 18 95 48t81 66h32z" />
    <glyph glyph-name="Tbar" unicode="&#x166;" horiz-adv-x="406" 
d="M485 651.5q4 -12.5 4 -24.5q0 -33 -28 -44.5t-74 -11.5h-68l-38 -192h155q3 -10 3 -24q0 -48 -63 -48h-110l-42 -212q-5 -27 -5 -46q0 -25 12 -45q-30 -24 -68 -24q-33 0 -46.5 17t-13.5 48q0 32 6 60l40 202h-149q-2 8 -2 24q2 48 56 48h109l38 192h-64q-20 0 -43 -3
t-36 -9q-6 8 -10 20.5t-4 24.5q0 33 28.5 44.5t73.5 11.5h250q20 0 43 3t36 9q6 -8 10 -20.5z" />
    <glyph glyph-name="tbar" unicode="&#x167;" horiz-adv-x="299" 
d="M336 306q0 -48 -57 -48h-72l-31 -154q-5 -27 -5 -42q0 -32 30 -35q-6 -23 -27 -35t-47 -12q-32 0 -49.5 18t-17.5 51q0 47 36 209h-84q-1 8 -1 24q2 48 50 48h50l26 135h-71l4 30q49 18 95 48t81 66h32l-20 -99h78l-9 -45h-79l-27 -135h112q3 -10 3 -24z" />
    <glyph glyph-name="Utilde" unicode="&#x168;" horiz-adv-x="570" 
d="M42 0zM495 270q-28 -148 -90.5 -219t-179.5 -71q-89 0 -136 40t-47 118q0 44 14 114l79 408h118l-79 -419q-13 -70 -13 -98q0 -41 23 -64t65 -23q67 0 98 54.5t48 150.5l70 399h105zM559 785q0 -29 -21 -44.5t-56 -15.5q-20 0 -84 8q-62 8 -82 8q-37 0 -56 -15
q-17 25 -17 46q0 26 21 40t59 14q23 0 87 -8q62 -8 83 -8q38 0 50 16q16 -19 16 -41z" />
    <glyph glyph-name="utilde" unicode="&#x169;" horiz-adv-x="528" 
d="M38 0zM424 104q-5 -30 -5 -42q0 -32 30 -35q-6 -23 -26.5 -35t-46.5 -12q-28 0 -46.5 15t-21.5 42q-20 -29 -57 -43t-79 -14q-70 0 -102 38.5t-32 104.5q0 34 7.5 78t22.5 109l46 200l109 12l-48 -213q-10 -44 -19 -96t-9 -84q0 -38 15.5 -63.5t50.5 -25.5q49 0 78 47
t42 114l60 309l112 12zM499 679q0 -29 -21 -44.5t-56 -15.5q-19 0 -83 8q-62 8 -83 8q-37 0 -56 -15q-17 25 -17 46q0 26 21 40t60 14q24 0 86 -8t83 -8q38 0 50 16q16 -19 16 -41z" />
    <glyph glyph-name="Umacron" unicode="&#x16a;" horiz-adv-x="570" 
d="M533 792q0 -26 -17.5 -42t-50.5 -16h-211q-2 8 -2 24q1 27 17.5 42.5t43.5 15.5h217q3 -10 3 -24zM495 270q-28 -148 -90.5 -219t-179.5 -71q-89 0 -136 40t-47 118q0 44 14 114l79 408h118l-79 -419q-13 -70 -13 -98q0 -41 23 -64t65 -23q67 0 98 54.5t48 150.5l70 399
h105z" />
    <glyph glyph-name="umacron" unicode="&#x16b;" horiz-adv-x="528" 
d="M38 0zM424 104q-5 -30 -5 -42q0 -32 30 -35q-6 -23 -26.5 -35t-46.5 -12q-28 0 -46.5 15t-21.5 42q-20 -29 -57 -43t-79 -14q-70 0 -102 38.5t-32 104.5q0 34 7.5 78t22.5 109l46 200l109 12l-48 -213q-10 -44 -19 -96t-9 -84q0 -38 15.5 -63.5t50.5 -25.5q49 0 78 47
t42 114l60 309l112 12zM494 672q0 -27 -17.5 -42.5t-51.5 -15.5h-211q-2 8 -2 24q1 27 17.5 42.5t43.5 15.5h218q3 -10 3 -24z" />
    <glyph glyph-name="Ubreve" unicode="&#x16c;" horiz-adv-x="570" 
d="M42 0zM495 270q-28 -148 -90.5 -219t-179.5 -71q-89 0 -136 40t-47 118q0 44 14 114l79 408h118l-79 -419q-13 -70 -13 -98q0 -41 23 -64t65 -23q67 0 98 54.5t48 150.5l70 399h105zM350 803q0 -25 13 -40t37 -15q32 0 56.5 26.5t30.5 57.5h80q-11 -61 -58.5 -97
t-118.5 -36q-62 0 -94 27.5t-32 77.5q0 13 3 28h87q-4 -19 -4 -29z" />
    <glyph glyph-name="ubreve" unicode="&#x16d;" horiz-adv-x="528" 
d="M38 0zM424 104q-5 -30 -5 -42q0 -32 30 -35q-6 -23 -26.5 -35t-46.5 -12q-28 0 -46.5 15t-21.5 42q-20 -29 -57 -43t-79 -14q-70 0 -102 38.5t-32 104.5q0 34 7.5 78t22.5 109l46 200l109 12l-48 -213q-10 -44 -19 -96t-9 -84q0 -38 15.5 -63.5t50.5 -25.5q49 0 78 47
t42 114l60 309l112 12zM290 702q0 -25 13 -40t37 -15q32 0 56.5 26.5t30.5 57.5h81q-11 -61 -58.5 -97t-119.5 -36q-62 0 -93.5 27.5t-31.5 77.5q0 13 3 28h86q-4 -19 -4 -29z" />
    <glyph glyph-name="Uring" unicode="&#x16e;" horiz-adv-x="570" 
d="M42 0zM495 270q-28 -148 -90.5 -219t-179.5 -71q-89 0 -136 40t-47 118q0 44 14 114l79 408h118l-79 -419q-13 -70 -13 -98q0 -41 23 -64t65 -23q67 0 98 54.5t48 150.5l70 399h105zM465 717q-36 -27 -82 -27q-41 0 -64 17.5t-23 50.5q0 44 35 70.5t81 26.5q41 0 65 -18
t24 -50q0 -43 -36 -70zM431 810.5q-10 9.5 -29 9.5t-33.5 -18.5t-14.5 -44.5q0 -35 35 -35q19 0 35.5 18.5t16.5 43.5q0 17 -10 26.5z" />
    <glyph glyph-name="uring" unicode="&#x16f;" horiz-adv-x="528" 
d="M38 0zM424 104q-5 -30 -5 -42q0 -32 30 -35q-6 -23 -26.5 -35t-46.5 -12q-28 0 -46.5 15t-21.5 42q-20 -29 -57 -43t-79 -14q-70 0 -102 38.5t-32 104.5q0 34 7.5 78t22.5 109l46 200l109 12l-48 -213q-10 -44 -19 -96t-9 -84q0 -38 15.5 -63.5t50.5 -25.5q49 0 78 47
t42 114l60 309l112 12zM252.5 588.5q-22.5 20.5 -22.5 59.5q0 51 36.5 81.5t90.5 30.5q42 0 65.5 -20.5t23.5 -59.5q0 -51 -37.5 -81.5t-91.5 -30.5q-42 0 -64.5 20.5zM367 623q18 23 18 54q0 22 -10 35t-29 13q-25 0 -41 -23t-16 -55q0 -47 35 -47q25 0 43 23z" />
    <glyph glyph-name="Uhungarumlaut" unicode="&#x170;" horiz-adv-x="570" 
d="M42 0zM495 270q-28 -148 -90.5 -219t-179.5 -71q-89 0 -136 40t-47 118q0 44 14 114l79 408h118l-79 -419q-13 -70 -13 -98q0 -41 23 -64t65 -23q67 0 98 54.5t48 150.5l70 399h105zM415 847q11 -8 17 -21t6 -28q0 -30 -20 -48t-63 -27l-76 -16l-22 33zM598 847
q24 -16 24 -48q0 -31 -19.5 -49t-62.5 -27l-78 -16l-21 33z" />
    <glyph glyph-name="uhungarumlaut" unicode="&#x171;" horiz-adv-x="528" 
d="M38 0zM424 104q-5 -30 -5 -42q0 -32 30 -35q-6 -23 -26.5 -35t-46.5 -12q-28 0 -46.5 15t-21.5 42q-20 -29 -57 -43t-79 -14q-70 0 -102 38.5t-32 104.5q0 34 7.5 78t22.5 109l46 200l109 12l-48 -213q-10 -44 -19 -96t-9 -84q0 -38 15.5 -63.5t50.5 -25.5q49 0 78 47
t42 114l60 309l112 12zM324 770q23 -6 37.5 -27t14.5 -47q0 -29 -18 -50t-50 -42l-80 -50l-39 29zM514 770q23 -6 38 -27t15 -47q0 -29 -18 -50t-51 -42l-80 -50l-39 29z" />
    <glyph glyph-name="Uogonek" unicode="&#x172;" horiz-adv-x="570" 
d="M570 660l-75 -390q-19 -100 -52.5 -164t-87.5 -95v-1q-43 -25 -69.5 -65t-26.5 -82q0 -31 13.5 -45t45.5 -14q15 0 29.5 6t22.5 19q16 -12 16 -29q0 -24 -24 -41t-61 -17q-53 0 -84 28.5t-31 79.5q0 39 18 72.5t49 58.5q-9 -1 -28 -1q-89 0 -136 40t-47 118q0 44 14 114
l79 408h118l-79 -419q-13 -70 -13 -98q0 -41 23 -64t65 -23q67 0 98 54.5t48 150.5l70 399h105z" />
    <glyph glyph-name="uogonek" unicode="&#x173;" horiz-adv-x="528" 
d="M472 -200q0 -24 -24 -41t-61 -17q-53 0 -84 28.5t-31 79.5q0 41 20 75.5t53 60.5q-32 12 -37 51q-20 -29 -57 -43t-79 -14q-70 0 -102 38.5t-32 104.5q0 34 7.5 78t22.5 109l46 200l109 12l-48 -213q-10 -44 -19 -96t-9 -84q0 -38 15.5 -63.5t50.5 -25.5q49 0 78 47
t42 114l60 309l112 12l-81 -418q-5 -30 -5 -42q0 -32 30 -35q-8 -31 -43 -43q-28 -25 -44.5 -57t-16.5 -64q0 -31 13.5 -45t45.5 -14q15 0 29.5 6t22.5 19q16 -12 16 -29z" />
    <glyph glyph-name="Wcircumflex" unicode="&#x174;" horiz-adv-x="804" 
d="M32 0zM32 629q6 23 25.5 36.5t44.5 13.5q73 0 80 -114l29 -485l220 580h79l34 -580l220 580h115l-285 -660h-156l-18 413l-159 -413h-157l-33 536q-4 69 -39 93zM630 722l-40 -48l-105 72l-130 -72l-27 49l163 116h7z" />
    <glyph glyph-name="wcircumflex" unicode="&#x175;" horiz-adv-x="702" 
d="M30 0zM71 410q-6 42 -14.5 62t-26.5 31q21 27 68 27t66 -27.5t25 -92.5q5 -57 5 -178l-1 -160q59 73 101 179.5t42 192.5q0 31 -7 59q12 11 30 19t38 8q31 0 40 -20.5t12 -64.5q3 -41 4.5 -111t1.5 -120q0 -32 -2 -142q59 73 101 179.5t42 192.5q0 31 -7 59
q13 12 33.5 19.5t41.5 7.5q30 0 42.5 -16t12.5 -49q0 -63 -35 -145.5t-85 -152.5q-25 -35 -64.5 -82t-79.5 -85l-98 -11q-3 115 -7 194q-34 -56 -71.5 -99t-82.5 -84l-99 -11q-7 296 -26 421zM577 628l-40 -48l-105 72l-130 -72l-27 49l163 116h7z" />
    <glyph glyph-name="Ycircumflex" unicode="&#x176;" horiz-adv-x="375" 
d="M0 0zM321.5 605q50.5 61 104.5 61q24 0 40 -11t21 -32q-66 -42 -129.5 -123.5t-114.5 -191.5l-58 -308h-121l64 321q-32 131 -66.5 203.5t-67.5 87.5q7 26 28 40t51 14q33 0 54 -18.5t36 -61t32 -124.5l13 -63q63 145 113.5 206zM410 722l-40 -48l-105 72l-130 -72
l-27 49l163 116h7z" />
    <glyph glyph-name="ycircumflex" unicode="&#x177;" horiz-adv-x="442" 
d="M26 0zM130 19h-45l-2 71q-3 129 -6 196t-10 124q-5 42 -14 62t-27 31q21 27 68 27q49 0 67.5 -28t21.5 -92q2 -48 2 -130v-93l-1 -95q67 89 107.5 179t40.5 174q0 30 -7 58q13 12 33.5 19.5t42.5 7.5q30 0 42.5 -16t12.5 -49q0 -92 -64 -207t-180 -223q-34 -31 -48 -55
t-14 -62q0 -21 8 -45t20 -43q-13 -14 -34 -22t-44 -8q-32 0 -48.5 19.5t-16.5 53.5q0 62 95 146zM438 628l-40 -48l-105 72l-130 -72l-27 49l163 116h7z" />
    <glyph glyph-name="Ydieresis" unicode="&#x178;" horiz-adv-x="375" 
d="M0 0zM321.5 605q50.5 61 104.5 61q24 0 40 -11t21 -32q-66 -42 -129.5 -123.5t-114.5 -191.5l-58 -308h-121l64 321q-32 131 -66.5 203.5t-67.5 87.5q7 26 28 40t51 14q33 0 54 -18.5t36 -61t32 -124.5l13 -63q63 145 113.5 206zM223.5 837q20.5 -16 20.5 -46
q0 -31 -22 -47.5t-55 -16.5t-53 16t-20 46q0 31 21.5 47.5t54.5 16.5t53.5 -16zM432.5 837q20.5 -16 20.5 -46q0 -31 -22 -47.5t-55 -16.5t-53 16t-20 46q0 31 21.5 47.5t54.5 16.5t53.5 -16z" />
    <glyph glyph-name="Zacute" unicode="&#x179;" horiz-adv-x="449" 
d="M0 0zM181 573q-38 0 -63 -5t-45 -17q-13 23 -13 51q0 73 110 73q42 0 118 -14q67 -13 106 -13q42 0 71 12q11 -9 18 -25t7 -31q0 -24 -14 -40l-362 -459q90 -18 172 -18q38 0 63 5t45 17q13 -23 13 -50q0 -41 -30 -57.5t-81 -16.5q-41 0 -123 14q-72 13 -111 13
q-41 0 -70 -12q-11 9 -18 25t-7 32q0 25 17 44l361 454q-92 18 -164 18zM203 756l234 89q22 -15 22 -45q0 -45 -37 -61.5t-96 -19.5l-115 -6z" />
    <glyph glyph-name="zacute" unicode="&#x17a;" horiz-adv-x="396" 
d="M0 0zM216.5 428.5q-44.5 4.5 -70.5 4.5q-25 0 -43.5 -6t-33.5 -21q-18 23 -18 55q0 36 27 52t71 16q26 0 57.5 -5t37.5 -6q66 -12 97 -12q35 0 54 10q18 -18 18 -44q0 -37 -30 -71l-273 -305q29 -6 77 -11t76 -5q56 0 82 27q18 -23 18 -54q0 -37 -28.5 -53t-73.5 -16
q-34 0 -100 12q-64 12 -93 12q-35 0 -55 -11q-10 6 -17 22.5t-7 34.5q0 42 37 83l265 281q-30 6 -74.5 10.5zM377 769q17 -6 25 -22t8 -34q0 -37 -30.5 -56.5t-85.5 -34.5l-111 -30l-17 41z" />
    <glyph glyph-name="Zdotaccent" unicode="&#x17b;" horiz-adv-x="449" 
d="M340.5 837q20.5 -16 20.5 -46q0 -31 -22 -47.5t-55 -16.5t-53 16t-20 46q0 31 21.5 47.5t54.5 16.5t53.5 -16zM181 573q-38 0 -63 -5t-45 -17q-13 23 -13 51q0 73 110 73q42 0 118 -14q67 -13 106 -13q42 0 71 12q11 -9 18 -25t7 -31q0 -24 -14 -40l-362 -459
q90 -18 172 -18q38 0 63 5t45 17q13 -23 13 -50q0 -41 -30 -57.5t-81 -16.5q-41 0 -123 14q-72 13 -111 13q-41 0 -70 -12q-11 9 -18 25t-7 32q0 25 17 44l361 454q-92 18 -164 18z" />
    <glyph glyph-name="zdotaccent" unicode="&#x17c;" horiz-adv-x="396" 
d="M0 0zM216.5 428.5q-44.5 4.5 -70.5 4.5q-25 0 -43.5 -6t-33.5 -21q-18 23 -18 55q0 36 27 52t71 16q26 0 57.5 -5t37.5 -6q66 -12 97 -12q35 0 54 10q18 -18 18 -44q0 -37 -30 -71l-273 -305q29 -6 77 -11t76 -5q56 0 82 27q18 -23 18 -54q0 -37 -28.5 -53t-73.5 -16
q-34 0 -100 12q-64 12 -93 12q-35 0 -55 -11q-10 6 -17 22.5t-7 34.5q0 42 37 83l265 281q-30 6 -74.5 10.5zM319 708q20 -16 20 -46q0 -31 -21.5 -47.5t-54.5 -16.5t-53 16t-20 46q0 31 21.5 47.5t54.5 16.5t53 -16z" />
    <glyph glyph-name="Zcaron" unicode="&#x17d;" horiz-adv-x="449" 
d="M0 0zM181 573q-38 0 -63 -5t-45 -17q-13 23 -13 51q0 73 110 73q42 0 118 -14q67 -13 106 -13q42 0 71 12q11 -9 18 -25t7 -31q0 -24 -14 -40l-362 -459q90 -18 172 -18q38 0 63 5t45 17q13 -23 13 -50q0 -41 -30 -57.5t-81 -16.5q-41 0 -123 14q-72 13 -111 13
q-41 0 -70 -12q-11 9 -18 25t-7 32q0 25 17 44l361 454q-92 18 -164 18zM150 799l40 38l104 -52l130 52l27 -39l-163 -106h-6z" />
    <glyph glyph-name="zcaron" unicode="&#x17e;" horiz-adv-x="396" 
d="M0 0zM216.5 428.5q-44.5 4.5 -70.5 4.5q-25 0 -43.5 -6t-33.5 -21q-18 23 -18 55q0 36 27 52t71 16q26 0 57.5 -5t37.5 -6q66 -12 97 -12q35 0 54 10q18 -18 18 -44q0 -37 -30 -71l-273 -305q29 -6 77 -11t76 -5q56 0 82 27q18 -23 18 -54q0 -37 -28.5 -53t-73.5 -16
q-34 0 -100 12q-64 12 -93 12q-35 0 -55 -11q-10 6 -17 22.5t-7 34.5q0 42 37 83l265 281q-30 6 -74.5 10.5zM134 708l40 48l104 -62l130 62l27 -49l-163 -116h-6z" />
    <glyph glyph-name="longs" unicode="&#x17f;" horiz-adv-x="288" 
d="M320 720q60 0 99 -20t39 -62q0 -32 -22.5 -50.5t-54.5 -18.5q-28 0 -43 11q14 25 14 50q0 46 -43 46q-35 0 -53.5 -26.5t-27.5 -71.5l-108 -578l-116 -12l115 576q31 156 201 156z" />
    <glyph glyph-name="uni018F" unicode="&#x18f;" horiz-adv-x="558" 
d="M74.5 7.5q-41.5 33.5 -41.5 109.5q0 72 40 123.5t108 78t149 26.5q22 0 67 -3q6 47 6 84q0 80 -24 118.5t-85 38.5q-51 0 -92 -26.5t-64 -74.5q-11 4 -16.5 17t-5.5 28q1 38 29 73t78 57.5t113 22.5q99 0 146 -61.5t47 -190.5q0 -113 -39.5 -217.5t-117 -170.5
t-184.5 -66q-72 0 -113.5 33.5zM294.5 75q35.5 39 59.5 97t36 118q-59 0 -113.5 -18.5t-89 -57t-34.5 -96.5q0 -82 63 -82q43 0 78.5 39z" />
    <glyph glyph-name="florin" unicode="&#x192;" 
d="M184.5 -142q-50.5 -38 -137.5 -38q-60 0 -98 18.5t-38 59.5q0 32 23 50.5t56 18.5q27 0 41 -11q-14 -25 -14 -48q0 -21 11 -32.5t33 -11.5q35 0 53.5 26.5t27.5 71.5l72 386h-106q-4 9 -4 22q0 20 15.5 30.5t42.5 10.5h64l29 153q15 80 65.5 118t137.5 38q60 0 98 -18.5
t38 -59.5q0 -32 -23 -50.5t-56 -18.5q-27 0 -41 11q14 25 14 48q0 21 -11 32.5t-33 11.5q-63 0 -80 -98l-31 -167h157q5 -10 5 -23q0 -40 -65 -40h-109l-70 -372q-16 -80 -66.5 -118z" />
    <glyph glyph-name="uni01C4" unicode="&#x1c4;" horiz-adv-x="1047" 
d="M21 0zM249.5 666q56.5 3 88.5 3q87 0 137.5 -25t72.5 -76t22 -132q0 -118 -40 -219t-123 -163.5t-206 -62.5q-34 0 -83 2.5t-97 6.5l128 660q44 3 100.5 6zM191 62q23 -2 41 -2q74 0 117 54t66 147q11 45 20 102t9 100q0 69 -27.5 102.5t-91.5 33.5q-31 0 -71 -7
l-103 -525q17 -3 40 -5zM779 573q-38 0 -63 -5t-45 -17q-13 23 -13 51q0 73 110 73q42 0 118 -14q67 -13 106 -13q42 0 71 12q11 -9 18 -25t7 -31q0 -24 -14 -40l-362 -459q90 -18 172 -18q38 0 63 5t45 17q13 -23 13 -50q0 -41 -30 -57.5t-81 -16.5q-41 0 -123 14
q-72 13 -111 13q-41 0 -70 -12q-11 9 -18 25t-7 32q0 25 17 44l361 454q-92 18 -164 18zM748 799l40 38l104 -52l130 52l27 -39l-163 -106h-6z" />
    <glyph glyph-name="uni01C5" unicode="&#x1c5;" horiz-adv-x="994" 
d="M21 0zM249.5 666q56.5 3 88.5 3q87 0 137.5 -25t72.5 -76t22 -132q0 -118 -40 -219t-123 -163.5t-206 -62.5q-34 0 -83 2.5t-97 6.5l128 660q44 3 100.5 6zM191 62q23 -2 41 -2q74 0 117 54t66 147q11 45 20 102t9 100q0 69 -27.5 102.5t-91.5 33.5q-31 0 -71 -7
l-103 -525q17 -3 40 -5zM814.5 428.5q-44.5 4.5 -70.5 4.5q-25 0 -43.5 -6t-33.5 -21q-18 23 -18 55q0 36 27 52t71 16q26 0 57.5 -5t37.5 -6q66 -12 97 -12q35 0 54 10q18 -18 18 -44q0 -37 -30 -71l-273 -305q29 -6 77 -11t76 -5q56 0 82 27q18 -23 18 -54
q0 -37 -28.5 -53t-73.5 -16q-34 0 -100 12q-64 12 -93 12q-35 0 -55 -11q-10 6 -17 22.5t-7 34.5q0 42 37 83l265 281q-30 6 -74.5 10.5zM723 649l40 38l104 -52l130 52l27 -39l-163 -106h-6z" />
    <glyph glyph-name="uni01C6" unicode="&#x1c6;" horiz-adv-x="925" 
d="M27 0zM425 104q-5 -30 -5 -42q0 -32 30 -35q-6 -23 -26.5 -35t-46.5 -12q-28 0 -46.5 15t-21.5 42q-20 -29 -57 -43t-79 -14q-77 0 -111.5 47.5t-34.5 138.5q0 90 30 173.5t92.5 137t153.5 53.5q24 0 44.5 -4t45.5 -13l37 187l112 12zM336.5 462q-23.5 8 -44.5 8
q-52 0 -81 -45t-46 -116q-10 -39 -16.5 -85.5t-6.5 -78.5q0 -48 17 -76.5t54 -28.5q51 0 80 47.5t41 113.5l44 238q-18 15 -41.5 23zM745.5 428.5q-44.5 4.5 -70.5 4.5q-25 0 -43.5 -6t-33.5 -21q-18 23 -18 55q0 36 27 52t71 16q26 0 57.5 -5t37.5 -6q66 -12 97 -12
q35 0 54 10q18 -18 18 -44q0 -37 -30 -71l-273 -305q29 -6 77 -11t76 -5q56 0 82 27q18 -23 18 -54q0 -37 -28.5 -53t-73.5 -16q-34 0 -100 12q-64 12 -93 12q-35 0 -55 -11q-10 6 -17 22.5t-7 34.5q0 42 37 83l265 281q-30 6 -74.5 10.5zM663 708l40 48l104 -62l130 62
l27 -49l-163 -116h-6z" />
    <glyph glyph-name="uni01C7" unicode="&#x1c7;" horiz-adv-x="666" 
d="M22 0zM149 660h119l-112 -571h124q20 0 43 3t36 9q6 -8 10 -20.5t4 -24.5q0 -33 -28.5 -44.5t-73.5 -11.5h-249zM529 71q-20 -107 -54 -169t-91 -62q-23 0 -41 10t-26 29q39 15 59 61.5t32 110.5l117 609h119z" />
    <glyph glyph-name="uni01C8" unicode="&#x1c8;" horiz-adv-x="376" 
d="M150 764q-20 16 -20 46q0 31 21.5 47.5t54.5 16.5t53 -16t20 -46q0 -31 -21.5 -47.5t-54.5 -16.5t-53 16zM369 80.5q4 -12.5 4 -24.5q0 -33 -28.5 -44.5t-73.5 -11.5h-207q-41 -50 -97 -50q-61 0 -70 58q38 1 63.5 25.5t43.5 75.5t36 140l83 411l113 12l-2 -12h34
l-112 -571h124q20 0 43 3t36 9q6 -8 10 -20.5z" />
    <glyph glyph-name="uni01C9" unicode="&#x1c9;" horiz-adv-x="241" 
d="M272 875q20 -16 20 -46q0 -31 -21.5 -47.5t-54.5 -16.5t-53 16t-20 46q0 31 21.5 47.5t54.5 16.5t53 -16zM137 104q-5 -27 -5 -42q0 -32 30 -35q-6 -23 -26.5 -35t-47.5 -12q-25 0 -39 10q-32 -23 -69 -23q-61 0 -70 58q38 1 63.5 25.5t43.5 75.5t36 140l83 411l5 1l5 22
l113 12z" />
    <glyph glyph-name="uni01CA" unicode="&#x1ca;" horiz-adv-x="939" 
d="M27 0zM125 0h-98l122 660h144l144 -516l86 516h97l-120 -660h-131l-155 533zM802 71q-20 -107 -54 -169t-91 -62q-23 0 -41 10t-26 29q39 15 59 61.5t32 110.5l117 609h119z" />
    <glyph glyph-name="uni01CB" unicode="&#x1cb;" horiz-adv-x="649" 
d="M351 764q-20 16 -20 46q0 31 21.5 47.5t54.5 16.5t53 -16t20 -46q0 -31 -21.5 -47.5t-54.5 -16.5t-53 16zM620 660l-120 -660h-131l-41 139q-25 -99 -66.5 -144t-93.5 -45q-56 0 -68 50h-73l122 660h144l18 -64l13 64l113 12l-62 -307l62 -221l86 516h97zM264 362
l-50 171l-87 -520q41 14 66.5 68t47.5 168z" />
    <glyph glyph-name="uni01CC" unicode="&#x1cc;" horiz-adv-x="540" 
d="M293 614q-20 16 -20 46q0 31 21.5 47.5t54.5 16.5t53 -16t20 -46q0 -31 -21.5 -47.5t-54.5 -16.5t-53 16zM445.5 38.5q6.5 -9.5 23.5 -11.5q-6 -23 -26.5 -35t-47.5 -12q-67 0 -67 75q0 30 8.5 72t24.5 109q15 59 22 93t7 56q0 41 -27 58l-83 -412q-24 -121 -68.5 -176
t-101.5 -55q-61 0 -70 58q38 1 63.5 25.5t43.5 75.5t36 140l63 311q-37 -47 -54 -132l-54 -278l-113 -12l102 522l94 12l-13 -90q20 39 55 64l3 14l28 3q37 17 85 17q63 0 92.5 -32.5t29.5 -95.5q0 -40 -9 -86.5t-28 -121.5q-10 -39 -17.5 -74.5t-7.5 -54.5q0 -17 6.5 -26.5
z" />
    <glyph glyph-name="uni01EA" unicode="&#x1ea;" horiz-adv-x="591" 
d="M282 -56q-26 -40 -26 -81q0 -31 13.5 -45t45.5 -14q15 0 29.5 6t22.5 19q16 -12 16 -29q0 -24 -24 -41t-61 -17q-53 0 -84 28.5t-31 79.5q0 39 18.5 72.5t48.5 58.5q-9 -1 -30 -1q-101 0 -147.5 58.5t-46.5 175.5q0 110 37 217t115 178t193 71q101 0 147.5 -58.5
t46.5 -174.5q0 -85 -23 -172t-71 -158.5t-120 -107.5q-43 -25 -69 -65zM246 51q70 0 107 59.5t58 149.5q12 50 20.5 111t8.5 105q0 134 -95 134q-67 0 -105 -57.5t-60 -151.5q-12 -50 -20.5 -111t-8.5 -105q0 -134 95 -134z" />
    <glyph glyph-name="uni01EB" unicode="&#x1eb;" horiz-adv-x="509" 
d="M232.5 -67q-19.5 -35 -19.5 -70q0 -31 13.5 -45t45.5 -14q15 0 29.5 6t22.5 19q16 -12 16 -29q0 -24 -24 -41t-61 -17q-53 0 -84 28.5t-31 79.5q0 38 18 71.5t48 58.5h-12q-97 0 -132 51t-35 136q0 96 31 178.5t95.5 133.5t160.5 51q98 0 133 -51t35 -136
q0 -122 -49.5 -219t-146.5 -130q-34 -26 -53.5 -61zM216 40q52 0 81.5 44t46.5 117q10 39 16.5 85.5t6.5 79.5q0 104 -75 104q-52 0 -81 -44t-46 -117q-10 -39 -16.5 -85.5t-6.5 -79.5q0 -104 74 -104z" />
    <glyph glyph-name="uni01F1" unicode="&#x1f1;" horiz-adv-x="1047" 
d="M21 0zM249.5 666q56.5 3 88.5 3q87 0 137.5 -25t72.5 -76t22 -132q0 -118 -40 -219t-123 -163.5t-206 -62.5q-34 0 -83 2.5t-97 6.5l128 660q44 3 100.5 6zM191 62q23 -2 41 -2q74 0 117 54t66 147q11 45 20 102t9 100q0 69 -27.5 102.5t-91.5 33.5q-31 0 -71 -7
l-103 -525q17 -3 40 -5zM779 573q-38 0 -63 -5t-45 -17q-13 23 -13 51q0 73 110 73q42 0 118 -14q67 -13 106 -13q42 0 71 12q11 -9 18 -25t7 -31q0 -24 -14 -40l-362 -459q90 -18 172 -18q38 0 63 5t45 17q13 -23 13 -50q0 -41 -30 -57.5t-81 -16.5q-41 0 -123 14
q-72 13 -111 13q-41 0 -70 -12q-11 9 -18 25t-7 32q0 25 17 44l361 454q-92 18 -164 18z" />
    <glyph glyph-name="uni01F2" unicode="&#x1f2;" horiz-adv-x="994" 
d="M21 0zM249.5 666q56.5 3 88.5 3q87 0 137.5 -25t72.5 -76t22 -132q0 -118 -40 -219t-123 -163.5t-206 -62.5q-34 0 -83 2.5t-97 6.5l128 660q44 3 100.5 6zM191 62q23 -2 41 -2q74 0 117 54t66 147q11 45 20 102t9 100q0 69 -27.5 102.5t-91.5 33.5q-31 0 -71 -7
l-103 -525q17 -3 40 -5zM814.5 428.5q-44.5 4.5 -70.5 4.5q-25 0 -43.5 -6t-33.5 -21q-18 23 -18 55q0 36 27 52t71 16q26 0 57.5 -5t37.5 -6q66 -12 97 -12q35 0 54 10q18 -18 18 -44q0 -37 -30 -71l-273 -305q29 -6 77 -11t76 -5q56 0 82 27q18 -23 18 -54
q0 -37 -28.5 -53t-73.5 -16q-34 0 -100 12q-64 12 -93 12q-35 0 -55 -11q-10 6 -17 22.5t-7 34.5q0 42 37 83l265 281q-30 6 -74.5 10.5z" />
    <glyph glyph-name="uni01F3" unicode="&#x1f3;" horiz-adv-x="925" 
d="M27 0zM425 104q-5 -30 -5 -42q0 -32 30 -35q-6 -23 -26.5 -35t-46.5 -12q-28 0 -46.5 15t-21.5 42q-20 -29 -57 -43t-79 -14q-77 0 -111.5 47.5t-34.5 138.5q0 90 30 173.5t92.5 137t153.5 53.5q24 0 44.5 -4t45.5 -13l37 187l112 12zM336.5 462q-23.5 8 -44.5 8
q-52 0 -81 -45t-46 -116q-10 -39 -16.5 -85.5t-6.5 -78.5q0 -48 17 -76.5t54 -28.5q51 0 80 47.5t41 113.5l44 238q-18 15 -41.5 23zM745.5 428.5q-44.5 4.5 -70.5 4.5q-25 0 -43.5 -6t-33.5 -21q-18 23 -18 55q0 36 27 52t71 16q26 0 57.5 -5t37.5 -6q66 -12 97 -12
q35 0 54 10q18 -18 18 -44q0 -37 -30 -71l-273 -305q29 -6 77 -11t76 -5q56 0 82 27q18 -23 18 -54q0 -37 -28.5 -53t-73.5 -16q-34 0 -100 12q-64 12 -93 12q-35 0 -55 -11q-10 6 -17 22.5t-7 34.5q0 42 37 83l265 281q-30 6 -74.5 10.5z" />
    <glyph glyph-name="Aringacute" unicode="&#x1fa;" horiz-adv-x="536" 
d="M551 883q0 -45 -37 -61.5t-96 -19.5l-115 -6l-8 43l234 89q22 -15 22 -45zM502 30q-6 -23 -25.5 -36.5t-45.5 -13.5q-39 0 -55.5 30.5t-23.5 82.5q-6 45 -8 75h-187l-40 -98l-29 -70h-115l296 656q-13 16 -13 40q0 44 35 70.5t81 26.5q41 0 65 -18t24 -50
q0 -24 -11.5 -43t-31.5 -32l45 -527q6 -72 39 -93zM328.5 739.5q-14.5 -18.5 -14.5 -44.5q0 -35 35 -35q19 0 35.5 18.5t16.5 43.5q0 17 -10 26.5t-29 9.5t-33.5 -18.5zM338 239l-19 339l-81 -205l-53 -134h153z" />
    <glyph glyph-name="aringacute" unicode="&#x1fb;" horiz-adv-x="529" 
d="M293 820l234 89q22 -15 22 -45q0 -45 -37 -61.5t-96 -19.5l-115 -6zM290.5 578.5q-22.5 20.5 -22.5 59.5q0 51 36.5 81.5t90.5 30.5q42 0 65.5 -20.5t23.5 -59.5q0 -51 -37.5 -81.5t-91.5 -30.5q-42 0 -64.5 20.5zM405 613q18 23 18 54q0 22 -10 35t-29 13q-25 0 -41 -23
t-16 -55q0 -47 35 -47q25 0 43 23zM425 104q-5 -30 -5 -42q0 -32 30 -35q-6 -23 -26.5 -35t-46.5 -12q-28 0 -46.5 15t-21.5 42q-20 -29 -57 -43t-79 -14q-77 0 -111.5 47.5t-34.5 139.5q0 90 30 173t92.5 136.5t154.5 53.5q27 0 49.5 -5t51.5 -16l100 13zM336.5 462
q-23.5 8 -44.5 8q-52 0 -81 -45t-46 -116q-10 -39 -16.5 -85.5t-6.5 -78.5q0 -48 17 -76.5t54 -28.5q51 0 80 47.5t41 113.5l44 238q-18 15 -41.5 23z" />
    <glyph glyph-name="AEacute" unicode="&#x1fc;" horiz-adv-x="669" 
d="M0 0zM45 0h-116l358 660h390q0 -47 -29.5 -71t-78.5 -24q-30 0 -68.5 8t-66.5 19l-19 -215h185q0 -43 -26 -62.5t-71 -19.5q-24 0 -49.5 5.5t-44.5 13.5q-12 -124 -12 -154q0 -51 25.5 -72t76.5 -21q46 0 84 14q6 -12 6 -29q0 -38 -42 -55t-95 -17q-77 0 -122 37.5
t-45 108.5q0 27 3 51h-154zM317 420l17 149l-161 -315h126q6 63 18 166zM321 756l234 89q22 -15 22 -45q0 -45 -37 -61.5t-96 -19.5l-115 -6z" />
    <glyph glyph-name="aeacute" unicode="&#x1fd;" horiz-adv-x="735" 
d="M26 0zM749 417q0 -57 -33.5 -97.5t-91 -61.5t-127.5 -21q-29 0 -55 2q-3 -33 -3 -60q0 -58 21 -87t72 -29q43 0 77 20.5t53 58.5q12 -3 18 -14t6 -26q0 -30 -24 -58t-66 -46t-95 -18t-94 20t-61 58q-36 -38 -77.5 -58t-93.5 -20q-79 0 -114 46.5t-35 137.5q0 89 30 173.5
t91.5 138.5t150.5 54q79 0 160 -46q63 46 151 46q140 0 140 -113zM499 415.5q-37 -57.5 -50 -127.5q77 0 134 32t57 95q0 58 -51 58q-53 0 -90 -57.5zM335.5 462q-23.5 8 -44.5 8q-52 0 -81 -45t-46 -116q-10 -39 -16.5 -85.5t-6.5 -78.5q0 -48 17 -76.5t54 -28.5
q51 0 80 47.5t41 113.5l44 238q-18 15 -41.5 23zM577 769q17 -6 25 -22t8 -34q0 -37 -30.5 -56.5t-85.5 -34.5l-111 -30l-17 41z" />
    <glyph glyph-name="Oslashacute" unicode="&#x1fe;" horiz-adv-x="608" 
d="M0 0zM616 623l-51 -57q17 -47 17 -119q0 -109 -36.5 -216.5t-114.5 -179t-194 -71.5q-101 0 -148 59l-32 -34q-25 -27 -44 -59q-19 0 -30 12t-12 30q0 24 18 45l67 74q-13 45 -13 107q0 110 37 217t115 178t193 71q91 0 138 -49l24 27q24 26 44 55q14 0 27.5 -13.5
t13.5 -33.5q0 -21 -19 -43zM170 235l278 310q-19 65 -87 65q-67 0 -104.5 -57.5t-59.5 -151.5q-20 -85 -27 -166zM374 118.5q41 67.5 56.5 147.5t25.5 180l-283 -313q15 -82 89 -82q71 0 112 67.5zM293 756l234 89q22 -15 22 -45q0 -45 -37 -61.5t-96 -19.5l-115 -6z" />
    <glyph glyph-name="oslashacute" unicode="&#x1ff;" horiz-adv-x="509" 
d="M0 0zM511 499l-46 -51q17 -41 17 -105q0 -96 -31 -178.5t-96 -133.5t-161 -51q-79 0 -119 37l-11 -12q-25 -27 -44 -59q-19 0 -30 12.5t-11 30.5q0 26 18 44l41 46q-11 33 -11 88q0 96 31 178.5t95.5 133.5t160.5 51q65 0 104 -26l27 30q24 26 44 55q14 0 27.5 -13.5
t13.5 -33.5q0 -24 -19 -43zM145 199l210 234q-18 37 -63 37q-52 0 -81 -44t-46 -116q-11 -46 -20 -111zM297.5 89.5q32.5 49.5 48.5 118t20 130.5l-220 -242q16 -56 70 -56q49 0 81.5 49.5zM448 769q17 -6 25 -22t8 -34q0 -37 -30.5 -56.5t-85.5 -34.5l-111 -30l-17 41z" />
    <glyph glyph-name="Scommaaccent" unicode="&#x218;" horiz-adv-x="505" 
d="M10 0zM440 651q43 -29 43 -89q0 -49 -27.5 -75.5t-63.5 -26.5q-29 0 -48 13q7 16 11 37t4 37q0 32 -18.5 51t-51.5 19q-40 0 -65.5 -27t-25.5 -68q0 -45 28.5 -77.5t84.5 -73.5q42 -31 68 -55.5t44.5 -59t18.5 -78.5q0 -60 -34 -105.5t-90.5 -70t-121.5 -24.5
q-78 0 -132 34t-54 96q0 43 26 66.5t63 23.5q30 0 50 -13q-7 -16 -11 -37t-4 -36q0 -33 23 -51t59 -18q46 0 79 29t33 75q0 29 -14.5 54t-35.5 43.5t-59 47.5q-45 35 -71 58.5t-44.5 58.5t-18.5 80q0 58 31.5 101.5t86 66.5t121.5 23q73 0 116 -29zM249.5 -166.5
q-18.5 -30.5 -48 -50.5t-59.5 -20q-17 0 -28 11q27 37 40.5 66t13.5 63q0 19 -7 37q21 11 52 11q24 0 39.5 -14t15.5 -42q0 -31 -18.5 -61.5z" />
    <glyph glyph-name="scommaaccent" unicode="&#x219;" horiz-adv-x="416" 
d="M0 0zM238.5 165q-21.5 24 -66.5 55q-53 36 -82 69t-29 83q0 48 30 84t79.5 55t104.5 19q60 0 101 -22.5t41 -72.5q0 -38 -25 -60t-62 -22q-28 0 -40 11q14 35 14 59q0 56 -57 56q-35 0 -55.5 -19.5t-20.5 -52.5q0 -34 21.5 -57.5t65.5 -54.5q36 -25 58.5 -44.5t38 -46.5
t15.5 -62q0 -49 -30 -86t-79.5 -57.5t-104.5 -20.5q-65 0 -114 27t-49 76q0 38 28.5 56.5t64.5 18.5q28 0 43 -12q-14 -30 -14 -59q0 -56 59 -56q37 0 61.5 22t24.5 57q0 33 -21.5 57zM189.5 -166.5q-18.5 -30.5 -48 -50.5t-59.5 -20q-17 0 -28 11q27 37 40.5 66t13.5 63
q0 19 -7 37q21 11 52 11q24 0 39.5 -14t15.5 -42q0 -31 -18.5 -61.5z" />
    <glyph glyph-name="uni021A" unicode="&#x21a;" horiz-adv-x="403" 
d="M44 0zM439 663q23 3 36 9q6 -8 10 -20.5t4 -24.5q0 -33 -28 -44.5t-74 -11.5h-68l-95 -476q-5 -27 -5 -46q0 -25 12 -45q-30 -24 -68 -24q-33 0 -46.5 17t-13.5 48t6 61l92 465h-64q-20 0 -43 -3t-36 -9q-6 8 -10 20.5t-4 24.5q0 33 28.5 44.5t73.5 11.5h250q20 0 43 3z
M202.5 -166.5q-18.5 -30.5 -48 -50.5t-59.5 -20q-17 0 -28 11q27 37 40.5 66t13.5 63q0 19 -7 37q21 11 52 11q24 0 39.5 -14t15.5 -42q0 -31 -18.5 -61.5z" />
    <glyph glyph-name="uni021B" unicode="&#x21b;" horiz-adv-x="299" 
d="M12 0zM258 510h78l-9 -45h-79l-72 -361q-5 -27 -5 -42q0 -32 30 -35q-6 -23 -27 -35t-47 -12q-32 0 -49.5 18t-17.5 51q0 45 39 225l10 48l28 143h-71l4 30q49 18 95 48t81 66h32zM147.5 -166.5q-18.5 -30.5 -48 -50.5t-59.5 -20q-17 0 -28 11q27 37 40.5 66t13.5 63
q0 19 -7 37q21 11 52 11q24 0 39.5 -14t15.5 -42q0 -31 -18.5 -61.5z" />
    <glyph glyph-name="uni0237" unicode="&#x237;" horiz-adv-x="262" 
d="M149 31q-24 -121 -68.5 -176t-101.5 -55q-61 0 -70 58q38 1 63.5 25.5t43.5 75.5t36 140l83 411l113 12z" />
    <glyph glyph-name="uni0259" unicode="&#x259;" horiz-adv-x="474" 
d="M53 7q-37 27 -37 87q0 57 33.5 97.5t91 61t128.5 20.5q28 0 54 -2q3 33 3 60q0 58 -21 87t-72 29q-43 0 -77 -20.5t-53 -58.5q-12 3 -18 14t-6 26q0 30 23.5 58t66.5 46t98 18q87 0 130.5 -49t43.5 -149q0 -89 -32.5 -169.5t-97.5 -131.5t-158 -51q-63 0 -100 27z
M266 94.5q37 57.5 50 127.5q-77 0 -134.5 -32t-57.5 -95q0 -29 13.5 -43.5t38.5 -14.5q53 0 90 57.5z" />
    <glyph glyph-name="uni02BC" unicode="&#x2bc;" horiz-adv-x="186" 
d="M143.5 695.5q15.5 3.5 29.5 3.5q27 0 43 -16.5t16 -45.5q0 -61 -35 -98t-93 -37q-15 0 -33 6q30 26 43.5 59.5t13.5 80.5q0 26 -8 39q8 5 23.5 8.5z" />
    <glyph glyph-name="circumflex" unicode="&#x2c6;" horiz-adv-x="286" 
d="M375 628l-40 -48l-105 72l-130 -72l-27 49l163 116h7z" />
    <glyph glyph-name="caron" unicode="&#x2c7;" horiz-adv-x="339" 
d="M93 708l40 48l104 -62l130 62l27 -49l-163 -116h-6z" />
    <glyph glyph-name="uni02C9" unicode="&#x2c9;" horiz-adv-x="266" 
d="M72 614zM354 672q0 -27 -17.5 -42.5t-51.5 -15.5h-211q-2 8 -2 24q1 27 17.5 42.5t43.5 15.5h218q3 -10 3 -24z" />
    <glyph glyph-name="breve" unicode="&#x2d8;" horiz-adv-x="321" 
d="M192 702q0 -25 13 -40t37 -15q32 0 56.5 26.5t30.5 57.5h81q-11 -61 -58.5 -97t-119.5 -36q-62 0 -93.5 27.5t-31.5 77.5q0 13 3 28h86q-4 -19 -4 -29z" />
    <glyph glyph-name="dotaccent" unicode="&#x2d9;" horiz-adv-x="215" 
d="M237 708q20 -16 20 -46q0 -31 -21.5 -47.5t-54.5 -16.5t-53 16t-20 46q0 31 21.5 47.5t54.5 16.5t53 -16z" />
    <glyph glyph-name="ring" unicode="&#x2da;" horiz-adv-x="240" 
d="M109.5 588.5q-22.5 20.5 -22.5 59.5q0 51 36.5 81.5t90.5 30.5q42 0 65.5 -20.5t23.5 -59.5q0 -51 -37.5 -81.5t-91.5 -30.5q-42 0 -64.5 20.5zM224 623q18 23 18 54q0 22 -10 35t-29 13q-25 0 -41 -23t-16 -55q0 -47 35 -47q25 0 43 23z" />
    <glyph glyph-name="ogonek" unicode="&#x2db;" horiz-adv-x="444" 
d="M293 10q-43 -25 -69.5 -65t-26.5 -82q0 -31 13.5 -45t45.5 -14q15 0 29.5 6t22.5 19q16 -12 16 -29q0 -24 -24 -41t-61 -17q-53 0 -84 28.5t-31 79.5q0 60 41.5 106t96.5 66l31 -5v-7z" />
    <glyph glyph-name="tilde" unicode="&#x2dc;" horiz-adv-x="301" 
d="M386 679q0 -29 -21 -44.5t-56 -15.5q-19 0 -83 8q-62 8 -83 8q-37 0 -56 -15q-17 25 -17 46q0 26 21 40t60 14q24 0 86 -8t83 -8q38 0 50 16q16 -19 16 -41z" />
    <glyph glyph-name="hungarumlaut" unicode="&#x2dd;" horiz-adv-x="446" 
d="M234 770q23 -6 37.5 -27t14.5 -47q0 -29 -18 -50t-50 -42l-80 -50l-39 29zM424 770q23 -6 38 -27t15 -47q0 -29 -18 -50t-51 -42l-80 -50l-39 29z" />
    <glyph glyph-name="gravecomb" unicode="&#x300;" horiz-adv-x="0" 
d="M0 592zM28 622q-55 15 -85 34.5t-30 56.5q0 18 8 34t24 22l212 -136l-17 -41z" />
    <glyph glyph-name="acutecomb" unicode="&#x301;" horiz-adv-x="0" 
d="M15 592zM226 769q17 -6 25 -22t8 -34q0 -37 -30.5 -56.5t-85.5 -34.5l-111 -30l-17 41z" />
    <glyph glyph-name="uni0302" unicode="&#x302;" horiz-adv-x="0" 
d="M0 580zM225 628l-40 -48l-105 72l-130 -72l-27 49l163 116h7z" />
    <glyph glyph-name="tildecomb" unicode="&#x303;" horiz-adv-x="0" 
d="M237 679q0 -29 -21 -44.5t-57 -15.5q-20 0 -82 8q-64 8 -83 8q-37 0 -56 -15q-17 25 -17 46q0 26 21 40t59 14q24 0 86 -8t83 -8q39 0 51 16q16 -19 16 -41z" />
    <glyph glyph-name="uni0304" unicode="&#x304;" horiz-adv-x="0" 
d="M0 614zM244 672q0 -27 -17.5 -42.5t-51.5 -15.5h-211q-2 8 -2 24q1 27 17.5 42.5t43.5 15.5h218q3 -10 3 -24z" />
    <glyph glyph-name="uni0306" unicode="&#x306;" horiz-adv-x="0" 
d="M0 598zM32 702q0 -25 13 -40t37 -15q32 0 56.5 26.5t30.5 57.5h81q-11 -61 -58.5 -97t-119.5 -36q-62 0 -93.5 27.5t-31.5 77.5q0 13 3 28h86q-4 -19 -4 -29z" />
    <glyph glyph-name="uni0307" unicode="&#x307;" horiz-adv-x="0" 
d="M0 598zM127 708q20 -16 20 -46q0 -31 -21.5 -47.5t-54.5 -16.5t-53 16t-20 46q0 31 21.5 47.5t54.5 16.5t53 -16z" />
    <glyph glyph-name="uni0308" unicode="&#x308;" horiz-adv-x="0" 
d="M0 598zM233 708q20 -16 20 -46q0 -31 -21.5 -47.5t-54.5 -16.5t-53 16t-20 46q0 31 21.5 47.5t54.5 16.5t53 -16zM29 708q20 -16 20 -46q0 -31 -21.5 -47.5t-54.5 -16.5t-53 16t-20 46q0 31 21.5 47.5t54.5 16.5t53 -16z" />
    <glyph glyph-name="uni030A" unicode="&#x30a;" horiz-adv-x="0" 
d="M0 568zM-0.5 588.5q-22.5 20.5 -22.5 59.5q0 51 36.5 81.5t90.5 30.5q42 0 65.5 -20.5t23.5 -59.5q0 -51 -37.5 -81.5t-91.5 -30.5q-42 0 -64.5 20.5zM114 623q18 23 18 54q0 22 -10 35t-29 13q-25 0 -41 -23t-16 -55q0 -47 35 -47q25 0 43 23z" />
    <glyph glyph-name="uni030B" unicode="&#x30b;" horiz-adv-x="0" 
d="M0 554zM34 770q23 -6 37.5 -27t14.5 -47q0 -29 -18 -50t-50 -42l-80 -50l-39 29zM224 770q23 -6 38 -27t15 -47q0 -29 -18 -50t-51 -42l-80 -50l-39 29z" />
    <glyph glyph-name="uni030C" unicode="&#x30c;" horiz-adv-x="0" 
d="M0 591zM-67 708l40 48l104 -62l130 62l27 -49l-163 -116h-6z" />
    <glyph glyph-name="dotbelowcomb" unicode="&#x323;" horiz-adv-x="0" 
d="M-13 -70q20 -16 20 -46q0 -31 -21.5 -47.5t-54.5 -16.5t-53 16t-20 46q0 31 21.5 47.5t54.5 16.5t53 -16z" />
    <glyph glyph-name="uni0326" unicode="&#x326;" horiz-adv-x="0" 
d="M-91.5 -166.5q-18.5 -30.5 -48 -50.5t-59.5 -20q-17 0 -28 11q27 37 40.5 66t13.5 63q0 19 -7 37q21 11 52 11q24 0 39.5 -14t15.5 -42q0 -31 -18.5 -61.5z" />
    <glyph glyph-name="uni0327" unicode="&#x327;" horiz-adv-x="0" 
d="M0 0zM63 -82.5q27 -18.5 27 -57.5q0 -49 -43 -81t-107 -32q-39 0 -62.5 12.5t-23.5 35.5q0 21 16 33q17 -28 63 -28q30 0 52 11t22 37q0 41 -79 41q-11 0 -37 -2l37 124h47l-23 -77q20 2 40 2q44 0 71 -18.5z" />
    <glyph glyph-name="uni0394" unicode="&#x394;" horiz-adv-x="584" 
d="M468.5 429q22.5 -133 57.5 -325l19 -104h-601l335 660h157q10 -98 32.5 -231zM166 226q-57 -117 -75 -153h317l-77 459v29q-72 -137 -165 -335z" />
    <glyph glyph-name="uni03A9" unicode="&#x3a9;" horiz-adv-x="608" 
d="M294 101q91 32 132 190q12 47 20.5 102.5t8.5 94.5q0 122 -94 122q-67 0 -105 -53t-59 -136q-12 -47 -20.5 -101.5t-8.5 -94.5q0 -112 77 -123l-29 -101h-127q-42 0 -66.5 16.5t-24.5 52.5q0 28 18 47q10 -10 24 -13t35 -3h73q-55 11 -80.5 47.5t-25.5 107.5q0 88 35 186
t112.5 168t197.5 70q101 0 147.5 -54t46.5 -162q0 -82 -24 -156.5t-67.5 -129t-100.5 -77.5h70q21 0 35 3t24 13q18 -19 18 -47q0 -36 -24.5 -52.5t-66.5 -16.5h-151v100z" />
    <glyph glyph-name="uni03BC" unicode="&#x3bc;" horiz-adv-x="546" 
d="M522 522l-80 -418q-5 -30 -5 -42q0 -32 30 -35q-6 -23 -26.5 -35t-46.5 -12q-28 0 -46.5 15t-21.5 42q-20 -29 -56.5 -43t-76.5 -14q-31 0 -55 9l-30 -169l-116 -12l97 501q21 109 21 137q0 34 -30 37q6 23 26.5 35t47.5 12q32 0 49.5 -18t17.5 -55q0 -24 -8 -66.5
t-18 -86.5q-15 -68 -22 -108.5t-7 -70.5q0 -85 64 -85q50 0 79 46.5t42 114.5l58 309z" />
    <glyph glyph-name="pi" unicode="&#x3c0;" horiz-adv-x="464" 
d="M123 445q-15 0 -34.5 -7t-27.5 -18q-19 27 -19 47q0 28 26.5 45.5t71.5 17.5q23 0 65 -5.5t83 -11.5q9 -1 55 -7.5t69 -6.5q22 0 41 7t28 18q19 -27 19 -47q0 -28 -26 -45.5t-71 -17.5l-34 -219q-3 -20 -5.5 -45t-2.5 -41q0 -34 13 -54.5t41 -21.5q-9 -29 -32 -44
t-55 -15q-76 0 -76 83q0 38 10 89.5t11 57.5l42 216l-98 15l-89 -435l-117 -16l130 460q-7 1 -18 1z" />
    <glyph glyph-name="uni1E0C" unicode="&#x1e0c;" horiz-adv-x="598" 
d="M21 0zM249.5 666q56.5 3 88.5 3q87 0 137.5 -25t72.5 -76t22 -132q0 -118 -40 -219t-123 -163.5t-206 -62.5q-34 0 -83 2.5t-97 6.5l128 660q44 3 100.5 6zM191 62q23 -2 41 -2q74 0 117 54t66 147q11 45 20 102t9 100q0 69 -27.5 102.5t-91.5 33.5q-31 0 -71 -7
l-103 -525q17 -3 40 -5zM255 -70q20 -16 20 -46q0 -31 -21.5 -47.5t-54.5 -16.5t-53 16t-20 46q0 31 21.5 47.5t54.5 16.5t53 -16z" />
    <glyph glyph-name="uni1E0D" unicode="&#x1e0d;" horiz-adv-x="529" 
d="M27 0zM425 104q-5 -30 -5 -42q0 -32 30 -35q-6 -23 -26.5 -35t-46.5 -12q-28 0 -46.5 15t-21.5 42q-20 -29 -57 -43t-79 -14q-77 0 -111.5 47.5t-34.5 138.5q0 90 30 173.5t92.5 137t153.5 53.5q24 0 44.5 -4t45.5 -13l37 187l112 12zM336.5 462q-23.5 8 -44.5 8
q-52 0 -81 -45t-46 -116q-10 -39 -16.5 -85.5t-6.5 -78.5q0 -48 17 -76.5t54 -28.5q51 0 80 47.5t41 113.5l44 238q-18 15 -41.5 23zM256 -70q20 -16 20 -46q0 -31 -21.5 -47.5t-54.5 -16.5t-53 16t-20 46q0 31 21.5 47.5t54.5 16.5t53 -16z" />
    <glyph glyph-name="uni1E24" unicode="&#x1e24;" horiz-adv-x="615" 
d="M22 0zM496 95q-5 -27 -5 -46q0 -25 12 -45q-30 -24 -67 -24q-34 0 -47.5 17t-13.5 50q0 20 11 86l27 157h-218l-56 -290h-117l127 660h119l-59 -300h217l56 300h119zM295 -70q20 -16 20 -46q0 -31 -21.5 -47.5t-54.5 -16.5t-53 16t-20 46q0 31 21.5 47.5t54.5 16.5
t53 -16z" />
    <glyph glyph-name="uni1E25" unicode="&#x1e25;" horiz-adv-x="540" 
d="M25 0zM255 599q-8 -43 -19 -86.5t-21 -69.5q27 44 70.5 65.5t93.5 21.5q63 0 92.5 -32.5t29.5 -95.5q0 -40 -9 -86.5t-28 -121.5q-10 -39 -17.5 -74.5t-7.5 -54.5q0 -17 6.5 -26.5t23.5 -11.5q-6 -23 -26.5 -35t-47.5 -12q-67 0 -67 75q0 30 8.5 72t24.5 109q15 59 22 93
t7 56q0 33 -17 50.5t-47 17.5q-53 0 -86.5 -51.5t-47.5 -123.5l-54 -278l-113 -12l139 712l113 12zM274 -70q20 -16 20 -46q0 -31 -21.5 -47.5t-54.5 -16.5t-53 16t-20 46q0 31 21.5 47.5t54.5 16.5t53 -16z" />
    <glyph glyph-name="uni1E44" unicode="&#x1e44;" horiz-adv-x="649" 
d="M456.5 837q20.5 -16 20.5 -46q0 -31 -22 -47.5t-55 -16.5t-53 16t-20 46q0 31 21.5 47.5t54.5 16.5t53.5 -16zM125 0h-98l122 660h144l144 -516l86 516h97l-120 -660h-131l-155 533z" />
    <glyph glyph-name="uni1E45" unicode="&#x1e45;" horiz-adv-x="540" 
d="M25 0zM279 506q45 24 100 24q63 0 92.5 -32.5t29.5 -95.5q0 -40 -9 -86.5t-28 -121.5q-10 -39 -17.5 -74.5t-7.5 -54.5q0 -17 6.5 -26.5t23.5 -11.5q-6 -23 -26.5 -35t-47.5 -12q-67 0 -67 75q0 30 8.5 72t24.5 109q15 59 22 93t7 56q0 33 -17 50.5t-47 17.5
q-53 0 -86.5 -51.5t-47.5 -123.5l-54 -278l-113 -12l102 522l94 12l-13 -90q26 50 71 74zM402 708q20 -16 20 -46q0 -31 -21.5 -47.5t-54.5 -16.5t-53 16t-20 46q0 31 21.5 47.5t54.5 16.5t53 -16z" />
    <glyph glyph-name="uni1E5A" unicode="&#x1e5a;" horiz-adv-x="566" 
d="M22 0zM318 669q110 0 165.5 -35.5t55.5 -131.5q0 -88 -45.5 -148.5t-122.5 -73.5q45 -106 88.5 -168t76.5 -77q-7 -28 -28.5 -41t-49.5 -13q-45 0 -78 33.5t-64.5 104.5t-78.5 207q12 -1 25 -1q75 0 113.5 42.5t38.5 119.5q0 59 -24.5 87.5t-77.5 28.5q-27 0 -57 -7
l-116 -596h-117l127 660q94 9 169 9zM295 -70q20 -16 20 -46q0 -31 -21.5 -47.5t-54.5 -16.5t-53 16t-20 46q0 31 21.5 47.5t54.5 16.5t53 -16z" />
    <glyph glyph-name="uni1E5B" unicode="&#x1e5b;" horiz-adv-x="422" 
d="M3 0zM264.5 503q38.5 27 84.5 27t70 -28t24 -72q0 -50 -27.5 -85.5t-70.5 -35.5q-32 0 -44 18q12 17 20.5 41t8.5 44q0 41 -36 41q-72 0 -104 -175l-49 -278l-116 -12l100 522l94 12l-13 -90q20 44 58.5 71zM132 -70q20 -16 20 -46q0 -31 -21.5 -47.5t-54.5 -16.5t-53 16
t-20 46q0 31 21.5 47.5t54.5 16.5t53 -16z" />
    <glyph glyph-name="uni1E62" unicode="&#x1e62;" horiz-adv-x="505" 
d="M10 0zM440 651q43 -29 43 -89q0 -49 -27.5 -75.5t-63.5 -26.5q-29 0 -48 13q7 16 11 37t4 37q0 32 -18.5 51t-51.5 19q-40 0 -65.5 -27t-25.5 -68q0 -45 28.5 -77.5t84.5 -73.5q42 -31 68 -55.5t44.5 -59t18.5 -78.5q0 -60 -34 -105.5t-90.5 -70t-121.5 -24.5
q-78 0 -132 34t-54 96q0 43 26 66.5t63 23.5q30 0 50 -13q-7 -16 -11 -37t-4 -36q0 -33 23 -51t59 -18q46 0 79 29t33 75q0 29 -14.5 54t-35.5 43.5t-59 47.5q-45 35 -71 58.5t-44.5 58.5t-18.5 80q0 58 31.5 101.5t86 66.5t121.5 23q73 0 116 -29zM257 -70q20 -16 20 -46
q0 -31 -21.5 -47.5t-54.5 -16.5t-53 16t-20 46q0 31 21.5 47.5t54.5 16.5t53 -16z" />
    <glyph glyph-name="uni1E63" unicode="&#x1e63;" horiz-adv-x="416" 
d="M0 0zM238.5 165q-21.5 24 -66.5 55q-53 36 -82 69t-29 83q0 48 30 84t79.5 55t104.5 19q60 0 101 -22.5t41 -72.5q0 -38 -25 -60t-62 -22q-28 0 -40 11q14 35 14 59q0 56 -57 56q-35 0 -55.5 -19.5t-20.5 -52.5q0 -34 21.5 -57.5t65.5 -54.5q36 -25 58.5 -44.5t38 -46.5
t15.5 -62q0 -49 -30 -86t-79.5 -57.5t-104.5 -20.5q-65 0 -114 27t-49 76q0 38 28.5 56.5t64.5 18.5q28 0 43 -12q-14 -30 -14 -59q0 -56 59 -56q37 0 61.5 22t24.5 57q0 33 -21.5 57zM197 -70q20 -16 20 -46q0 -31 -21.5 -47.5t-54.5 -16.5t-53 16t-20 46q0 31 21.5 47.5
t54.5 16.5t53 -16z" />
    <glyph glyph-name="uni1E6C" unicode="&#x1e6c;" horiz-adv-x="403" 
d="M44 0zM439 663q23 3 36 9q6 -8 10 -20.5t4 -24.5q0 -33 -28 -44.5t-74 -11.5h-68l-95 -476q-5 -27 -5 -46q0 -25 12 -45q-30 -24 -68 -24q-33 0 -46.5 17t-13.5 48t6 61l92 465h-64q-20 0 -43 -3t-36 -9q-6 8 -10 20.5t-4 24.5q0 33 28.5 44.5t73.5 11.5h250q20 0 43 3z
M210 -70q20 -16 20 -46q0 -31 -21.5 -47.5t-54.5 -16.5t-53 16t-20 46q0 31 21.5 47.5t54.5 16.5t53 -16z" />
    <glyph glyph-name="uni1E6D" unicode="&#x1e6d;" horiz-adv-x="299" 
d="M26 0zM258 510h78l-9 -45h-79l-72 -361q-5 -27 -5 -42q0 -32 30 -35q-6 -23 -27 -35t-47 -12q-32 0 -49.5 18t-17.5 51q0 45 39 225l10 48l28 143h-71l4 30q49 18 95 48t81 66h32zM155 -70q20 -16 20 -46q0 -31 -21.5 -47.5t-54.5 -16.5t-53 16t-20 46q0 31 21.5 47.5
t54.5 16.5t53 -16z" />
    <glyph glyph-name="Wgrave" unicode="&#x1e80;" horiz-adv-x="804" 
d="M32 0zM32 629q6 23 25.5 36.5t44.5 13.5q73 0 80 -114l29 -485l220 580h79l34 -580l220 580h115l-285 -660h-156l-18 413l-159 -413h-157l-33 536q-4 69 -39 93zM567 713l-115 6q-59 3 -96 19.5t-37 61.5q0 30 22 45l234 -89z" />
    <glyph glyph-name="wgrave" unicode="&#x1e81;" horiz-adv-x="702" 
d="M30 0zM71 410q-6 42 -14.5 62t-26.5 31q21 27 68 27t66 -27.5t25 -92.5q5 -57 5 -178l-1 -160q59 73 101 179.5t42 192.5q0 31 -7 59q12 11 30 19t38 8q31 0 40 -20.5t12 -64.5q3 -41 4.5 -111t1.5 -120q0 -32 -2 -142q59 73 101 179.5t42 192.5q0 31 -7 59
q13 12 33.5 19.5t41.5 7.5q30 0 42.5 -16t12.5 -49q0 -63 -35 -145.5t-85 -152.5q-25 -35 -64.5 -82t-79.5 -85l-98 -11q-3 115 -7 194q-34 -56 -71.5 -99t-82.5 -84l-99 -11q-7 296 -26 421zM359 622q-55 15 -85 34.5t-30 56.5q0 18 8 34t24 22l212 -136l-17 -41z" />
    <glyph glyph-name="Wacute" unicode="&#x1e82;" horiz-adv-x="804" 
d="M32 0zM32 629q6 23 25.5 36.5t44.5 13.5q73 0 80 -114l29 -485l220 580h79l34 -580l220 580h115l-285 -660h-156l-18 413l-159 -413h-157l-33 536q-4 69 -39 93zM408 756l234 89q22 -15 22 -45q0 -45 -37 -61.5t-96 -19.5l-115 -6z" />
    <glyph glyph-name="wacute" unicode="&#x1e83;" horiz-adv-x="702" 
d="M30 0zM71 410q-6 42 -14.5 62t-26.5 31q21 27 68 27t66 -27.5t25 -92.5q5 -57 5 -178l-1 -160q59 73 101 179.5t42 192.5q0 31 -7 59q12 11 30 19t38 8q31 0 40 -20.5t12 -64.5q3 -41 4.5 -111t1.5 -120q0 -32 -2 -142q59 73 101 179.5t42 192.5q0 31 -7 59
q13 12 33.5 19.5t41.5 7.5q30 0 42.5 -16t12.5 -49q0 -63 -35 -145.5t-85 -152.5q-25 -35 -64.5 -82t-79.5 -85l-98 -11q-3 115 -7 194q-34 -56 -71.5 -99t-82.5 -84l-99 -11q-7 296 -26 421zM527 769q17 -6 25 -22t8 -34q0 -37 -30.5 -56.5t-85.5 -34.5l-111 -30l-17 41z
" />
    <glyph glyph-name="Wdieresis" unicode="&#x1e84;" horiz-adv-x="804" 
d="M32 0zM32 629q6 23 25.5 36.5t44.5 13.5q73 0 80 -114l29 -485l220 580h79l34 -580l220 580h115l-285 -660h-156l-18 413l-159 -413h-157l-33 536q-4 69 -39 93zM443.5 837q20.5 -16 20.5 -46q0 -31 -22 -47.5t-55 -16.5t-53 16t-20 46q0 31 21.5 47.5t54.5 16.5
t53.5 -16zM652.5 837q20.5 -16 20.5 -46q0 -31 -22 -47.5t-55 -16.5t-53 16t-20 46q0 31 21.5 47.5t54.5 16.5t53.5 -16z" />
    <glyph glyph-name="wdieresis" unicode="&#x1e85;" horiz-adv-x="702" 
d="M30 0zM71 410q-6 42 -14.5 62t-26.5 31q21 27 68 27t66 -27.5t25 -92.5q5 -57 5 -178l-1 -160q59 73 101 179.5t42 192.5q0 31 -7 59q12 11 30 19t38 8q31 0 40 -20.5t12 -64.5q3 -41 4.5 -111t1.5 -120q0 -32 -2 -142q59 73 101 179.5t42 192.5q0 31 -7 59
q13 12 33.5 19.5t41.5 7.5q30 0 42.5 -16t12.5 -49q0 -63 -35 -145.5t-85 -152.5q-25 -35 -64.5 -82t-79.5 -85l-98 -11q-3 115 -7 194q-34 -56 -71.5 -99t-82.5 -84l-99 -11q-7 296 -26 421zM583 708q20 -16 20 -46q0 -31 -21.5 -47.5t-54.5 -16.5t-53 16t-20 46
q0 31 21.5 47.5t54.5 16.5t53 -16zM379 708q20 -16 20 -46q0 -31 -21.5 -47.5t-54.5 -16.5t-53 16t-20 46q0 31 21.5 47.5t54.5 16.5t53 -16z" />
    <glyph glyph-name="uni1E92" unicode="&#x1e92;" horiz-adv-x="449" 
d="M0 0zM181 573q-38 0 -63 -5t-45 -17q-13 23 -13 51q0 73 110 73q42 0 118 -14q67 -13 106 -13q42 0 71 12q11 -9 18 -25t7 -31q0 -24 -14 -40l-362 -459q90 -18 172 -18q38 0 63 5t45 17q13 -23 13 -50q0 -41 -30 -57.5t-81 -16.5q-41 0 -123 14q-72 13 -111 13
q-41 0 -70 -12q-11 9 -18 25t-7 32q0 25 17 44l361 454q-92 18 -164 18zM226 -70q20 -16 20 -46q0 -31 -21.5 -47.5t-54.5 -16.5t-53 16t-20 46q0 31 21.5 47.5t54.5 16.5t53 -16z" />
    <glyph glyph-name="uni1E93" unicode="&#x1e93;" horiz-adv-x="396" 
d="M0 0zM216.5 428.5q-44.5 4.5 -70.5 4.5q-25 0 -43.5 -6t-33.5 -21q-18 23 -18 55q0 36 27 52t71 16q26 0 57.5 -5t37.5 -6q66 -12 97 -12q35 0 54 10q18 -18 18 -44q0 -37 -30 -71l-273 -305q29 -6 77 -11t76 -5q56 0 82 27q18 -23 18 -54q0 -37 -28.5 -53t-73.5 -16
q-34 0 -100 12q-64 12 -93 12q-35 0 -55 -11q-10 6 -17 22.5t-7 34.5q0 42 37 83l265 281q-30 6 -74.5 10.5zM215 -70q20 -16 20 -46q0 -31 -21.5 -47.5t-54.5 -16.5t-53 16t-20 46q0 31 21.5 47.5t54.5 16.5t53 -16z" />
    <glyph glyph-name="uni1E9E" unicode="&#x1e9e;" horiz-adv-x="714" 
d="M77 330q36 186 124.5 268t231.5 82q86 0 148.5 -26t99.5 -74q-105 -43 -148 -85.5t-43 -78.5q0 -25 16.5 -43.5t53.5 -47.5q33 -25 53.5 -45t35.5 -49.5t15 -68.5q0 -57 -33 -98.5t-87 -63.5t-117 -22q-79 0 -132 34t-53 96q0 43 26 66.5t63 23.5q31 0 50 -13
q-7 -16 -11 -37t-4 -36q0 -33 22 -51t58 -18q41 0 72.5 22.5t31.5 63.5q0 33 -19.5 56.5t-59.5 54.5q-46 37 -70 68t-24 78q0 49 36.5 97t126.5 98q-53 41 -121 41q-96 0 -146 -72t-78 -216l-64 -334h-118z" />
    <glyph glyph-name="uni1EB8" unicode="&#x1eb8;" horiz-adv-x="441" 
d="M22 0zM450.5 589q-29.5 -24 -78.5 -24q-55 0 -122 27l-37 -215h180q0 -43 -26 -62.5t-70 -19.5q-49 0 -97 23l-41 -229h121q20 0 43 3t36 9q6 -8 10 -20.5t4 -24.5q0 -33 -28.5 -44.5t-74.5 -11.5h-248l127 660h331q0 -47 -29.5 -71zM235 -70q20 -16 20 -46
q0 -31 -21.5 -47.5t-54.5 -16.5t-53 16t-20 46q0 31 21.5 47.5t54.5 16.5t53 -16z" />
    <glyph glyph-name="uni1EB9" unicode="&#x1eb9;" horiz-adv-x="438" 
d="M27 0zM414.5 503q37.5 -27 37.5 -87q0 -57 -34 -97t-91.5 -61t-127.5 -21q-28 0 -54 2q-3 -33 -3 -60q0 -58 21 -87t72 -29q43 0 77 20.5t53 58.5q12 -3 18 -14t6 -26q0 -30 -24 -58t-67 -46t-98 -18q-87 0 -130 48.5t-43 149.5q0 89 32.5 169.5t97 131.5t157.5 51
q63 0 100.5 -27zM202 415.5q-37 -57.5 -50 -127.5q77 0 134 32t57 95q0 29 -13.5 43.5t-38.5 14.5q-52 0 -89 -57.5zM253 -70q20 -16 20 -46q0 -31 -21.5 -47.5t-54.5 -16.5t-53 16t-20 46q0 31 21.5 47.5t54.5 16.5t53 -16z" />
    <glyph glyph-name="uni1EBC" unicode="&#x1ebc;" horiz-adv-x="441" 
d="M22 0zM450.5 589q-29.5 -24 -78.5 -24q-55 0 -122 27l-37 -215h180q0 -43 -26 -62.5t-70 -19.5q-49 0 -97 23l-41 -229h121q20 0 43 3t36 9q6 -8 10 -20.5t4 -24.5q0 -33 -28.5 -44.5t-74.5 -11.5h-248l127 660h331q0 -47 -29.5 -71zM491 785q0 -29 -21 -44.5t-56 -15.5
q-20 0 -84 8q-62 8 -82 8q-37 0 -56 -15q-17 25 -17 46q0 26 21 40t59 14q23 0 87 -8q62 -8 83 -8q38 0 50 16q16 -19 16 -41z" />
    <glyph glyph-name="uni1EBD" unicode="&#x1ebd;" horiz-adv-x="438" 
d="M27 0zM414.5 503q37.5 -27 37.5 -87q0 -57 -34 -97t-91.5 -61t-127.5 -21q-28 0 -54 2q-3 -33 -3 -60q0 -58 21 -87t72 -29q43 0 77 20.5t53 58.5q12 -3 18 -14t6 -26q0 -30 -24 -58t-67 -46t-98 -18q-87 0 -130 48.5t-43 149.5q0 89 32.5 169.5t97 131.5t157.5 51
q63 0 100.5 -27zM202 415.5q-37 -57.5 -50 -127.5q77 0 134 32t57 95q0 29 -13.5 43.5t-38.5 14.5q-52 0 -89 -57.5zM470 679q0 -29 -21 -44.5t-56 -15.5q-19 0 -83 8q-62 8 -83 8q-37 0 -56 -15q-17 25 -17 46q0 26 21 40t60 14q24 0 86 -8t83 -8q38 0 50 16q16 -19 16 -41
z" />
    <glyph glyph-name="uni1ECA" unicode="&#x1eca;" horiz-adv-x="290" 
d="M0 0zM268 660l-129 -660h-117l127 660h119zM117 -70q20 -16 20 -46q0 -31 -21.5 -47.5t-54.5 -16.5t-53 16t-20 46q0 31 21.5 47.5t54.5 16.5t53 -16z" />
    <glyph glyph-name="uni1ECB" unicode="&#x1ecb;" horiz-adv-x="262" 
d="M6 0zM266 708q20 -16 20 -46q0 -31 -21.5 -47.5t-54.5 -16.5t-53 16t-20 46q0 31 21.5 47.5t54.5 16.5t53 -16zM158 104q-5 -27 -5 -42q0 -32 30 -35q-6 -23 -26.5 -35t-47.5 -12q-31 0 -49 18t-18 49q0 29 19 127l68 336l113 12zM135 -70q20 -16 20 -46
q0 -31 -21.5 -47.5t-54.5 -16.5t-53 16t-20 46q0 31 21.5 47.5t54.5 16.5t53 -16z" />
    <glyph glyph-name="uni1ECC" unicode="&#x1ecc;" horiz-adv-x="591" 
d="M26 0zM518.5 621.5q46.5 -58.5 46.5 -174.5q0 -109 -36.5 -216.5t-114.5 -179t-194 -71.5q-101 0 -147.5 58.5t-46.5 175.5q0 110 37 217t115 178t193 71q101 0 147.5 -58.5zM240 552.5q-38 -57.5 -60 -151.5q-12 -50 -20.5 -111t-8.5 -105q0 -134 95 -134q70 0 107 59.5
t58 149.5q12 50 20.5 111t8.5 105q0 134 -95 134q-67 0 -105 -57.5zM256 -70q20 -16 20 -46q0 -31 -21.5 -47.5t-54.5 -16.5t-53 16t-20 46q0 31 21.5 47.5t54.5 16.5t53 -16z" />
    <glyph glyph-name="uni1ECD" unicode="&#x1ecd;" horiz-adv-x="509" 
d="M27 0zM447 479q35 -51 35 -136q0 -96 -31 -178.5t-96 -133.5t-161 -51q-97 0 -132 51t-35 136q0 96 31 178.5t95.5 133.5t160.5 51q98 0 133 -51zM211 426q-29 -44 -46 -117q-10 -39 -16.5 -85.5t-6.5 -79.5q0 -104 74 -104q52 0 81.5 44t46.5 117q10 39 16.5 85.5
t6.5 79.5q0 104 -75 104q-52 0 -81 -44zM236 -70q20 -16 20 -46q0 -31 -21.5 -47.5t-54.5 -16.5t-53 16t-20 46q0 31 21.5 47.5t54.5 16.5t53 -16z" />
    <glyph glyph-name="uni1EE4" unicode="&#x1ee4;" horiz-adv-x="570" 
d="M42 0zM495 270q-28 -148 -90.5 -219t-179.5 -71q-89 0 -136 40t-47 118q0 44 14 114l79 408h118l-79 -419q-13 -70 -13 -98q0 -41 23 -64t65 -23q67 0 98 54.5t48 150.5l70 399h105zM246 -70q20 -16 20 -46q0 -31 -21.5 -47.5t-54.5 -16.5t-53 16t-20 46q0 31 21.5 47.5
t54.5 16.5t53 -16z" />
    <glyph glyph-name="uni1EE5" unicode="&#x1ee5;" horiz-adv-x="528" 
d="M38 0zM424 104q-5 -30 -5 -42q0 -32 30 -35q-6 -23 -26.5 -35t-46.5 -12q-28 0 -46.5 15t-21.5 42q-20 -29 -57 -43t-79 -14q-70 0 -102 38.5t-32 104.5q0 34 7.5 78t22.5 109l46 200l109 12l-48 -213q-10 -44 -19 -96t-9 -84q0 -38 15.5 -63.5t50.5 -25.5q49 0 78 47
t42 114l60 309l112 12zM236 -70q20 -16 20 -46q0 -31 -21.5 -47.5t-54.5 -16.5t-53 16t-20 46q0 31 21.5 47.5t54.5 16.5t53 -16z" />
    <glyph glyph-name="Ygrave" unicode="&#x1ef2;" horiz-adv-x="375" 
d="M0 0zM321.5 605q50.5 61 104.5 61q24 0 40 -11t21 -32q-66 -42 -129.5 -123.5t-114.5 -191.5l-58 -308h-121l64 321q-32 131 -66.5 203.5t-67.5 87.5q7 26 28 40t51 14q33 0 54 -18.5t36 -61t32 -124.5l13 -63q63 145 113.5 206zM347 713l-115 6q-59 3 -96 19.5t-37 61.5
q0 30 22 45l234 -89z" />
    <glyph glyph-name="ygrave" unicode="&#x1ef3;" horiz-adv-x="442" 
d="M26 0zM130 19h-45l-2 71q-3 129 -6 196t-10 124q-5 42 -14 62t-27 31q21 27 68 27q49 0 67.5 -28t21.5 -92q2 -48 2 -130v-93l-1 -95q67 89 107.5 179t40.5 174q0 30 -7 58q13 12 33.5 19.5t42.5 7.5q30 0 42.5 -16t12.5 -49q0 -92 -64 -207t-180 -223q-34 -31 -48 -55
t-14 -62q0 -21 8 -45t20 -43q-13 -14 -34 -22t-44 -8q-32 0 -48.5 19.5t-16.5 53.5q0 62 95 146zM220 622q-55 15 -85 34.5t-30 56.5q0 18 8 34t24 22l212 -136l-17 -41z" />
    <glyph glyph-name="uni1EF8" unicode="&#x1ef8;" horiz-adv-x="375" 
d="M0 0zM321.5 605q50.5 61 104.5 61q24 0 40 -11t21 -32q-66 -42 -129.5 -123.5t-114.5 -191.5l-58 -308h-121l64 321q-32 131 -66.5 203.5t-67.5 87.5q7 26 28 40t51 14q33 0 54 -18.5t36 -61t32 -124.5l13 -63q63 145 113.5 206zM438 785q0 -29 -21 -44.5t-56 -15.5
q-20 0 -84 8q-62 8 -82 8q-37 0 -56 -15q-17 25 -17 46q0 26 21 40t59 14q23 0 87 -8q62 -8 83 -8q38 0 50 16q16 -19 16 -41z" />
    <glyph glyph-name="uni1EF9" unicode="&#x1ef9;" horiz-adv-x="442" 
d="M26 0zM130 19h-45l-2 71q-3 129 -6 196t-10 124q-5 42 -14 62t-27 31q21 27 68 27q49 0 67.5 -28t21.5 -92q2 -48 2 -130v-93l-1 -95q67 89 107.5 179t40.5 174q0 30 -7 58q13 12 33.5 19.5t42.5 7.5q30 0 42.5 -16t12.5 -49q0 -92 -64 -207t-180 -223q-34 -31 -48 -55
t-14 -62q0 -21 8 -45t20 -43q-13 -14 -34 -22t-44 -8q-32 0 -48.5 19.5t-16.5 53.5q0 62 95 146zM443 679q0 -29 -21 -44.5t-56 -15.5q-19 0 -83 8q-62 8 -83 8q-37 0 -56 -15q-17 25 -17 46q0 26 21 40t60 14q24 0 86 -8t83 -8q38 0 50 16q16 -19 16 -41z" />
    <glyph glyph-name="uni2002" unicode="&#x2002;" horiz-adv-x="400" 
 />
    <glyph glyph-name="uni2003" unicode="&#x2003;" horiz-adv-x="800" 
 />
    <glyph glyph-name="uni2004" unicode="&#x2004;" horiz-adv-x="267" 
 />
    <glyph glyph-name="uni2005" unicode="&#x2005;" horiz-adv-x="200" 
 />
    <glyph glyph-name="endash" unicode="&#x2013;" horiz-adv-x="457" 
d="M443 255q-1 -25 -19.5 -41.5t-52.5 -16.5h-353q-4 12 -4 24q0 28 18 46t46 18h360q5 -17 5 -30z" />
    <glyph glyph-name="emdash" unicode="&#x2014;" horiz-adv-x="884" 
d="M871 260q0 -35 -21 -49t-61 -14h-771q-4 12 -4 24q0 64 81 64h771q5 -15 5 -25z" />
    <glyph glyph-name="quoteleft" unicode="&#x2018;" horiz-adv-x="222" 
d="M217.5 630q-17.5 -40 -17.5 -82q0 -27 9 -44q-9 -5 -26 -9t-32 -4q-30 0 -47.5 16.5t-17.5 49.5q0 37 21.5 72.5t55 58t65.5 22.5q19 0 37 -7q-30 -33 -47.5 -73z" />
    <glyph glyph-name="quoteright" unicode="&#x2019;" horiz-adv-x="216" 
d="M143 706q17 4 32 4q30 0 48 -16.5t18 -49.5q0 -37 -21.5 -72.5t-55 -58t-65.5 -22.5q-19 0 -37 7q30 34 47 74t17 81q0 27 -9 44q9 5 26 9z" />
    <glyph glyph-name="quotesinglbase" unicode="&#x201a;" horiz-adv-x="210" 
d="M39 94q17 4 32 4q30 0 48 -16.5t18 -49.5q0 -37 -21.5 -72.5t-55 -58t-65.5 -22.5q-19 0 -37 7q30 34 47 74t17 81q0 27 -9 44q9 5 26 9z" />
    <glyph glyph-name="quotedblleft" unicode="&#x201c;" horiz-adv-x="432" 
d="M126.5 629.5q21.5 35.5 55 58t65.5 22.5q19 0 37 -7q-30 -34 -47 -74t-17 -81q0 -27 9 -44q-9 -5 -26 -9t-32 -4q-30 0 -48 16.5t-18 49.5q0 37 21.5 72.5zM316.5 629.5q21.5 35.5 55 58t65.5 22.5q19 0 37 -7q-30 -33 -47 -73t-17 -82q0 -27 9 -44q-9 -5 -26.5 -9
t-32.5 -4q-30 0 -47.5 16.5t-17.5 49.5q0 37 21.5 72.5z" />
    <glyph glyph-name="quotedblright" unicode="&#x201d;" horiz-adv-x="405" 
d="M143 706q17 4 32 4q30 0 47.5 -16.5t17.5 -49.5q0 -37 -21.5 -72.5t-54.5 -58t-65 -22.5q-19 0 -37 7q30 34 47 74t17 81q0 27 -9 44q9 5 26 9zM333 706q17 4 32 4q30 0 47.5 -16.5t17.5 -49.5q0 -37 -21.5 -72.5t-55 -58t-65.5 -22.5q-19 0 -37 7q30 33 47 73t17 82
q0 27 -9 44q10 5 27 9z" />
    <glyph glyph-name="quotedblbase" unicode="&#x201e;" horiz-adv-x="419" 
d="M115.5 -40.5q-21.5 -35.5 -55 -58t-65.5 -22.5q-19 0 -37 7q30 34 47 74t17 81q0 27 -9 44q9 5 26 9t33 4q30 0 47.5 -16.5t17.5 -49.5q0 -37 -21.5 -72.5zM304.5 -40.5q-21.5 -35.5 -54.5 -58t-65 -22.5q-19 0 -37 7q30 34 47 74t17 81q0 27 -9 44q9 5 26 9t32 4
q30 0 47.5 -16.5t17.5 -49.5q0 -37 -21.5 -72.5z" />
    <glyph glyph-name="dagger" unicode="&#x2020;" horiz-adv-x="378" 
d="M55 375q-6 11 -6 29q0 28 10 58t24 47q42 -16 117 -25q3 20 3 44q0 33 -4 67t-9 52q37 20 82 20q46 0 76 -20q-41 -84 -59 -165q61 6 129 28q8 -14 8 -36q0 -27 -10.5 -55.5t-26.5 -42.5q-59 18 -115 24l-44 -364l-3 -23q-6 -56 -6 -83q0 -29 4 -45q-45 -25 -82 -25
q-33 0 -45 16.5t-12 44.5q0 16 7 48.5t9 43.5q3 20 9 45l73 342q-61 -5 -129 -25z" />
    <glyph glyph-name="daggerdbl" unicode="&#x2021;" horiz-adv-x="425" 
d="M61 375q-6 11 -6 29q0 27 9.5 57t23.5 48q43 -17 119 -25q2 26 2 44q0 34 -4 67.5t-10 51.5q40 20 83 20q46 0 76 -20q-41 -84 -59 -165q63 6 130 28q7 -16 7 -36q0 -26 -10.5 -55t-25.5 -43q-59 18 -116 24l-47 -257q68 7 121 26q8 -12 8 -36q0 -27 -10.5 -56.5
t-25.5 -43.5q-49 15 -105 21q-8 -67 -8 -126q0 -35 1 -43q-21 -12 -38.5 -18.5t-36.5 -6.5q-32 0 -44.5 16.5t-12.5 43.5q0 34 10.5 80t12.5 54q-65 -7 -111 -21q-5 13 -5 31q0 26 9.5 55.5t22.5 46.5q53 -16 107 -22l62 256q-61 -5 -129 -25z" />
    <glyph glyph-name="bullet" unicode="&#x2022;" horiz-adv-x="237" 
d="M168.5 200.5q-26.5 -21.5 -71.5 -21.5t-71 21t-26 56q0 37 28 59.5t73 22.5q43 0 68.5 -21.5t25.5 -57.5q0 -37 -26.5 -58.5z" />
    <glyph glyph-name="ellipsis" unicode="&#x2026;" horiz-adv-x="611" 
d="M0 0zM525.5 88q20.5 -16 20.5 -46q0 -31 -21.5 -47.5t-55.5 -16.5q-33 0 -53 16t-20 46q0 31 21.5 47.5t54.5 16.5t53.5 -16zM118.5 88q20.5 -16 20.5 -46q0 -31 -21.5 -47.5t-55.5 -16.5q-33 0 -53 16t-20 46q0 31 21.5 47.5t54.5 16.5t53.5 -16zM323.5 88
q20.5 -16 20.5 -46q0 -31 -21.5 -47.5t-55.5 -16.5q-33 0 -53 16t-20 46q0 31 21.5 47.5t54.5 16.5t53.5 -16z" />
    <glyph glyph-name="perthousand" unicode="&#x2030;" horiz-adv-x="1380" 
d="M167 -22q-46 0 -58 33l609 639q33 33 79 33t58 -33l-608 -639q-33 -33 -80 -33zM389 416q-22 -57 -69 -93.5t-118 -36.5q-63 0 -94.5 33.5t-31.5 107.5q0 64 22.5 120.5t70 91.5t117.5 35q63 0 94 -32.5t31 -105.5q0 -63 -22 -120zM274.5 379.5q21.5 35.5 31 83t9.5 83.5
q0 70 -45 70q-34 0 -56 -34t-31.5 -80t-9.5 -84q0 -74 45 -74q35 0 56.5 35.5zM886 111q-22 -57 -69 -93.5t-118 -36.5q-64 0 -95.5 33.5t-31.5 107.5q0 64 23 120.5t70.5 91.5t117.5 35q63 0 94 -32.5t31 -105.5q0 -63 -22 -120zM1283 111q-22 -57 -69 -93.5t-118 -36.5
q-63 0 -94.5 33.5t-31.5 107.5q0 64 22.5 120.5t70 91.5t117.5 35q63 0 94 -32.5t31 -105.5q0 -63 -22 -120zM771 75q22 36 31.5 83t9.5 83q0 70 -45 70q-34 0 -56 -34t-31.5 -80t-9.5 -84q0 -74 45 -74q34 0 56 36zM1168.5 74.5q21.5 35.5 31 83t9.5 83.5q0 70 -45 70
q-34 0 -56 -34t-31.5 -80t-9.5 -84q0 -74 45 -74q35 0 56.5 35.5z" />
    <glyph glyph-name="guilsinglleft" unicode="&#x2039;" horiz-adv-x="253" 
d="M159 509h98l-120 -192l49 -191h-96l-87 191z" />
    <glyph glyph-name="guilsinglright" unicode="&#x203a;" horiz-adv-x="253" 
d="M249 318l-156 -192h-97l120 192l-49 191h95z" />
    <glyph glyph-name="fraction" unicode="&#x2044;" horiz-adv-x="280" 
d="M-20 -91q-43 0 -43 26q0 8 6 22l330 761q12 2 25 2q23 0 33.5 -5.5t10.5 -19.5q0 -12 -9 -36l-326 -748q-6 -2 -27 -2z" />
    <glyph glyph-name="Euro" unicode="&#x20ac;" 
d="M441 461q7 16 11 36.5t4 35.5q0 30 -17.5 44t-51.5 14q-55 0 -95.5 -50t-64.5 -130h204q5 -10 5 -23q0 -40 -65 -40h-160q-7 -32 -10 -71h204q5 -10 5 -23q0 -27 -23.5 -33.5t-78.5 -6.5h-110q2 -65 26.5 -102.5t82.5 -37.5q51 0 88 30t67 82q17 -9 24.5 -21t7.5 -32
q0 -44 -31.5 -79t-82.5 -54.5t-108 -19.5q-96 0 -147.5 60t-52.5 174h-79q-4 9 -4 22q0 20 15.5 30.5t42.5 10.5h28q5 38 13 71h-69q-4 9 -4 22q0 20 15.5 30.5t42.5 10.5h33q40 110 118.5 179.5t188.5 69.5q77 0 121.5 -29.5t44.5 -88.5q0 -46 -25.5 -71t-63.5 -25
q-35 0 -49 15z" />
    <glyph glyph-name="uni20B2" unicode="&#x20b2;" 
d="M394 288l127 18q-29 -60 -43.5 -144t-18.5 -166q-10 -16 -35 -16q-44 0 -60 45q-36 -24 -76 -35l-8 -43q-7 -38 -19.5 -51t-41.5 -13q-24 0 -36 4l18 93q-78 5 -119 66t-41 165q0 101 33.5 199t100 166.5t159.5 80.5l8 42q7 37 19.5 50.5t38.5 13.5q14 0 36 -4l-20 -103
q57 -9 89.5 -42.5t32.5 -85.5q0 -47 -25.5 -73t-63.5 -26q-15 0 -28.5 4t-20.5 12q7 16 11 37.5t4 36.5q0 38 -15.5 54t-52.5 16q-59 0 -99.5 -61.5t-60.5 -148t-20 -160.5q0 -67 24.5 -105t86.5 -38q40 0 82 11z" />
    <glyph glyph-name="uni2113" unicode="&#x2113;" horiz-adv-x="381" 
d="M317 86q0 -44 -40.5 -72.5t-113.5 -28.5q-57 0 -89.5 29.5t-32.5 82.5q0 25 6 53l15 80q-28 -4 -64 -4l12 62q37 0 65 4l36 187q19 97 68 149t128 52q43 0 73 -28.5t30 -85.5q0 -79 -31.5 -144t-85 -110t-118.5 -68l-18 -93q-4 -26 -4 -37q0 -53 49 -53q28 0 55 15.5
t44 41.5q16 -8 16 -32zM254.5 594q-17.5 -29 -24.5 -67l-41 -214q67 34 106 98t39 148q0 30 -9 47t-27 17q-26 0 -43.5 -29z" />
    <glyph glyph-name="trademark" unicode="&#x2122;" horiz-adv-x="714" 
d="M90 596q-21 0 -39 -3q-2 14 -2 26q0 23 13.5 32t40.5 9h141q35 0 53 6q4 -5 6.5 -14.5t2.5 -18.5q0 -23 -15.5 -30t-44.5 -7h-28l-37 -209q-5 -25 -5 -45q0 -23 7 -34q-12 -10 -24 -14.5t-28 -4.5q-28 0 -37.5 13t-9.5 38q0 29 15 116l26 140h-35zM494 445l-36 215h-101
l-85 -363h60l52 247l42 -247h61q38 108 103 247q-11 -98 -11 -158q0 -51 14 -74t52 -23q23 0 37 7.5t19 19.5q-17 20 -24 41.5t-7 68.5q0 26 11 234h-93q-42 -106 -94 -215z" />
    <glyph glyph-name="uni2126" unicode="&#x2126;" horiz-adv-x="608" 
d="M0 1zM294 101q91 32 132 190q12 47 20.5 102.5t8.5 94.5q0 122 -94 122q-67 0 -105 -53t-59 -136q-12 -47 -20.5 -101.5t-8.5 -94.5q0 -112 77 -123l-29 -101h-127q-42 0 -66.5 16.5t-24.5 52.5q0 28 18 47q10 -10 24 -13t35 -3h73q-55 11 -80.5 47.5t-25.5 107.5
q0 88 35 186t112.5 168t197.5 70q101 0 147.5 -54t46.5 -162q0 -82 -24 -156.5t-67.5 -129t-100.5 -77.5h70q21 0 35 3t24 13q18 -19 18 -47q0 -36 -24.5 -52.5t-66.5 -16.5h-151v100z" />
    <glyph glyph-name="estimated" unicode="&#x212e;" horiz-adv-x="809" 
d="M604.5 635q81.5 -45 127.5 -125.5t46 -181.5v-8h-569v-164q35 -46 91 -71t126 -25q80 0 140.5 28.5t98.5 81.5l61 -45q-48 -67 -125 -103t-175 -36q-105 0 -187 42t-127.5 120t-45.5 180q0 101 46 181.5t127.5 125.5t182.5 45t182.5 -45zM300 579.5q-55 -26.5 -91 -75.5
v-110h428v107q-37 50 -92.5 77.5t-122.5 27.5t-122 -26.5z" />
    <glyph glyph-name="uni2153" unicode="&#x2153;" horiz-adv-x="814" 
d="M551 720q22 0 32.5 -5.5t10.5 -20.5q0 -14 -9 -35l-326 -748q-6 -2 -27 -2q-43 0 -43 26q0 8 6 22l330 761q12 2 26 2zM208 352h33q23 0 29 9q9 -10 9 -35q0 -24 -12.5 -32.5t-35.5 -8.5l-150 2q-32 0 -40 -7q-2 6 -3.5 15t-1.5 19q0 40 47 40h33l44 226q-11 -7 -26 -11
t-27 -4q-23 0 -33 16t-13 44q43 6 90.5 20t88.5 34l30 -10zM640 235q28 18 28 50q0 40 -44 40q-25 0 -49.5 -12.5t-39.5 -33.5q-19 10 -19 30q0 36 42.5 58.5t94.5 22.5q47 0 76 -21t29 -61t-27.5 -67t-67.5 -39q87 -7 87 -83q0 -38 -21.5 -67.5t-57 -45.5t-76.5 -16
q-48 0 -81.5 21t-33.5 58q0 12 4.5 19t13.5 13q19 -23 41 -34.5t51 -11.5q66 0 66 59q0 35 -23 47t-67 12l5 39q41 5 69 23z" />
    <glyph glyph-name="uni2154" unicode="&#x2154;" horiz-adv-x="854" 
d="M591 720q22 0 32.5 -5.5t10.5 -20.5q0 -14 -9 -35l-326 -748q-6 -2 -27 -2q-43 0 -43 26q0 8 6 22l330 761q12 2 26 2zM241 566q0 24 -14.5 35.5t-38.5 11.5q-52 0 -82 -54q-22 7 -22 33q0 41 41 63.5t95 22.5t84 -25.5t30 -76.5q0 -40 -18.5 -70t-56.5 -64l-33 -28
q-14 -13 -28.5 -25.5t-27.5 -24.5q34 -10 79 -10q42 0 62 12q7 -14 7 -33q0 -50 -63 -50q-23 0 -77 8q-52 8 -72 8q-23 0 -40 -7q-6 5 -10 14t-4 17q0 11 7.5 22t23.5 25l78 72q80 70 80 124zM680 235q28 18 28 50q0 40 -44 40q-25 0 -49.5 -12.5t-39.5 -33.5q-19 10 -19 30
q0 36 42.5 58.5t94.5 22.5q47 0 76 -21t29 -61t-27.5 -67t-67.5 -39q87 -7 87 -83q0 -38 -21.5 -67.5t-57 -45.5t-76.5 -16q-48 0 -81.5 21t-33.5 58q0 12 4.5 19t13.5 13q19 -23 41 -34.5t51 -11.5q66 0 66 59q0 35 -23 47t-67 12l5 39q41 5 69 23z" />
    <glyph glyph-name="oneeighth" unicode="&#x215b;" horiz-adv-x="821" 
d="M550 720q23 0 33.5 -5.5t10.5 -19.5q0 -15 -9 -36l-326 -748q-6 -2 -27 -2q-43 0 -43 26q0 8 6 22l330 761q12 2 25 2zM208 352h33q23 0 29 9q9 -10 9 -35q0 -24 -12.5 -32.5t-35.5 -8.5l-150 2q-32 0 -40 -7q-2 6 -3.5 15t-1.5 19q0 40 47 40h33l44 226q-11 -7 -26 -11
t-27 -4q-23 0 -33 16t-13 44q43 6 90.5 20t88.5 34l30 -10zM724.5 51q-20.5 -30 -54.5 -47.5t-75 -17.5q-50 0 -87 25t-37 69q0 37 27 62.5t75 48.5q-30 24 -41.5 42t-11.5 39q0 33 22 59.5t56.5 42t70.5 15.5q42 0 72 -20t30 -56q0 -24 -13 -42t-28.5 -29t-49.5 -32
q34 -23 49.5 -42.5t15.5 -50.5q0 -36 -20.5 -66zM679 268q12 16 12 34q0 16 -9.5 25t-26.5 9q-19 0 -33 -11t-14 -28q0 -23 26 -43l15 -11q18 9 30 25zM565.5 129.5q-11.5 -14.5 -11.5 -37.5q0 -24 13 -38t35 -14q24 0 38.5 15t14.5 38q0 16 -7 26.5t-21 20.5l-25 18
q-25 -14 -36.5 -28.5z" />
    <glyph glyph-name="partialdiff" unicode="&#x2202;" 
d="M509 466q0 -120 -33.5 -231.5t-104.5 -183t-177 -71.5q-80 0 -118.5 45.5t-38.5 142.5q0 89 30 170t92.5 133t153.5 52q36 0 72 -11q0 136 -72 136q-14 0 -29.5 -4t-25.5 -11q-6 10 -6 23q0 28 27.5 46t71.5 18q158 0 158 -254zM377 348q7 49 9 85q-18 14 -41 22t-44 8
q-52 0 -81 -43.5t-45 -109.5q-10 -39 -16.5 -85.5t-6.5 -80.5q0 -104 67 -104q38 0 64.5 31.5t42.5 76.5t34 114q10 37 17 86z" />
    <glyph glyph-name="uni2206" unicode="&#x2206;" 
d="M468.5 429q22.5 -133 57.5 -325l19 -104h-601l335 660h157q10 -98 32.5 -231zM166 226q-57 -117 -75 -153h317l-77 459v29q-72 -137 -165 -335z" />
    <glyph glyph-name="product" unicode="&#x220f;" 
d="M440 35q-5 -30 -5 -47q0 -15 7.5 -25t22.5 -12q-6 -24 -27.5 -36.5t-49.5 -12.5q-34 0 -52 18.5t-18 52.5t19 135l92 462h-195l-128 -649h-117l126 649h-5q-21 0 -34.5 -3t-23.5 -13q-18 20 -18 47q0 37 26 48t75 11h411q21 0 34.5 3t23.5 13q18 -19 18 -47
q0 -32 -20 -44t-57 -15z" />
    <glyph glyph-name="summation" unicode="&#x2211;" 
d="M539 670q26 -11 26 -48q0 -26 -19 -47q-10 10 -23.5 13t-34.5 3h-246l149 -298l-259 -271h309q21 0 35 3t25 13q18 -19 18 -47q0 -36 -24.5 -53t-67.5 -17h-519l348 360l-206 400h414q49 0 75 -11z" />
    <glyph glyph-name="minus" unicode="&#x2212;" 
d="M480 260q0 -29 -18.5 -46t-51.5 -17h-354q-3 14 -3 24q0 28 17.5 46t45.5 18h361q3 -15 3 -25z" />
    <glyph glyph-name="uni2215" unicode="&#x2215;" horiz-adv-x="107" 
d="M231 720q22 0 32.5 -5.5t10.5 -20.5q0 -14 -9 -35l-326 -748q-6 -2 -27 -2q-43 0 -43 26q0 8 6 22l330 761q12 2 26 2z" />
    <glyph glyph-name="uni2219" unicode="&#x2219;" horiz-adv-x="192" 
d="M12 197zM141.5 307q20.5 -16 20.5 -46q0 -31 -21.5 -47.5t-55.5 -16.5q-33 0 -53 16t-20 46q0 31 21.5 47.5t54.5 16.5t53.5 -16z" />
    <glyph glyph-name="radical" unicode="&#x221a;" 
d="M176 -9l-20 206q-15 174 -20 203q-12 81 -49 104q31 26 70 26q44 0 66.5 -30.5t27.5 -103.5l24 -335l328 751h349q4 -16 4 -25q0 -25 -18 -39.5t-53 -14.5h-209l-335 -752z" />
    <glyph glyph-name="infinity" unicode="&#x221e;" 
d="M294 352q69 108 149 108q54 0 84.5 -33t30.5 -89q0 -53 -26 -105t-70.5 -84.5t-95.5 -32.5q-70 0 -117 108q-69 -108 -149 -108q-54 0 -84.5 33t-30.5 89q0 53 26 105t70.5 84.5t95.5 32.5q70 0 117 -108zM318 311q24 -51 46 -76.5t44 -25.5q32 0 51 25.5t19 61.5
t-20.5 57.5t-57.5 21.5q-47 0 -82 -64zM84 341.5q-19 -25.5 -19 -61.5t20.5 -57.5t57.5 -21.5q47 0 82 64q-25 52 -46 77t-44 25q-32 0 -51 -25.5z" />
    <glyph glyph-name="integral" unicode="&#x222b;" 
d="M309.5 682q50.5 38 137.5 38q60 0 98 -18.5t38 -59.5q0 -32 -23 -50.5t-56 -18.5q-27 0 -41 10q14 26 14 49q0 21 -11 32.5t-33 11.5q-35 0 -53 -26.5t-27 -71.5l-113 -602q-15 -80 -65.5 -118t-137.5 -38q-60 0 -98 18.5t-38 59.5q0 32 23 50.5t56 18.5q27 0 41 -10
q-14 -26 -14 -49q0 -21 11 -32.5t32 -11.5q35 0 53.5 26.5t27.5 71.5l113 602q15 80 65.5 118z" />
    <glyph glyph-name="approxequal" unicode="&#x2248;" 
d="M290 357q29 -6 56.5 -11t43.5 -5q22 0 39.5 7t25.5 17q19 -23 19 -46q0 -26 -25 -42.5t-67 -16.5q-39 0 -127 20q-29 6 -56.5 11t-43.5 5q-22 0 -39.5 -7t-25.5 -17q-19 23 -19 46q0 26 25.5 42.5t66.5 16.5q39 0 127 -20zM290 189q29 -6 56.5 -11t43.5 -5q22 0 39.5 7
t25.5 17q19 -23 19 -46q0 -26 -25.5 -42.5t-66.5 -16.5q-39 0 -127 20q-29 6 -56.5 11t-43.5 5q-22 0 -39.5 -7t-25.5 -17q-19 23 -19 46q0 26 25 42.5t67 16.5q39 0 127 -20z" />
    <glyph glyph-name="notequal" unicode="&#x2260;" 
d="M471 163q0 -27 -18 -43.5t-52 -16.5h-160l-54 -91q-21 -33 -40 -70q-25 0 -39 17t-14 42q0 24 13 46l33 56h-74q-3 12 -3 23q0 28 17.5 45.5t44.5 17.5h65l44 75h-168q-3 14 -3 24q0 27 17.5 44t44.5 17h158l73 125l17 29q4 7 9.5 15.5t12.5 21.5q19 0 36 -17t17 -44
q0 -23 -14 -47l-49 -83h82q4 -16 4 -27q0 -25 -18 -41.5t-52 -16.5h-66l-44 -75h176q4 -16 4 -26z" />
    <glyph glyph-name="lessequal" unicode="&#x2264;" 
d="M277 412q63 43 89 43q14 0 29 -11.5t24 -26.5l-175 -119l109 -94q17 -14 17 -28q0 -25 -48 -55l-208 177zM424 65q0 -23 -17 -37t-50 -14h-281q-4 13 -4 26q0 25 16 39t43 14h288q5 -17 5 -28z" />
    <glyph glyph-name="greaterequal" unicode="&#x2265;" 
d="M182 400q0 25 48 55l208 -177l-163 -114q-63 -43 -89 -43q-14 0 -29 11.5t-24 26.5l175 119l-109 94q-17 14 -17 28zM70 40q0 25 16 39t43 14h288q5 -17 5 -28q0 -23 -17 -37t-50 -14h-281q-4 13 -4 26z" />
    <glyph glyph-name="lozenge" unicode="&#x25ca;" 
d="M415 660l156 -332l-266 -328h-132l-161 335l271 325h132zM270 86l170 234l-122 253l-171 -235z" />
    <glyph glyph-name="Y.loclGUA" horiz-adv-x="604" 
d="M486 164q-22 -117 -51.5 -193t-89 -123t-159.5 -47q-67 0 -108 30.5t-41 87.5q0 49 27.5 75.5t63.5 26.5q29 0 48 -13q-7 -16 -11 -37t-4 -37q0 -31 15 -50.5t45 -19.5q53 0 85 61.5t57 192.5q-51 -50 -143 -50q-74 0 -110.5 39.5t-36.5 112.5q0 46 14 120l61 320h118
l-61 -331q-13 -70 -13 -98q0 -41 19.5 -64t58.5 -23q63 0 92.5 55t46.5 150l57 311h113z" />
    <glyph glyph-name="Yacute.loclGUA" horiz-adv-x="604" 
d="M37 0zM486 164q-22 -117 -51.5 -193t-89 -123t-159.5 -47q-67 0 -108 30.5t-41 87.5q0 49 27.5 75.5t63.5 26.5q29 0 48 -13q-7 -16 -11 -37t-4 -37q0 -31 15 -50.5t45 -19.5q53 0 85 61.5t57 192.5q-51 -50 -143 -50q-74 0 -110.5 39.5t-36.5 112.5q0 46 14 120l61 320
h118l-61 -331q-13 -70 -13 -98q0 -41 19.5 -64t58.5 -23q63 0 92.5 55t46.5 150l57 311h113zM306 756l234 89q22 -15 22 -45q0 -45 -37 -61.5t-96 -19.5l-115 -6z" />
    <glyph glyph-name="Ycircumflex.loclGUA" horiz-adv-x="604" 
d="M37 0zM486 164q-22 -117 -51.5 -193t-89 -123t-159.5 -47q-67 0 -108 30.5t-41 87.5q0 49 27.5 75.5t63.5 26.5q29 0 48 -13q-7 -16 -11 -37t-4 -37q0 -31 15 -50.5t45 -19.5q53 0 85 61.5t57 192.5q-51 -50 -143 -50q-74 0 -110.5 39.5t-36.5 112.5q0 46 14 120l61 320
h118l-61 -331q-13 -70 -13 -98q0 -41 19.5 -64t58.5 -23q63 0 92.5 55t46.5 150l57 311h113zM528 722l-40 -48l-105 72l-130 -72l-27 49l163 116h7z" />
    <glyph glyph-name="Ydieresis.loclGUA" horiz-adv-x="604" 
d="M37 0zM486 164q-22 -117 -51.5 -193t-89 -123t-159.5 -47q-67 0 -108 30.5t-41 87.5q0 49 27.5 75.5t63.5 26.5q29 0 48 -13q-7 -16 -11 -37t-4 -37q0 -31 15 -50.5t45 -19.5q53 0 85 61.5t57 192.5q-51 -50 -143 -50q-74 0 -110.5 39.5t-36.5 112.5q0 46 14 120l61 320
h118l-61 -331q-13 -70 -13 -98q0 -41 19.5 -64t58.5 -23q63 0 92.5 55t46.5 150l57 311h113zM341.5 837q20.5 -16 20.5 -46q0 -31 -22 -47.5t-55 -16.5t-53 16t-20 46q0 31 21.5 47.5t54.5 16.5t53.5 -16zM550.5 837q20.5 -16 20.5 -46q0 -31 -22 -47.5t-55 -16.5t-53 16
t-20 46q0 31 21.5 47.5t54.5 16.5t53.5 -16z" />
    <glyph glyph-name="Ygrave.loclGUA" horiz-adv-x="604" 
d="M37 0zM486 164q-22 -117 -51.5 -193t-89 -123t-159.5 -47q-67 0 -108 30.5t-41 87.5q0 49 27.5 75.5t63.5 26.5q29 0 48 -13q-7 -16 -11 -37t-4 -37q0 -31 15 -50.5t45 -19.5q53 0 85 61.5t57 192.5q-51 -50 -143 -50q-74 0 -110.5 39.5t-36.5 112.5q0 46 14 120l61 320
h118l-61 -331q-13 -70 -13 -98q0 -41 19.5 -64t58.5 -23q63 0 92.5 55t46.5 150l57 311h113zM465 713l-115 6q-59 3 -96 19.5t-37 61.5q0 30 22 45l234 -89z" />
    <glyph glyph-name="uni1EF8.loclGUA" horiz-adv-x="604" 
d="M37 0zM486 164q-22 -117 -51.5 -193t-89 -123t-159.5 -47q-67 0 -108 30.5t-41 87.5q0 49 27.5 75.5t63.5 26.5q29 0 48 -13q-7 -16 -11 -37t-4 -37q0 -31 15 -50.5t45 -19.5q53 0 85 61.5t57 192.5q-51 -50 -143 -50q-74 0 -110.5 39.5t-36.5 112.5q0 46 14 120l61 320
h118l-61 -331q-13 -70 -13 -98q0 -41 19.5 -64t58.5 -23q63 0 92.5 55t46.5 150l57 311h113zM556 785q0 -29 -21 -44.5t-56 -15.5q-20 0 -84 8q-62 8 -82 8q-37 0 -56 -15q-17 25 -17 46q0 26 21 40t59 14q23 0 87 -8q62 -8 83 -8q38 0 50 16q16 -19 16 -41z" />
    <glyph glyph-name="Cacute.loclPLK" horiz-adv-x="512" 
d="M27 0zM489 645.5q45 -34.5 45 -97.5q0 -47 -25 -73t-63 -26q-15 0 -28.5 4t-20.5 12q6 16 10 37.5t4 36.5q0 32 -17.5 51t-50.5 19q-62 0 -105 -63t-64 -151.5t-21 -163.5q0 -71 24.5 -112.5t84.5 -41.5q52 0 89 30.5t66 84.5q17 -9 24.5 -21.5t7.5 -33.5
q0 -45 -31.5 -81t-82.5 -56t-107 -20q-98 0 -149.5 62t-51.5 182q0 107 39 212.5t116.5 174.5t186.5 69q75 0 120 -34.5zM408 855q72 0 72 -37q0 -19 -18.5 -45.5t-65.5 -80.5l-59 8z" />
    <glyph glyph-name="Nacute.loclPLK" horiz-adv-x="649" 
d="M27 0zM125 0h-98l122 660h144l144 -516l86 516h97l-120 -660h-131l-155 533zM436 855q72 0 72 -37q0 -19 -18.5 -45.5t-65.5 -80.5l-59 8z" />
    <glyph glyph-name="Oacute.loclPLK" horiz-adv-x="591" 
d="M26 0zM518.5 621.5q46.5 -58.5 46.5 -174.5q0 -109 -36.5 -216.5t-114.5 -179t-194 -71.5q-101 0 -147.5 58.5t-46.5 175.5q0 110 37 217t115 178t193 71q101 0 147.5 -58.5zM240 552.5q-38 -57.5 -60 -151.5q-12 -50 -20.5 -111t-8.5 -105q0 -134 95 -134q70 0 107 59.5
t58 149.5q12 50 20.5 111t8.5 105q0 134 -95 134q-67 0 -105 -57.5zM418 855q72 0 72 -37q0 -19 -18.5 -45.5t-65.5 -80.5l-59 8z" />
    <glyph glyph-name="Sacute.loclPLK" horiz-adv-x="505" 
d="M10 0zM440 651q43 -29 43 -89q0 -49 -27.5 -75.5t-63.5 -26.5q-29 0 -48 13q7 16 11 37t4 37q0 32 -18.5 51t-51.5 19q-40 0 -65.5 -27t-25.5 -68q0 -45 28.5 -77.5t84.5 -73.5q42 -31 68 -55.5t44.5 -59t18.5 -78.5q0 -60 -34 -105.5t-90.5 -70t-121.5 -24.5
q-78 0 -132 34t-54 96q0 43 26 66.5t63 23.5q30 0 50 -13q-7 -16 -11 -37t-4 -36q0 -33 23 -51t59 -18q46 0 79 29t33 75q0 29 -14.5 54t-35.5 43.5t-59 47.5q-45 35 -71 58.5t-44.5 58.5t-18.5 80q0 58 31.5 101.5t86 66.5t121.5 23q73 0 116 -29zM378 855q72 0 72 -37
q0 -19 -18.5 -45.5t-65.5 -80.5l-59 8z" />
    <glyph glyph-name="Zacute.loclPLK" horiz-adv-x="449" 
d="M0 0zM181 573q-38 0 -63 -5t-45 -17q-13 23 -13 51q0 73 110 73q42 0 118 -14q67 -13 106 -13q42 0 71 12q11 -9 18 -25t7 -31q0 -24 -14 -40l-362 -459q90 -18 172 -18q38 0 63 5t45 17q13 -23 13 -50q0 -41 -30 -57.5t-81 -16.5q-41 0 -123 14q-72 13 -111 13
q-41 0 -70 -12q-11 9 -18 25t-7 32q0 25 17 44l361 454q-92 18 -164 18zM320 855q72 0 72 -37q0 -19 -18.5 -45.5t-65.5 -80.5l-59 8z" />
    <glyph glyph-name="i.loclTRK" horiz-adv-x="261" 
d="M42 0zM153 62q0 -32 30 -35q-6 -23 -26.5 -35t-47.5 -12q-31 0 -49 18t-18 49q0 29 19 127l68 336l113 12l-84 -418q-5 -27 -5 -42zM257 708q20 -16 20 -46q0 -31 -21.5 -47.5t-54.5 -16.5t-53 16t-20 46q0 31 21.5 47.5t54.5 16.5t53 -16z" />
    <glyph glyph-name="y.loclGUA" horiz-adv-x="504" 
d="M416 141q-22 -118 -51.5 -191t-79 -111.5t-128.5 -38.5q-71 0 -118 33t-47 92q0 38 22 56.5t51 18.5q19 0 34.5 -8t24.5 -23q-19 -21 -19 -48q0 -28 17.5 -45t44.5 -17q41 0 67 30.5t41.5 82.5t32.5 143q-21 -29 -57.5 -43t-79.5 -14q-133 0 -133 136q0 62 24 164l36 152
l109 12l-38 -164q-8 -36 -15 -81.5t-7 -74.5q0 -84 64 -84q51 0 80 46.5t42 114.5l44 231l112 12z" />
    <glyph glyph-name="yacute.loclGUA" horiz-adv-x="504" 
d="M0 0zM416 141q-22 -118 -51.5 -191t-79 -111.5t-128.5 -38.5q-71 0 -118 33t-47 92q0 38 22 56.5t51 18.5q19 0 34.5 -8t24.5 -23q-19 -21 -19 -48q0 -28 17.5 -45t44.5 -17q41 0 67 30.5t41.5 82.5t32.5 143q-21 -29 -57.5 -43t-79.5 -14q-133 0 -133 136q0 62 24 164
l36 152l109 12l-38 -164q-8 -36 -15 -81.5t-7 -74.5q0 -84 64 -84q51 0 80 46.5t42 114.5l44 231l112 12zM434 769q17 -6 25 -22t8 -34q0 -37 -30.5 -56.5t-85.5 -34.5l-111 -30l-17 41z" />
    <glyph glyph-name="ycircumflex.loclGUA" horiz-adv-x="504" 
d="M0 0zM416 141q-22 -118 -51.5 -191t-79 -111.5t-128.5 -38.5q-71 0 -118 33t-47 92q0 38 22 56.5t51 18.5q19 0 34.5 -8t24.5 -23q-19 -21 -19 -48q0 -28 17.5 -45t44.5 -17q41 0 67 30.5t41.5 82.5t32.5 143q-21 -29 -57.5 -43t-79.5 -14q-133 0 -133 136q0 62 24 164
l36 152l109 12l-38 -164q-8 -36 -15 -81.5t-7 -74.5q0 -84 64 -84q51 0 80 46.5t42 114.5l44 231l112 12zM484 628l-40 -48l-105 72l-130 -72l-27 49l163 116h7z" />
    <glyph glyph-name="ydieresis.loclGUA" horiz-adv-x="504" 
d="M0 0zM416 141q-22 -118 -51.5 -191t-79 -111.5t-128.5 -38.5q-71 0 -118 33t-47 92q0 38 22 56.5t51 18.5q19 0 34.5 -8t24.5 -23q-19 -21 -19 -48q0 -28 17.5 -45t44.5 -17q41 0 67 30.5t41.5 82.5t32.5 143q-21 -29 -57.5 -43t-79.5 -14q-133 0 -133 136q0 62 24 164
l36 152l109 12l-38 -164q-8 -36 -15 -81.5t-7 -74.5q0 -84 64 -84q51 0 80 46.5t42 114.5l44 231l112 12zM490 708q20 -16 20 -46q0 -31 -21.5 -47.5t-54.5 -16.5t-53 16t-20 46q0 31 21.5 47.5t54.5 16.5t53 -16zM286 708q20 -16 20 -46q0 -31 -21.5 -47.5t-54.5 -16.5
t-53 16t-20 46q0 31 21.5 47.5t54.5 16.5t53 -16z" />
    <glyph glyph-name="ygrave.loclGUA" horiz-adv-x="504" 
d="M0 0zM416 141q-22 -118 -51.5 -191t-79 -111.5t-128.5 -38.5q-71 0 -118 33t-47 92q0 38 22 56.5t51 18.5q19 0 34.5 -8t24.5 -23q-19 -21 -19 -48q0 -28 17.5 -45t44.5 -17q41 0 67 30.5t41.5 82.5t32.5 143q-21 -29 -57.5 -43t-79.5 -14q-133 0 -133 136q0 62 24 164
l36 152l109 12l-38 -164q-8 -36 -15 -81.5t-7 -74.5q0 -84 64 -84q51 0 80 46.5t42 114.5l44 231l112 12zM266 622q-55 15 -85 34.5t-30 56.5q0 18 8 34t24 22l212 -136l-17 -41z" />
    <glyph glyph-name="uni1EF9.loclGUA" horiz-adv-x="504" 
d="M0 0zM416 141q-22 -118 -51.5 -191t-79 -111.5t-128.5 -38.5q-71 0 -118 33t-47 92q0 38 22 56.5t51 18.5q19 0 34.5 -8t24.5 -23q-19 -21 -19 -48q0 -28 17.5 -45t44.5 -17q41 0 67 30.5t41.5 82.5t32.5 143q-21 -29 -57.5 -43t-79.5 -14q-133 0 -133 136q0 62 24 164
l36 152l109 12l-38 -164q-8 -36 -15 -81.5t-7 -74.5q0 -84 64 -84q51 0 80 46.5t42 114.5l44 231l112 12zM489 679q0 -29 -21 -44.5t-56 -15.5q-19 0 -83 8q-62 8 -83 8q-37 0 -56 -15q-17 25 -17 46q0 26 21 40t60 14q24 0 86 -8t83 -8q38 0 50 16q16 -19 16 -41z" />
    <glyph glyph-name="cacute.loclPLK" horiz-adv-x="439" 
d="M27 0zM410.5 503q38.5 -27 38.5 -78q0 -42 -24.5 -64.5t-58.5 -22.5q-29 0 -42 14q6 15 10 34.5t4 33.5q0 24 -12 37.5t-36 13.5q-45 0 -79 -48.5t-51.5 -117t-17.5 -123.5q0 -119 91 -119q43 0 75 26.5t47 69.5q34 -10 34 -51q0 -35 -24.5 -64t-68 -46.5t-96.5 -17.5
q-173 0 -173 198q0 89 32.5 170t96 131.5t152.5 50.5q64 0 102.5 -27zM374 775q72 0 72 -37q0 -17 -16 -42t-46 -59l-63 -72l-42 18z" />
    <glyph glyph-name="nacute.loclPLK" horiz-adv-x="540" 
d="M25 0zM279 506q45 24 100 24q63 0 92.5 -32.5t29.5 -95.5q0 -40 -9 -86.5t-28 -121.5q-10 -39 -17.5 -74.5t-7.5 -54.5q0 -17 6.5 -26.5t23.5 -11.5q-6 -23 -26.5 -35t-47.5 -12q-67 0 -67 75q0 30 8.5 72t24.5 109q15 59 22 93t7 56q0 33 -17 50.5t-47 17.5
q-53 0 -86.5 -51.5t-47.5 -123.5l-54 -278l-113 -12l102 522l94 12l-13 -90q26 50 71 74zM399 775q72 0 72 -37q0 -17 -16 -42t-46 -59l-63 -72l-42 18z" />
    <glyph glyph-name="oacute.loclPLK" horiz-adv-x="509" 
d="M27 0zM447 479q35 -51 35 -136q0 -96 -31 -178.5t-96 -133.5t-161 -51q-97 0 -132 51t-35 136q0 96 31 178.5t95.5 133.5t160.5 51q98 0 133 -51zM211 426q-29 -44 -46 -117q-10 -39 -16.5 -85.5t-6.5 -79.5q0 -104 74 -104q52 0 81.5 44t46.5 117q10 39 16.5 85.5
t6.5 79.5q0 104 -75 104q-52 0 -81 -44zM389 775q72 0 72 -37q0 -17 -16 -42t-46 -59l-63 -72l-42 18z" />
    <glyph glyph-name="sacute.loclPLK" horiz-adv-x="416" 
d="M0 0zM238.5 165q-21.5 24 -66.5 55q-53 36 -82 69t-29 83q0 48 30 84t79.5 55t104.5 19q60 0 101 -22.5t41 -72.5q0 -38 -25 -60t-62 -22q-28 0 -40 11q14 35 14 59q0 56 -57 56q-35 0 -55.5 -19.5t-20.5 -52.5q0 -34 21.5 -57.5t65.5 -54.5q36 -25 58.5 -44.5t38 -46.5
t15.5 -62q0 -49 -30 -86t-79.5 -57.5t-104.5 -20.5q-65 0 -114 27t-49 76q0 38 28.5 56.5t64.5 18.5q28 0 43 -12q-14 -30 -14 -59q0 -56 59 -56q37 0 61.5 22t24.5 57q0 33 -21.5 57zM330 775q72 0 72 -37q0 -17 -16 -42t-46 -59l-63 -72l-42 18z" />
    <glyph glyph-name="zacute.loclPLK" horiz-adv-x="396" 
d="M0 0zM216.5 428.5q-44.5 4.5 -70.5 4.5q-25 0 -43.5 -6t-33.5 -21q-18 23 -18 55q0 36 27 52t71 16q26 0 57.5 -5t37.5 -6q66 -12 97 -12q35 0 54 10q18 -18 18 -44q0 -37 -30 -71l-273 -305q29 -6 77 -11t76 -5q56 0 82 27q18 -23 18 -54q0 -37 -28.5 -53t-73.5 -16
q-34 0 -100 12q-64 12 -93 12q-35 0 -55 -11q-10 6 -17 22.5t-7 34.5q0 42 37 83l265 281q-30 6 -74.5 10.5zM316 775q72 0 72 -37q0 -17 -16 -42t-46 -59l-63 -72l-42 18z" />
    <glyph glyph-name="quotesingle.loclGUA" horiz-adv-x="120" 
d="M52 502q32 141 33 202q22 6 44 6q30 0 42 -14.5t12 -47.5q0 -43 -26 -111t-50 -100h-68z" />
    <glyph glyph-name="tildecomb.case" horiz-adv-x="0" 
d="M102 785q0 -29 -21 -44.5t-56 -15.5q-21 0 -83 8q-64 8 -83 8q-37 0 -56 -15q-17 25 -17 46q0 26 21 40t59 14q23 0 87 -8q62 -8 83 -8q38 0 50 16q16 -19 16 -41z" />
    <glyph glyph-name="caron.alt" horiz-adv-x="107" 
d="M106 716.5q14 3.5 27 3.5q24 0 38.5 -15t14.5 -45q0 -33 -17.5 -62t-44.5 -46.5t-54 -17.5q-15 0 -31 6q27 33 40 62.5t13 65.5q0 24 -8 40q8 5 22 8.5z" />
    <glyph glyph-name="acute.case" horiz-adv-x="233" 
d="M87 756l234 89q22 -15 22 -45q0 -45 -37 -61.5t-96 -19.5l-115 -6z" />
    <glyph glyph-name="breve.case" horiz-adv-x="283" 
d="M183 803q0 -25 13 -40t37 -15q32 0 56.5 26.5t30.5 57.5h80q-11 -61 -58.5 -97t-118.5 -36q-62 0 -94 27.5t-32 77.5q0 13 3 28h87q-4 -19 -4 -29z" />
    <glyph glyph-name="caron.case" horiz-adv-x="292" 
d="M99 799l40 38l104 -52l130 52l27 -39l-163 -106h-6z" />
    <glyph glyph-name="circumflex.case" horiz-adv-x="291" 
d="M391 722l-40 -48l-105 72l-130 -72l-27 49l163 116h7z" />
    <glyph glyph-name="dieresis.case" horiz-adv-x="339" 
d="M217.5 837q20.5 -16 20.5 -46q0 -31 -22 -47.5t-55 -16.5t-53 16t-20 46q0 31 21.5 47.5t54.5 16.5t53.5 -16zM426.5 837q20.5 -16 20.5 -46q0 -31 -22 -47.5t-55 -16.5t-53 16t-20 46q0 31 21.5 47.5t54.5 16.5t53.5 -16z" />
    <glyph glyph-name="grave.case" horiz-adv-x="250" 
d="M345 713l-115 6q-59 3 -96 19.5t-37 61.5q0 30 22 45l234 -89z" />
    <glyph glyph-name="hungarumlaut.case" horiz-adv-x="339" 
d="M242 847q11 -8 17 -21t6 -28q0 -30 -20 -48t-63 -27l-76 -16l-22 33zM425 847q24 -16 24 -48q0 -31 -19.5 -49t-62.5 -27l-78 -16l-21 33z" />
    <glyph glyph-name="acute.loclPLK.case" horiz-adv-x="233" 
d="M235 855q72 0 72 -37q0 -19 -18.5 -45.5t-65.5 -80.5l-59 8z" />
    <glyph glyph-name="ring.case" horiz-adv-x="203" 
d="M269 717q-36 -27 -82 -27q-41 0 -64 17.5t-23 50.5q0 44 35 70.5t81 26.5q41 0 65 -18t24 -50q0 -43 -36 -70zM235 810.5q-10 9.5 -29 9.5t-33.5 -18.5t-14.5 -44.5q0 -35 35 -35q19 0 35.5 18.5t16.5 43.5q0 17 -10 26.5z" />
    <glyph glyph-name="tilde.case" horiz-adv-x="299" 
d="M403 785q0 -29 -21 -44.5t-56 -15.5q-20 0 -84 8q-62 8 -82 8q-37 0 -56 -15q-17 25 -17 46q0 26 21 40t59 14q23 0 87 -8q62 -8 83 -8q38 0 50 16q16 -19 16 -41z" />
    <glyph glyph-name="acute.loclPLK" horiz-adv-x="228" 
d="M215 775q72 0 72 -37q0 -17 -16 -42t-46 -59l-63 -72l-42 18z" />
    <glyph glyph-name="commaaccentinvert" horiz-adv-x="89" 
d="M216 749q-27 -37 -40.5 -66t-13.5 -63q0 -19 7 -37q-21 -11 -52 -11q-24 0 -39.5 14t-15.5 42q0 31 18.5 61.5t48 50.5t59.5 20q17 0 28 -11z" />
    <glyph glyph-name=".ttfautohint" horiz-adv-x="89" 
d="M0 0z" />
    </font>
</defs>
</svg>
